<?xml version="1.0" encoding="utf-8"?>
<!-- Generator: Adobe Illustrator 23.0.4, SVG Export Plug-In . SVG Version: 6.00 Build 0)  -->
<svg version="1.1" id="Layer_1" xmlns="http://www.w3.org/2000/svg" xmlns:xlink="http://www.w3.org/1999/xlink" x="0px" y="0px"
	 viewBox="0 0 890 838" style="enable-background:new 0 0 890 838;" xml:space="preserve">
<style type="text/css">
	.st0{fill:#F9F9F9;}
	.st1{fill:url(#SVGID_3_);}
	.st2{fill:#FFFFFF;}
	.st3{fill:url(#SVGID_4_);}
	.st4{fill:url(#SVGID_5_);}
	.st5{fill:url(#SVGID_6_);}
</style>
<rect x="-36" y="-31" class="st0" width="969" height="901"/>
<g>
	<defs>
		<path id="SVGID_1_" d="M604.8,53.2C556,32.5,504,22,450.5,22S345,32.5,296.2,53.2c-47.2,20-89.6,48.6-126,85
			c-36.4,36.4-65,78.8-85,126C64.5,313,54,365,54,418.5S64.5,524,85.2,572.8c20,47.2,48.6,89.6,85,126c36.4,36.4,78.8,65,126,85
			C345,804.5,397,815,450.5,815s105.5-10.5,154.3-31.2c47.2-20,89.6-48.6,126-85c36.4-36.4,65-78.8,85-126
			C836.5,524,847,472,847,418.5S836.5,313,815.8,264.2c-20-47.2-48.6-89.6-85-126C694.4,101.7,652,73.1,604.8,53.2z"/>
	</defs>
	<clipPath id="SVGID_2_">
		<use xlink:href="#SVGID_1_"  style="overflow:visible;"/>
	</clipPath>
	<g style="clip-path:url(#SVGID_2_);">
		
			<image style="overflow:visible;" width="1704" height="1510" xlink:href="../../../../../../../Desktop/Screen Shot 2019-09-11 at 9.32.42 AM.png"  transform="matrix(0.5577 0 0 0.5577 -33.87 -9.4596)">
		</image>
	</g>
	<use xlink:href="#SVGID_1_"  style="overflow:visible;fill:none;stroke:#053049;stroke-width:5.4241;stroke-miterlimit:10;"/>
</g>
<g>
	<linearGradient id="SVGID_3_" gradientUnits="userSpaceOnUse" x1="549.7606" y1="183.9253" x2="685.3625" y2="183.9253">
		<stop  offset="0" style="stop-color:#41B1F2"/>
		<stop  offset="0.2227" style="stop-color:#2F9BD9"/>
		<stop  offset="0.5262" style="stop-color:#1C83BE"/>
		<stop  offset="0.7953" style="stop-color:#1074AE"/>
		<stop  offset="1" style="stop-color:#0C6FA8"/>
	</linearGradient>
	<path class="st1" d="M685.4,171.6c0,27.1-35.7,67.1-55.5,87.2c-7,7.1-18.6,7.1-25.5-0.1c-19.5-20.1-54.6-60-54.6-87.1
		c0-37.4,30.4-67.8,67.8-67.8S685.4,134.1,685.4,171.6z"/>
	<g>
		<path class="st2" d="M620.5,201c-2.3,0-4.3-1.8-4.5-4.1c-0.2-2.5,1.6-4.7,4.1-4.9c4.1-0.4,7.9-1.6,11.4-3.7
			c2.2-1.3,4.9-0.6,6.2,1.5c1.3,2.2,0.6,4.9-1.5,6.2c-4.7,2.8-9.8,4.5-15.2,5C620.7,201,620.6,201,620.5,201z M602.9,197.5
			c-0.7,0-1.4-0.2-2.1-0.5c-4.7-2.5-8.9-6.1-12.1-10.5c-1.5-2-1.1-4.9,1-6.4c2-1.5,4.9-1.1,6.4,1c2.4,3.2,5.5,5.9,9.1,7.8
			c2.2,1.2,3.1,3.9,1.9,6.2C606.1,196.6,604.5,197.5,602.9,197.5z M645.8,183.4c-0.7,0-1.3-0.1-2-0.5c-2.3-1.1-3.2-3.8-2.1-6.1
			c1.8-3.7,2.7-7.6,2.7-11.7c0-1-0.1-2-0.2-3c-0.3-2.5,1.5-4.7,4-5c2.5-0.3,4.7,1.5,5,4c0.1,1.3,0.2,2.6,0.2,4
			c0,5.5-1.2,10.7-3.6,15.6C649.2,182.4,647.5,183.4,645.8,183.4z M586.2,171.5c-2.4,0-4.4-1.9-4.5-4.3c0-0.7-0.1-1.3-0.1-2
			c0-4.8,0.9-9.4,2.7-13.8c1-2.3,3.6-3.4,5.9-2.5c2.3,1,3.4,3.6,2.5,5.9c-1.4,3.3-2,6.7-2,10.3c0,0.5,0,1,0,1.5
			c0.1,2.5-1.8,4.7-4.3,4.8C586.4,171.5,586.3,171.5,586.2,171.5z M641.8,149.8c-1.3,0-2.6-0.6-3.5-1.7c-2.6-3.1-5.8-5.6-9.5-7.3
			c-2.3-1.1-3.3-3.8-2.2-6c1.1-2.3,3.8-3.3,6-2.2c4.9,2.2,9.3,5.6,12.7,9.8c1.6,1.9,1.3,4.8-0.6,6.4
			C643.8,149.4,642.8,149.8,641.8,149.8z M599.9,143.8c-1.5,0-2.9-0.7-3.8-2c-1.4-2.1-0.9-4.9,1.2-6.3c4.4-3,9.6-5,14.9-5.8
			c2.5-0.4,4.8,1.4,5.2,3.8c0.4,2.5-1.4,4.8-3.8,5.2c-4,0.6-7.8,2.1-11.1,4.4C601.7,143.5,600.8,143.8,599.9,143.8z"/>
	</g>
</g>
<g>
	<linearGradient id="SVGID_4_" gradientUnits="userSpaceOnUse" x1="171.16" y1="259.8624" x2="306.762" y2="259.8624">
		<stop  offset="0" style="stop-color:#41B1F2"/>
		<stop  offset="0.2227" style="stop-color:#2F9BD9"/>
		<stop  offset="0.5262" style="stop-color:#1C83BE"/>
		<stop  offset="0.7953" style="stop-color:#1074AE"/>
		<stop  offset="1" style="stop-color:#0C6FA8"/>
	</linearGradient>
	<path class="st3" d="M306.8,247.5c0,27.1-35.7,67.1-55.5,87.2c-7,7.1-18.6,7.1-25.5-0.1c-19.5-20.1-54.6-60-54.6-87.1
		c0-37.4,30.4-67.8,67.8-67.8S306.8,210.1,306.8,247.5z"/>
	<g>
		<path class="st2" d="M241.9,276.9c-2.3,0-4.3-1.8-4.5-4.1c-0.2-2.5,1.6-4.7,4.1-4.9c4.1-0.4,7.9-1.6,11.4-3.7
			c2.2-1.3,4.9-0.6,6.2,1.5c1.3,2.2,0.6,4.9-1.5,6.2c-4.7,2.8-9.8,4.5-15.2,5C242.1,276.9,242,276.9,241.9,276.9z M224.3,273.4
			c-0.7,0-1.4-0.2-2.1-0.5c-4.7-2.5-8.9-6.1-12.1-10.5c-1.5-2-1.1-4.9,1-6.4c2-1.5,4.9-1.1,6.4,1c2.4,3.2,5.5,5.9,9.1,7.8
			c2.2,1.2,3.1,3.9,1.9,6.2C227.5,272.6,225.9,273.4,224.3,273.4z M267.2,259.3c-0.7,0-1.3-0.1-2-0.5c-2.3-1.1-3.2-3.8-2.1-6.1
			c1.8-3.7,2.7-7.6,2.7-11.7c0-1-0.1-2-0.2-3c-0.3-2.5,1.5-4.7,4-5c2.5-0.3,4.7,1.5,5,4c0.1,1.3,0.2,2.6,0.2,4
			c0,5.5-1.2,10.7-3.6,15.6C270.6,258.4,268.9,259.3,267.2,259.3z M207.6,247.4c-2.4,0-4.4-1.9-4.5-4.3c0-0.7-0.1-1.3-0.1-2
			c0-4.8,0.9-9.4,2.7-13.8c1-2.3,3.6-3.4,5.9-2.5c2.3,1,3.4,3.6,2.5,5.9c-1.4,3.3-2,6.7-2,10.3c0,0.5,0,1,0,1.5
			c0.1,2.5-1.8,4.7-4.3,4.8C207.8,247.4,207.7,247.4,207.6,247.4z M263.2,225.7c-1.3,0-2.6-0.6-3.5-1.7c-2.6-3.1-5.8-5.6-9.5-7.3
			c-2.3-1.1-3.3-3.8-2.2-6c1.1-2.3,3.8-3.3,6-2.2c4.9,2.2,9.3,5.6,12.7,9.8c1.6,1.9,1.3,4.8-0.6,6.4
			C265.2,225.4,264.2,225.7,263.2,225.7z M221.3,219.7c-1.5,0-2.9-0.7-3.8-2c-1.4-2.1-0.9-4.9,1.2-6.3c4.4-3,9.6-5,14.9-5.8
			c2.5-0.4,4.8,1.4,5.2,3.8c0.4,2.5-1.4,4.8-3.8,5.2c-4,0.6-7.8,2.1-11.1,4.4C223.1,219.5,222.2,219.7,221.3,219.7z"/>
	</g>
</g>
<g>
	<linearGradient id="SVGID_5_" gradientUnits="userSpaceOnUse" x1="314.3557" y1="684.0252" x2="449.9576" y2="684.0252">
		<stop  offset="0" style="stop-color:#41B1F2"/>
		<stop  offset="0.2227" style="stop-color:#2F9BD9"/>
		<stop  offset="0.5262" style="stop-color:#1C83BE"/>
		<stop  offset="0.7953" style="stop-color:#1074AE"/>
		<stop  offset="1" style="stop-color:#0C6FA8"/>
	</linearGradient>
	<path class="st4" d="M450,671.7c0,27.1-35.7,67.1-55.5,87.2c-7,7.1-18.6,7.1-25.5-0.1c-19.5-20.1-54.6-60-54.6-87.1
		c0-37.4,30.4-67.8,67.8-67.8S450,634.2,450,671.7z"/>
	<g>
		<path class="st2" d="M385.1,701.1c-2.3,0-4.3-1.8-4.5-4.1c-0.2-2.5,1.6-4.7,4.1-4.9c4.1-0.4,7.9-1.6,11.4-3.7
			c2.2-1.3,4.9-0.6,6.2,1.5c1.3,2.2,0.6,4.9-1.5,6.2c-4.7,2.8-9.8,4.5-15.2,5C385.3,701.1,385.2,701.1,385.1,701.1z M367.5,697.6
			c-0.7,0-1.4-0.2-2.1-0.5c-4.7-2.5-8.9-6.1-12.1-10.5c-1.5-2-1.1-4.9,1-6.4c2-1.5,4.9-1.1,6.4,1c2.4,3.2,5.5,5.9,9.1,7.8
			c2.2,1.2,3.1,3.9,1.9,6.2C370.7,696.7,369.1,697.6,367.5,697.6z M410.4,683.5c-0.7,0-1.3-0.1-2-0.5c-2.3-1.1-3.2-3.8-2.1-6.1
			c1.8-3.7,2.7-7.6,2.7-11.7c0-1-0.1-2-0.2-3c-0.3-2.5,1.5-4.7,4-5c2.5-0.3,4.7,1.5,5,4c0.1,1.3,0.2,2.6,0.2,4
			c0,5.5-1.2,10.7-3.6,15.6C413.8,682.5,412.1,683.5,410.4,683.5z M350.8,671.6c-2.4,0-4.4-1.9-4.5-4.3c0-0.7-0.1-1.3-0.1-2
			c0-4.8,0.9-9.4,2.7-13.8c1-2.3,3.6-3.4,5.9-2.5c2.3,1,3.4,3.6,2.5,5.9c-1.4,3.3-2,6.7-2,10.3c0,0.5,0,1,0,1.5
			c0.1,2.5-1.8,4.7-4.3,4.8C351,671.6,350.9,671.6,350.8,671.6z M406.4,649.9c-1.3,0-2.6-0.6-3.5-1.7c-2.6-3.1-5.8-5.6-9.5-7.3
			c-2.3-1.1-3.3-3.8-2.2-6c1.1-2.3,3.8-3.3,6-2.2c4.9,2.2,9.3,5.6,12.7,9.8c1.6,1.9,1.3,4.8-0.6,6.4
			C408.4,649.5,407.4,649.9,406.4,649.9z M364.5,643.9c-1.5,0-2.9-0.7-3.8-2c-1.4-2.1-0.9-4.9,1.2-6.3c4.4-3,9.6-5,14.9-5.8
			c2.5-0.4,4.8,1.4,5.2,3.8c0.4,2.5-1.4,4.8-3.8,5.2c-4,0.6-7.8,2.1-11.1,4.4C366.3,643.6,365.4,643.9,364.5,643.9z"/>
	</g>
</g>
<g>
	<linearGradient id="SVGID_6_" gradientUnits="userSpaceOnUse" x1="366.0968" y1="418.5849" x2="537.8276" y2="418.5849">
		<stop  offset="0" style="stop-color:#FC7474"/>
		<stop  offset="0.2161" style="stop-color:#FD5C69"/>
		<stop  offset="0.5222" style="stop-color:#FE415C"/>
		<stop  offset="0.7935" style="stop-color:#FF3155"/>
		<stop  offset="1" style="stop-color:#FF2B52"/>
	</linearGradient>
	<path class="st5" d="M537.8,402.9c0,34.3-45.2,85-70.2,110.4c-8.9,9-23.5,8.9-32.3-0.2c-24.7-25.5-69.1-76-69.1-110.3
		c0-47.4,38.4-85.9,85.9-85.9S537.8,355.5,537.8,402.9z"/>
	<g>
		<path class="st2" d="M455.6,440.2c-2.9,0-5.5-2.2-5.7-5.2c-0.3-3.2,2-6,5.2-6.3c5.1-0.5,10-2.1,14.4-4.7c2.7-1.6,6.3-0.8,7.9,2
			c1.6,2.7,0.8,6.3-2,7.9c-5.9,3.6-12.4,5.7-19.3,6.3C456,440.2,455.8,440.2,455.6,440.2z M433.4,435.8c-0.9,0-1.8-0.2-2.7-0.7
			c-6-3.2-11.3-7.8-15.4-13.2c-1.9-2.6-1.3-6.2,1.2-8.1c2.6-1.9,6.2-1.3,8.1,1.2c3,4.1,7,7.5,11.5,9.9c2.8,1.5,3.9,5,2.4,7.8
			C437.4,434.7,435.4,435.8,433.4,435.8z M487.8,417.9c-0.8,0-1.7-0.2-2.5-0.6c-2.9-1.4-4.1-4.8-2.7-7.7c2.2-4.6,3.4-9.6,3.4-14.8
			c0-1.3-0.1-2.5-0.2-3.8c-0.3-3.2,1.9-6,5.1-6.4c3.2-0.3,6,1.9,6.4,5.1c0.2,1.7,0.3,3.3,0.3,5c0,6.9-1.5,13.6-4.5,19.8
			C492,416.7,489.9,417.9,487.8,417.9z M412.3,402.8c-3,0-5.6-2.4-5.8-5.5c0-0.8-0.1-1.7-0.1-2.5c0-6,1.2-11.9,3.5-17.5
			c1.2-2.9,4.6-4.3,7.5-3.1c2.9,1.2,4.3,4.6,3.1,7.5c-1.7,4.1-2.6,8.5-2.6,13.1c0,0.6,0,1.3,0.1,1.9c0.2,3.2-2.3,5.9-5.4,6.1
			C412.5,402.8,412.4,402.8,412.3,402.8z M482.6,375.3c-1.7,0-3.3-0.7-4.4-2.1c-3.2-3.9-7.4-7.1-12-9.3c-2.9-1.3-4.2-4.8-2.8-7.6
			c1.3-2.9,4.8-4.2,7.6-2.8c6.2,2.8,11.7,7.1,16.1,12.4c2,2.5,1.7,6.1-0.8,8.1C485.2,374.9,483.9,375.3,482.6,375.3z M429.6,367.7
			c-1.8,0-3.7-0.9-4.8-2.5c-1.8-2.6-1.1-6.2,1.5-8c5.6-3.8,12.2-6.4,18.9-7.4c3.2-0.5,6.1,1.7,6.5,4.9c0.5,3.1-1.7,6.1-4.9,6.5
			c-5.1,0.8-9.8,2.6-14.1,5.5C431.8,367.4,430.7,367.7,429.6,367.7z"/>
	</g>
</g>
</svg>
