<?xml version="1.0" encoding="utf-8"?>
<!-- Generator: Adobe Illustrator 23.0.4, SVG Export Plug-In . SVG Version: 6.00 Build 0)  -->
<svg version="1.1" id="Layer_1" xmlns="http://www.w3.org/2000/svg" xmlns:xlink="http://www.w3.org/1999/xlink" x="0px" y="0px"
	 viewBox="0 0 704 730" style="enable-background:new 0 0 704 730;" xml:space="preserve">
<style type="text/css">
	.st0{opacity:0.63;}
	.st1{fill:#E8E6E2;}
	.st2{opacity:0.4;}
	.st3{fill:url(#SVGID_1_);}
	.st4{fill:url(#SVGID_2_);}
	.st5{fill:url(#SVGID_3_);}
	.st6{fill:url(#SVGID_4_);}
	.st7{fill:url(#SVGID_5_);}
	.st8{fill:url(#SVGID_6_);}
	.st9{opacity:0.89;fill:#F6F6F6;}
	.st10{fill:#053049;}
</style>
<g>
	<g class="st0">
		<g>
			<path class="st1" d="M673.8,361.6H28.9c-4.5,0-8.2-3.7-8.2-8.2s3.7-8.2,8.2-8.2h644.9c4.5,0,8.2,3.7,8.2,8.2
				S678.4,361.6,673.8,361.6z"/>
		</g>
		<g>
			<path class="st1" d="M342.3,719.4c-3.4,0-6.6-2.1-7.8-5.5l-22.9-66.4c-0.9-2.6-1.4-5.3-1.4-8.1V416.9c0-4.5-3.7-8.3-8.2-8.3
				l-18.4-0.3c-13.4-0.2-24.4-11.3-24.4-24.8v-78.3c0-13.5,11-24.6,24.5-24.8l42-0.5c4.5,0,8.2-3.8,8.2-8.3V19.4
				c0-4.5,3.7-8.2,8.2-8.2s8.2,3.7,8.2,8.2v252.3c0,13.5-11,24.6-24.5,24.8l-42,0.5c-4.5,0-8.2,3.8-8.2,8.3v78.3
				c0,4.5,3.7,8.3,8.2,8.3l18.4,0.3c13.4,0.2,24.4,11.3,24.4,24.8v222.5c0,0.9,0.2,1.8,0.5,2.7l22.9,66.4c1.5,4.3-0.8,9-5.1,10.4
				C344.1,719.3,343.2,719.4,342.3,719.4z"/>
		</g>
		<g>
			<path class="st1" d="M462.7,134.9c-4.5,0-8.2-3.7-8.2-8.2V14.9c0-4.5,3.7-8.2,8.2-8.2s8.2,3.7,8.2,8.2v111.7
				C470.9,131.2,467.2,134.9,462.7,134.9z"/>
		</g>
		<g>
			<path class="st1" d="M467.6,274.1c-39.2,0-71.1-31.9-71.1-71.1c0-39.2,31.9-71.1,71.1-71.1s71.1,31.9,71.1,71.1
				C538.7,242.2,506.8,274.1,467.6,274.1z M467.6,148.4c-30.1,0-54.6,24.5-54.6,54.6s24.5,54.6,54.6,54.6s54.6-24.5,54.6-54.6
				S497.7,148.4,467.6,148.4z"/>
		</g>
		<g>
			<path class="st1" d="M413.8,178.8c-2.4,0-4.7-1-6.4-3l-71.9-87.5c-2.9-3.5-2.4-8.7,1.1-11.6c3.5-2.9,8.7-2.4,11.6,1.1l71.9,87.5
				c2.9,3.5,2.4,8.7-1.1,11.6C417.5,178.2,415.6,178.8,413.8,178.8z"/>
		</g>
		<g>
			<path class="st1" d="M240.4,719.4c-0.1,0-0.2,0-0.4,0c-4.5-0.2-8-4-7.8-8.6l3.4-75.8l200.1-372.6c2.1-4,7.1-5.5,11.1-3.3
				c4,2.1,5.5,7.1,3.3,11.1L251.9,639.5l-3.2,72.1C248.5,716,244.8,719.4,240.4,719.4z"/>
		</g>
		<g>
			<path class="st1" d="M404.8,720.2c-4.5,0-8.2-3.7-8.2-8.2v-72.5c0-12.6,10.2-22.8,22.8-22.8h50.5c3.2,0,7.2-1.8,8.4-3.1
				l32.1-104.4l0.3-0.7c0.5-0.9,0.7-1.9,0.7-2.9l0-0.1l2-148c0-1.3-0.4-2.5-1.1-3.6l-0.3-0.5l-40.7-84.7c-2-4.1-0.2-9,3.8-11
				c4.1-2,9-0.2,11,3.8l40.2,83.7c2.3,3.7,3.6,7.9,3.6,12.3l0,0.1l-2,148c0,3.3-0.8,6.7-2.2,9.7l-32.3,104.9l-0.3,0.7
				c-4.1,8-15.1,12.3-23.3,12.3h-50.5c-3.5,0-6.4,2.9-6.4,6.4V712C413,716.5,409.3,720.2,404.8,720.2z M521.7,357.5L521.7,357.5
				L521.7,357.5z"/>
		</g>
		<g>
			<path class="st1" d="M680.8,594.5H35.9c-4.5,0-8.2-3.7-8.2-8.2s3.7-8.2,8.2-8.2h644.9c4.5,0,8.2,3.7,8.2,8.2
				S685.3,594.5,680.8,594.5z"/>
		</g>
		<g>
			<path class="st1" d="M254,172.7H28.9c-4.5,0-8.2-3.7-8.2-8.2s3.7-8.2,8.2-8.2H254c4.5,0,8.2,3.7,8.2,8.2S258.5,172.7,254,172.7z"
				/>
		</g>
		<g>
			<path class="st1" d="M95.8,361.2c-4.5,0-8.2-3.7-8.2-8.2V14.5c0-4.5,3.7-8.2,8.2-8.2s8.2,3.7,8.2,8.2V353
				C104.1,357.5,100.4,361.2,95.8,361.2z"/>
		</g>
		<g>
			<path class="st1" d="M200.5,261.4H32.2c-4.5,0-8.2-3.7-8.2-8.2s3.7-8.2,8.2-8.2h168.3c4.5,0,8.2,3.7,8.2,8.2
				S205,261.4,200.5,261.4z"/>
		</g>
		<g>
			<path class="st1" d="M624.5,719.4c-4.5,0-8.2-3.7-8.2-8.2l-0.4-691.3c0-4.5,3.7-8.2,8.2-8.2c0,0,0,0,0,0c4.5,0,8.2,3.7,8.2,8.2
				l0.4,691.3C632.7,715.7,629,719.4,624.5,719.4C624.5,719.4,624.5,719.4,624.5,719.4z"/>
		</g>
		<g>
			<path class="st1" d="M680.4,79H466.8c-4.5,0-8.2-3.7-8.2-8.2s3.7-8.2,8.2-8.2h213.6c4.5,0,8.2,3.7,8.2,8.2S684.9,79,680.4,79z"/>
		</g>
		<g>
			<path class="st1" d="M680.8,210.9H530.5c-4.5,0-8.2-3.7-8.2-8.2s3.7-8.2,8.2-8.2h150.3c4.5,0,8.2,3.7,8.2,8.2
				S685.3,210.9,680.8,210.9z"/>
		</g>
		<g>
			<path class="st1" d="M618.5,719.4H404.8c-4.5,0-8.2-3.7-8.2-8.2s3.7-8.2,8.2-8.2h213.7c4.5,0,8.2,3.7,8.2,8.2
				S623,719.4,618.5,719.4z"/>
		</g>
		<g>
			<path class="st1" d="M176.4,719.4c0,0-0.1,0-0.1,0c-4.5-0.1-8.2-3.8-8.1-8.3l7-435.2c0.3-17.7,14.8-31.9,32.4-31.9
				c0.1,0,0.2,0,0.4,0l24.1,0.3c0.1,0,0.1,0,0.2,0c8.7,0,15.8-7,16-15.7l1.6-97.5c0.1-4.3-1.6-8.4-4.6-11.5s-7.1-4.8-11.4-4.8H208
				c-17.9,0-32.4-14.5-32.4-32.4V14.5c0-4.5,3.7-8.2,8.2-8.2s8.2,3.7,8.2,8.2v67.8c0,8.8,7.2,16,16,16h25.9c8.8,0,17,3.4,23.1,9.7
				c6.1,6.2,9.4,14.5,9.3,23.3l-1.6,97.5c-0.3,17.7-14.8,31.9-32.4,31.9c-0.1,0-0.2,0-0.4,0l-24.1-0.3c-0.1,0-0.1,0-0.2,0
				c-8.7,0-15.9,7-16,15.7l-7,435.2C184.5,715.8,180.8,719.4,176.4,719.4z"/>
		</g>
	</g>
	<g class="st2">
		<g>
			<linearGradient id="SVGID_1_" gradientUnits="userSpaceOnUse" x1="240.7979" y1="17.4076" x2="240.7979" y2="713.2325">
				<stop  offset="0" style="stop-color:#053049"/>
				<stop  offset="0.2589" style="stop-color:#422F4B"/>
				<stop  offset="0.854" style="stop-color:#D92C51"/>
				<stop  offset="1" style="stop-color:#FF2B52"/>
			</linearGradient>
			<path class="st3" d="M240.7,713.2C240.7,713.2,240.7,713.2,240.7,713.2c-1.4,0-2.5-1.2-2.5-2.5l0.2-4.9c0-1.4,1.2-2.4,2.5-2.4
				c1.4,0,2.4,1.2,2.4,2.5l-0.2,4.9C243.1,712.2,242,713.2,240.7,713.2z"/>
		</g>
		<g>
			<linearGradient id="SVGID_2_" gradientUnits="userSpaceOnUse" x1="341.5633" y1="22.4707" x2="341.5633" y2="713.1205">
				<stop  offset="0" style="stop-color:#053049"/>
				<stop  offset="0.2589" style="stop-color:#422F4B"/>
				<stop  offset="0.854" style="stop-color:#D92C51"/>
				<stop  offset="1" style="stop-color:#FF2B52"/>
			</linearGradient>
			<path class="st4" d="M241.2,698.3C241.2,698.3,241.2,698.3,241.2,698.3c-1.4,0-2.5-1.2-2.5-2.5l0.3-10c0-1.4,1.2-2.4,2.5-2.4
				c1.4,0,2.4,1.2,2.4,2.5l-0.3,10C243.6,697.3,242.5,698.3,241.2,698.3z M241.9,678.4C241.9,678.4,241.8,678.4,241.9,678.4
				c-1.4,0-2.5-1.2-2.5-2.5l0.3-10c0-1.4,1.2-2.4,2.5-2.4c1.4,0,2.4,1.2,2.4,2.5l-0.3,10C244.3,677.3,243.2,678.4,241.9,678.4z
				 M242.6,658.4C242.5,658.4,242.5,658.4,242.6,658.4c-1.4,0-2.5-1.2-2.5-2.5l0.3-10c0-1.4,1.2-2.4,2.5-2.4c1.4,0,2.4,1.2,2.4,2.5
				l-0.3,10C245,657.4,243.9,658.4,242.6,658.4z M243.8,638.6c-0.3,0-0.6-0.1-1-0.2c-1.3-0.5-1.8-2-1.3-3.2c0.1-0.3,0.3-0.7,0.5-1
				l4.3-8c0.6-1.2,2.1-1.6,3.3-1c1.2,0.6,1.6,2.1,1,3.3l-4.3,8c-0.1,0.2-0.2,0.4-0.3,0.6C245.7,638,244.8,638.6,243.8,638.6z
				 M253.3,621c-0.4,0-0.8-0.1-1.2-0.3c-1.2-0.6-1.6-2.1-1-3.3l4.7-8.8c0.6-1.2,2.1-1.6,3.3-1c1.2,0.6,1.6,2.1,1,3.3l-4.7,8.8
				C255,620.5,254.1,621,253.3,621z M262.7,603.4c-0.4,0-0.8-0.1-1.2-0.3c-1.2-0.6-1.6-2.1-1-3.3l4.7-8.8c0.6-1.2,2.1-1.6,3.3-1
				c1.2,0.6,1.6,2.1,1,3.3l-4.7,8.8C264.4,602.9,263.6,603.4,262.7,603.4z M272.2,585.8c-0.4,0-0.8-0.1-1.2-0.3
				c-1.2-0.6-1.6-2.1-1-3.3l4.7-8.8c0.6-1.2,2.1-1.6,3.3-1c1.2,0.6,1.6,2.1,1,3.3l-4.7,8.8C273.9,585.3,273.1,585.8,272.2,585.8z
				 M281.6,568.2c-0.4,0-0.8-0.1-1.2-0.3c-1.2-0.6-1.6-2.1-1-3.3l4.7-8.8c0.6-1.2,2.1-1.6,3.3-1c1.2,0.6,1.6,2.1,1,3.3l-4.7,8.8
				C283.4,567.7,282.5,568.2,281.6,568.2z M291.1,550.6c-0.4,0-0.8-0.1-1.2-0.3c-1.2-0.6-1.6-2.1-1-3.3l4.7-8.8
				c0.6-1.2,2.1-1.6,3.3-1c1.2,0.6,1.6,2.1,1,3.3l-4.7,8.8C292.8,550.2,292,550.6,291.1,550.6z M300.6,533c-0.4,0-0.8-0.1-1.2-0.3
				c-1.2-0.6-1.6-2.1-1-3.3l4.7-8.8c0.6-1.2,2.1-1.6,3.3-1c1.2,0.6,1.6,2.1,1,3.3l-4.7,8.8C302.3,532.6,301.4,533,300.6,533z
				 M310,515.5c-0.4,0-0.8-0.1-1.2-0.3c-1.2-0.6-1.6-2.1-1-3.3l4.7-8.8c0.6-1.2,2.1-1.6,3.3-1c1.2,0.6,1.6,2.1,1,3.3l-4.7,8.8
				C311.7,515,310.9,515.5,310,515.5z M319.5,497.9c-0.4,0-0.8-0.1-1.2-0.3c-1.2-0.6-1.6-2.1-1-3.3l4.7-8.8c0.6-1.2,2.1-1.6,3.3-1
				c1.2,0.6,1.6,2.1,1,3.3l-4.7,8.8C321.2,497.4,320.4,497.9,319.5,497.9z M328.9,480.3c-0.4,0-0.8-0.1-1.2-0.3
				c-1.2-0.6-1.6-2.1-1-3.3l4.7-8.8c0.6-1.2,2.1-1.6,3.3-1c1.2,0.6,1.6,2.1,1,3.3l-4.7,8.8C330.7,479.8,329.8,480.3,328.9,480.3z
				 M338.4,462.7c-0.4,0-0.8-0.1-1.2-0.3c-1.2-0.6-1.6-2.1-1-3.3l4.7-8.8c0.6-1.2,2.1-1.6,3.3-1c1.2,0.6,1.6,2.1,1,3.3l-4.7,8.8
				C340.1,462.2,339.3,462.7,338.4,462.7z M347.9,445.1c-0.4,0-0.8-0.1-1.2-0.3c-1.2-0.6-1.6-2.1-1-3.3l4.7-8.8
				c0.6-1.2,2.1-1.6,3.3-1c1.2,0.6,1.6,2.1,1,3.3l-4.7,8.8C349.6,444.7,348.7,445.1,347.9,445.1z M357.3,427.5
				c-0.4,0-0.8-0.1-1.2-0.3c-1.2-0.6-1.6-2.1-1-3.3l4.7-8.8c0.6-1.2,2.1-1.6,3.3-1c1.2,0.6,1.6,2.1,1,3.3l-4.7,8.8
				C359,427.1,358.2,427.5,357.3,427.5z M366.8,410c-0.4,0-0.8-0.1-1.2-0.3c-1.2-0.6-1.6-2.1-1-3.3l4.7-8.8c0.6-1.2,2.1-1.6,3.3-1
				c1.2,0.6,1.6,2.1,1,3.3l-4.7,8.8C368.5,409.5,367.6,410,366.8,410z M376.2,392.4c-0.4,0-0.8-0.1-1.2-0.3c-1.2-0.6-1.6-2.1-1-3.3
				l4.7-8.8c0.6-1.2,2.1-1.6,3.3-1c1.2,0.6,1.6,2.1,1,3.3l-4.7,8.8C378,391.9,377.1,392.4,376.2,392.4z M385.7,374.8
				c-0.4,0-0.8-0.1-1.2-0.3c-1.2-0.6-1.6-2.1-1-3.3l4.7-8.8c0.6-1.2,2.1-1.6,3.3-1c1.2,0.6,1.6,2.1,1,3.3l-4.7,8.8
				C387.4,374.3,386.6,374.8,385.7,374.8z M395.1,357.2c-0.4,0-0.8-0.1-1.2-0.3c-1.2-0.6-1.6-2.1-1-3.3l4.7-8.8
				c0.6-1.2,2.1-1.6,3.3-1c1.2,0.6,1.6,2.1,1,3.3l-4.7,8.8C396.9,356.7,396,357.2,395.1,357.2z M404.6,339.6c-0.4,0-0.8-0.1-1.2-0.3
				c-1.2-0.6-1.6-2.1-1-3.3l4.7-8.8c0.6-1.2,2.1-1.6,3.3-1c1.2,0.6,1.6,2.1,1,3.3l-4.7,8.8C406.3,339.2,405.5,339.6,404.6,339.6z
				 M414.1,322.1c-0.4,0-0.8-0.1-1.2-0.3c-1.2-0.6-1.6-2.1-1-3.3l4.7-8.8c0.6-1.2,2.1-1.6,3.3-1c1.2,0.6,1.6,2.1,1,3.3l-4.7,8.8
				C415.8,321.6,414.9,322.1,414.1,322.1z M423.5,304.5c-0.4,0-0.8-0.1-1.2-0.3c-1.2-0.6-1.6-2.1-1-3.3l4.7-8.8
				c0.6-1.2,2.1-1.6,3.3-1c1.2,0.6,1.6,2.1,1,3.3l-4.7,8.8C425.3,304,424.4,304.5,423.5,304.5z M433,286.9c-0.4,0-0.8-0.1-1.2-0.3
				c-1.2-0.6-1.6-2.1-1-3.3l4.7-8.8c0.6-1.2,2.1-1.6,3.3-1c1.2,0.6,1.6,2.1,1,3.3l-4.7,8.8C434.7,286.4,433.9,286.9,433,286.9z
				 M441.9,269.1c-0.1,0-0.1,0-0.2,0c-1.4-0.1-2.4-1.3-2.3-2.6c0-0.1,0-0.2,0-0.3c0-1.2-0.5-2.3-1.4-3.2l-2.8-2.7
				c-1-0.9-1-2.5-0.1-3.5c0.9-1,2.5-1,3.5-0.1l2.8,2.6c1.9,1.7,3,4.2,3,6.8c0,0.2,0,0.5,0,0.7C444.3,268.1,443.2,269.1,441.9,269.1z
				 M429.7,254c-0.6,0-1.2-0.2-1.7-0.7l-7.2-6.9c-1-0.9-1-2.5-0.1-3.5c0.9-1,2.5-1,3.5-0.1l7.2,6.9c1,0.9,1,2.5,0.1,3.5
				C431,253.8,430.3,254,429.7,254z M415.3,240.2c-0.6,0-1.2-0.2-1.7-0.7c-1.1-1.1-2-2.3-2.6-3.7c-0.9-2.1-1.8-4-2.5-5.9
				c-0.5-1.3,0.1-2.7,1.4-3.2c1.3-0.5,2.7,0.1,3.2,1.4c0.7,1.8,1.5,3.7,2.5,5.8c0.4,0.8,0.9,1.6,1.5,2.2c1,1,1,2.5,0,3.5
				C416.5,240,415.9,240.2,415.3,240.2z M407.4,222c-1.1,0-2-0.7-2.4-1.8c-1-3.5-1.8-6.8-2.2-10.1c-0.2-1.3,0.7-2.6,2.1-2.8
				c1.4-0.2,2.6,0.7,2.8,2.1c0.4,3,1.1,6.1,2.1,9.4c0.4,1.3-0.4,2.7-1.7,3.1C407.8,222,407.6,222,407.4,222z M404.6,202.4
				C404.6,202.4,404.6,202.4,404.6,202.4c-1.4,0-2.5-1.2-2.5-2.5c0.1-3.4,0.5-6.7,1.1-10.3c0.2-1.3,1.5-2.2,2.9-2
				c1.3,0.2,2.2,1.5,2,2.9c-0.6,3.3-1,6.4-1,9.5C407.1,201.3,406,202.4,404.6,202.4z M408.5,182.9c-0.4,0-0.7-0.1-1.1-0.3
				c-1.2-0.6-1.7-2.1-1.1-3.3l3.6-7.1c0,0,0-0.1,0-0.1c-0.4-1.3,0.3-2.7,1.6-3.1c1.3-0.4,2.7,0.3,3.1,1.6c0.2,0.7,0.3,1.4,0.3,2
				c0,0.4-0.1,0.8-0.3,1.1l-3.9,7.8C410.3,182.4,409.4,182.9,408.5,182.9z M407,165.4c-0.7,0-1.5-0.3-2-1c-1-1.3-1.9-2.4-2.5-3.1
				l-3.7-4.6c-0.9-1.1-0.7-2.6,0.4-3.5c1.1-0.9,2.6-0.7,3.5,0.4l3.7,4.6c0.6,0.8,1.6,1.9,2.6,3.2c0.8,1.1,0.6,2.6-0.4,3.5
				C408,165.2,407.5,165.4,407,165.4z M394.4,149.9c-0.7,0-1.4-0.3-1.9-0.9l-6.3-7.7c-0.9-1.1-0.7-2.6,0.4-3.5
				c1.1-0.9,2.6-0.7,3.5,0.4l6.3,7.7c0.9,1.1,0.7,2.6-0.4,3.5C395.5,149.7,394.9,149.9,394.4,149.9z M381.7,134.4
				c-0.7,0-1.4-0.3-1.9-0.9l-6.3-7.7c-0.9-1.1-0.7-2.6,0.4-3.5c1.1-0.9,2.6-0.7,3.5,0.4l6.3,7.7c0.9,1.1,0.7,2.6-0.4,3.5
				C382.8,134.3,382.3,134.4,381.7,134.4z M369.1,119c-0.7,0-1.4-0.3-1.9-0.9l-6.3-7.7c-0.9-1.1-0.7-2.6,0.4-3.5
				c1.1-0.9,2.6-0.7,3.5,0.4l6.3,7.7c0.9,1.1,0.7,2.6-0.4,3.5C370.2,118.8,369.7,119,369.1,119z M356.5,103.5
				c-0.7,0-1.4-0.3-1.9-0.9l-2.1-2.5c-1.5-1.8-2.9-3.7-4.1-5.7c-0.7-1.1-0.4-2.7,0.8-3.4c1.2-0.7,2.7-0.4,3.4,0.8
				c1.1,1.8,2.4,3.6,3.8,5.2l2.1,2.5c0.9,1.1,0.7,2.6-0.4,3.5C357.6,103.3,357,103.5,356.5,103.5z M346,86.7c-1,0-1.9-0.6-2.3-1.5
				c-1.3-3.2-2.3-6.6-3-10c-0.3-1.3,0.6-2.6,1.9-2.9c1.3-0.3,2.6,0.6,2.9,1.9c0.6,3.1,1.5,6.2,2.7,9.1c0.5,1.3-0.1,2.7-1.4,3.2
				C346.6,86.6,346.3,86.7,346,86.7z M342,67.2c-1.3,0-2.4-1.1-2.5-2.4c0-0.3,0-0.6,0-0.9l0-0.7l0.1-8.4c0-1.4,1.1-2.4,2.5-2.4
				c1.4,0,2.5,1.1,2.4,2.5l-0.1,9.1c0,0.3,0,0.5,0,0.8C344.5,66,343.4,67.2,342,67.2C342.1,67.2,342,67.2,342,67.2z M342.3,47.2
				C342.3,47.2,342.2,47.2,342.3,47.2c-1.4,0-2.5-1.1-2.5-2.5l0.1-10c0-1.3,1.1-2.4,2.5-2.4c0,0,0,0,0,0c1.4,0,2.5,1.1,2.4,2.5
				l-0.1,10C344.7,46.1,343.6,47.2,342.3,47.2z"/>
		</g>
		<g>
			<linearGradient id="SVGID_3_" gradientUnits="userSpaceOnUse" x1="342.5562" y1="17.376" x2="342.5562" y2="713.2494">
				<stop  offset="0" style="stop-color:#053049"/>
				<stop  offset="0.2589" style="stop-color:#422F4B"/>
				<stop  offset="0.854" style="stop-color:#D92C51"/>
				<stop  offset="1" style="stop-color:#FF2B52"/>
			</linearGradient>
			<path class="st5" d="M342.5,27.2C342.5,27.2,342.5,27.2,342.5,27.2c-1.4,0-2.5-1.1-2.5-2.5l0.1-4.9c0-1.3,1.1-2.4,2.5-2.4
				c0,0,0,0,0,0c1.4,0,2.5,1.1,2.4,2.5l-0.1,4.9C345,26.2,343.9,27.2,342.5,27.2z"/>
		</g>
	</g>
	<g class="st2">
		<linearGradient id="SVGID_4_" gradientUnits="userSpaceOnUse" x1="430.9958" y1="589.1777" x2="430.9958" y2="17.8691">
			<stop  offset="0" style="stop-color:#053049"/>
			<stop  offset="0.2589" style="stop-color:#422F4B"/>
			<stop  offset="0.854" style="stop-color:#D92C51"/>
			<stop  offset="1" style="stop-color:#FF2B52"/>
		</linearGradient>
		<path class="st6" d="M681.1,589.2h-9.9c-1.4,0-2.5-1.1-2.5-2.5s1.1-2.5,2.5-2.5h9.9c1.4,0,2.5,1.1,2.5,2.5
			S682.4,589.2,681.1,589.2z M661.4,589.2h-9.9c-1.4,0-2.5-1.1-2.5-2.5s1.1-2.5,2.5-2.5h9.9c1.4,0,2.5,1.1,2.5,2.5
			S662.7,589.2,661.4,589.2z M641.6,589.2h-9.9c-1.4,0-2.5-1.1-2.5-2.5s1.1-2.5,2.5-2.5h9.9c1.4,0,2.5,1.1,2.5,2.5
			S643,589.2,641.6,589.2z M621.9,589.2h-9.9c-1.4,0-2.5-1.1-2.5-2.5s1.1-2.5,2.5-2.5h9.9c1.4,0,2.5,1.1,2.5,2.5
			S623.3,589.2,621.9,589.2z M602.2,589.2h-9.9c-1.4,0-2.5-1.1-2.5-2.5s1.1-2.5,2.5-2.5h9.9c1.4,0,2.5,1.1,2.5,2.5
			S603.6,589.2,602.2,589.2z M582.5,589.2h-9.9c-1.4,0-2.5-1.1-2.5-2.5s1.1-2.5,2.5-2.5h9.9c1.4,0,2.5,1.1,2.5,2.5
			S583.8,589.2,582.5,589.2z M562.8,589.2h-9.9c-1.4,0-2.5-1.1-2.5-2.5s1.1-2.5,2.5-2.5h9.9c1.4,0,2.5,1.1,2.5,2.5
			S564.1,589.2,562.8,589.2z M543,589.2h-9.9c-1.4,0-2.5-1.1-2.5-2.5s1.1-2.5,2.5-2.5h9.9c1.4,0,2.5,1.1,2.5,2.5
			S544.4,589.2,543,589.2z M523.3,589.2h-9.9c-1.4,0-2.5-1.1-2.5-2.5s1.1-2.5,2.5-2.5h9.9c1.4,0,2.5,1.1,2.5,2.5
			S524.7,589.2,523.3,589.2z M503.6,588.8c-0.2,0-0.4,0-0.7-0.1c-4-1.1-7.2-4.2-8.5-8.2c-0.4-1.3,0.3-2.7,1.6-3.1
			c1.3-0.4,2.7,0.3,3.1,1.6c0.8,2.4,2.7,4.3,5.1,5c1.3,0.4,2.1,1.7,1.7,3C505.7,588.1,504.7,588.8,503.6,588.8z M498.1,572.7
			c-0.3,0-0.6,0-0.8-0.2c-1.3-0.5-1.9-1.9-1.5-3.2l3.4-9.3c0.5-1.3,1.9-1.9,3.2-1.5c1.3,0.5,1.9,1.9,1.5,3.2l-3.4,9.3
			C500.1,572.1,499.1,572.7,498.1,572.7z M504.9,554.2c-0.3,0-0.6,0-0.8-0.2c-1.3-0.5-1.9-1.9-1.5-3.2l3.4-9.3
			c0.5-1.3,1.9-1.9,3.2-1.5c1.3,0.5,1.9,1.9,1.5,3.2l-3.4,9.3C506.8,553.6,505.9,554.2,504.9,554.2z M511.7,535.7
			c-0.3,0-0.6,0-0.8-0.2c-1.3-0.5-1.9-1.9-1.5-3.2l3.4-9.3c0.5-1.3,1.9-1.9,3.2-1.5c1.3,0.5,1.9,1.9,1.5,3.2l-3.4,9.3
			C513.6,535.1,512.7,535.7,511.7,535.7z M518.6,517.2c-0.3,0-0.7-0.1-1-0.2c-1.3-0.5-1.8-2-1.3-3.2c1-2.3,1.5-4.7,1.5-7.2l0-1.5
			c0-1.4,1.1-2.4,2.5-2.4c0,0,0,0,0,0c1.4,0,2.5,1.1,2.4,2.5l0,1.5c0,3.1-0.7,6.2-1.9,9.1C520.5,516.7,519.6,517.2,518.6,517.2z
			 M520.5,497.8C520.5,497.8,520.5,497.8,520.5,497.8c-1.4,0-2.5-1.1-2.5-2.5l0.1-9.9c0-1.4,1.1-2.4,2.5-2.4c0,0,0,0,0,0
			c1.4,0,2.5,1.1,2.4,2.5l-0.1,9.9C522.9,496.7,521.8,497.8,520.5,497.8z M520.7,478C520.7,478,520.7,478,520.7,478
			c-1.4,0-2.5-1.1-2.5-2.5l0.1-9.9c0-1.4,1.1-2.4,2.5-2.4c0,0,0,0,0,0c1.4,0,2.5,1.1,2.4,2.5l-0.1,9.9C523.1,477,522,478,520.7,478z
			 M520.9,458.3C520.9,458.3,520.9,458.3,520.9,458.3c-1.4,0-2.5-1.1-2.5-2.5l0.1-9.9c0-1.4,1.1-2.4,2.5-2.4c0,0,0,0,0,0
			c1.4,0,2.5,1.1,2.4,2.5l-0.1,9.9C523.3,457.2,522.2,458.3,520.9,458.3z M521.1,438.6C521.1,438.6,521.1,438.6,521.1,438.6
			c-1.4,0-2.5-1.1-2.5-2.5l0.1-9.9c0-1.4,1.1-2.4,2.5-2.4c0,0,0,0,0,0c1.4,0,2.5,1.1,2.4,2.5l-0.1,9.9
			C523.5,437.5,522.4,438.6,521.1,438.6z M521.3,418.9C521.3,418.9,521.3,418.9,521.3,418.9c-1.4,0-2.5-1.1-2.5-2.5l0.1-9.9
			c0-1.4,1.1-2.5,2.5-2.4c1.4,0,2.5,1.1,2.4,2.5l-0.1,9.9C523.7,417.8,522.6,418.9,521.3,418.9z M521.5,399.2
			C521.5,399.2,521.5,399.2,521.5,399.2c-1.4,0-2.5-1.1-2.5-2.5l0.1-9.9c0-1.4,1.1-2.4,2.5-2.4c0,0,0,0,0,0c1.4,0,2.5,1.1,2.4,2.5
			l-0.1,9.9C523.9,398.1,522.8,399.2,521.5,399.2z M521.7,379.5C521.7,379.5,521.7,379.5,521.7,379.5c-1.4,0-2.5-1.1-2.5-2.5
			l0.1-9.9c0-1.4,1.1-2.4,2.5-2.4c0,0,0,0,0,0c1.4,0,2.5,1.1,2.4,2.5l-0.1,9.9C524.1,378.4,523,379.5,521.7,379.5z M521,359.9
			c-0.9,0-1.8-0.5-2.2-1.4c-1-2.1-3.1-3.4-5.5-3.4h-0.3c-1.4,0-2.5-1.1-2.5-2.5s1.1-2.5,2.5-2.5h0.3c0,0,0,0,0,0
			c4.2,0,8.1,2.4,9.9,6.2c0.6,1.2,0.1,2.7-1.2,3.3C521.7,359.8,521.4,359.9,521,359.9z M197.6,355.8c-1.3,0-2.4-1.1-2.5-2.4
			c0-1.4,1.1-2.5,2.4-2.5l9.9-0.1c0,0,0,0,0,0c1.3,0,2.4,1.1,2.5,2.4c0,1.4-1.1,2.5-2.4,2.5L197.6,355.8
			C197.6,355.8,197.6,355.8,197.6,355.8z M217.3,355.6c-1.3,0-2.4-1.1-2.5-2.4c0-1.4,1.1-2.5,2.4-2.5l9.9-0.1c0,0,0,0,0,0
			c1.3,0,2.4,1.1,2.5,2.4c0,1.4-1.1,2.5-2.4,2.5L217.3,355.6C217.3,355.6,217.3,355.6,217.3,355.6z M237,355.4
			c-1.3,0-2.4-1.1-2.5-2.4c0-1.4,1.1-2.5,2.4-2.5l9.9-0.1c0,0,0,0,0,0c1.3,0,2.4,1.1,2.5,2.4c0,1.4-1.1,2.5-2.4,2.5L237,355.4
			C237,355.4,237,355.4,237,355.4z M256.7,355.2c-1.3,0-2.4-1.1-2.5-2.4c0-1.4,1.1-2.5,2.4-2.5l9.9-0.1c0,0,0,0,0,0
			c1.3,0,2.4,1.1,2.5,2.4c0,1.4-1.1,2.5-2.4,2.5L256.7,355.2C256.8,355.2,256.7,355.2,256.7,355.2z M503.2,355h-9.9
			c-1.4,0-2.5-1.1-2.5-2.5s1.1-2.5,2.5-2.5h9.9c1.4,0,2.5,1.1,2.5,2.5S504.6,355,503.2,355z M483.5,355h-9.9c-1.4,0-2.5-1.1-2.5-2.5
			s1.1-2.5,2.5-2.5h9.9c1.4,0,2.5,1.1,2.5,2.5S484.8,355,483.5,355z M463.8,355h-9.9c-1.4,0-2.5-1.1-2.5-2.5s1.1-2.5,2.5-2.5h9.9
			c1.4,0,2.5,1.1,2.5,2.5S465.1,355,463.8,355z M444,355h-9.9c-1.4,0-2.5-1.1-2.5-2.5s1.1-2.5,2.5-2.5h9.9c1.4,0,2.5,1.1,2.5,2.5
			S445.4,355,444,355z M424.3,355h-9.9c-1.4,0-2.5-1.1-2.5-2.5s1.1-2.5,2.5-2.5h9.9c1.4,0,2.5,1.1,2.5,2.5S425.7,355,424.3,355z
			 M404.6,355h-9.9c-1.4,0-2.5-1.1-2.5-2.5s1.1-2.5,2.5-2.5h9.9c1.4,0,2.5,1.1,2.5,2.5S406,355,404.6,355z M384.9,355H375
			c-1.4,0-2.5-1.1-2.5-2.5s1.1-2.5,2.5-2.5h9.9c1.4,0,2.5,1.1,2.5,2.5S386.3,355,384.9,355z M365.2,355h-9.9c-1.4,0-2.5-1.1-2.5-2.5
			s1.1-2.5,2.5-2.5h9.9c1.4,0,2.5,1.1,2.5,2.5S366.5,355,365.2,355z M345.5,355h-9.9c-1.4,0-2.5-1.1-2.5-2.5s1.1-2.5,2.5-2.5h9.9
			c1.4,0,2.5,1.1,2.5,2.5S346.8,355,345.5,355z M325.7,355h-9.9c-1.4,0-2.5-1.1-2.5-2.5s1.1-2.5,2.5-2.5h9.9c1.4,0,2.5,1.1,2.5,2.5
			S327.1,355,325.7,355z M306,355h-9.9c-1.4,0-2.5-1.1-2.5-2.5s1.1-2.5,2.5-2.5h9.9c1.4,0,2.5,1.1,2.5,2.5S307.4,355,306,355z
			 M286.3,355h-9.9c-1.4,0-2.5-1.1-2.5-2.5s1.1-2.5,2.5-2.5h9.9c1.4,0,2.5,1.1,2.5,2.5S287.7,355,286.3,355z M188,354.3
			c-0.4,0-0.8-0.1-1.1-0.3c-3.5-1.8-6.2-4.8-7.6-8.5c-0.5-1.3,0.1-2.7,1.4-3.2c1.3-0.5,2.7,0.1,3.2,1.4c1,2.5,2.9,4.6,5.3,5.9
			c1.2,0.6,1.7,2.1,1,3.3C189.7,353.8,188.9,354.3,188,354.3z M180.9,337.4c0,0-0.1,0-0.1,0c-1.4-0.1-2.4-1.2-2.3-2.6l0.6-9.8
			c0.1-1.4,1.2-2.4,2.6-2.3c1.4,0.1,2.4,1.2,2.3,2.6l-0.6,9.8C183.3,336.4,182.2,337.4,180.9,337.4z M182.1,317.7c0,0-0.1,0-0.1,0
			c-1.4-0.1-2.4-1.2-2.3-2.6l0.6-9.8c0.1-1.4,1.2-2.4,2.6-2.3c1.4,0.1,2.4,1.2,2.3,2.6l-0.6,9.8
			C184.5,316.7,183.4,317.7,182.1,317.7z M183.3,298c0,0-0.1,0-0.1,0c-1.4-0.1-2.4-1.2-2.3-2.6l0.6-9.8c0.1-1.4,1.3-2.4,2.6-2.3
			c1.4,0.1,2.4,1.2,2.3,2.6l-0.6,9.8C185.6,297,184.6,298,183.3,298z M184.4,278.4c0,0-0.1,0-0.1,0c-1.4-0.1-2.4-1.2-2.3-2.6
			l0.3-4.7c0.1-1.9,0.4-3.9,1-5.7c0.4-1.3,1.8-2,3.1-1.6c1.3,0.4,2,1.8,1.6,3.1c-0.5,1.4-0.7,2.9-0.8,4.4l-0.3,4.7
			C186.8,277.3,185.7,278.4,184.4,278.4z M191,260.4c-0.7,0-1.3-0.3-1.8-0.8c-0.9-1-0.8-2.6,0.2-3.5c2.8-2.5,6.2-4.2,9.8-5
			c1.3-0.3,2.6,0.6,2.9,1.9c0.3,1.3-0.6,2.6-1.9,2.9c-2.8,0.6-5.4,2-7.5,3.9C192.1,260.2,191.5,260.4,191,260.4z M209.4,255.4
			c-1.3,0-2.4-1.1-2.5-2.4c0-1.4,1-2.5,2.4-2.5l9.9-0.2c0,0,0,0,0.1,0c1.3,0,2.4,1.1,2.5,2.4c0,1.4-1,2.5-2.4,2.5L209.4,255.4
			C209.5,255.4,209.5,255.4,209.4,255.4z M229.2,254.9c-1.3,0-2.4-1.1-2.5-2.4c0-1.4,1-2.5,2.4-2.5l3.6-0.1c0,0,0.1,0,0.1,0
			c0,0,0,0,0,0c1.9,0,3.7-0.2,5.5-0.6c1.3-0.3,2.6,0.5,3,1.8c0.3,1.3-0.5,2.7-1.8,3c-2.2,0.5-4.4,0.7-6.6,0.7c0,0-0.1,0-0.1,0
			L229.2,254.9C229.2,254.9,229.2,254.9,229.2,254.9z M247.9,250.2c-0.8,0-1.6-0.4-2-1.1c-0.8-1.1-0.5-2.7,0.7-3.4
			c2.5-1.7,4.6-3.8,6.3-6.3c0.8-1.1,2.3-1.4,3.4-0.6c1.1,0.8,1.4,2.3,0.6,3.4c-2.1,3-4.6,5.5-7.6,7.5
			C248.9,250.1,248.4,250.2,247.9,250.2z M258.9,234.4c-0.2,0-0.4,0-0.6-0.1c-1.3-0.3-2.1-1.7-1.8-3c0.4-1.8,0.7-3.7,0.7-5.6l0-3.6
			c0-1.4,1.1-2.5,2.5-2.5c0,0,0,0,0,0c1.4,0,2.5,1.1,2.5,2.5l0,3.7c0,2.3-0.3,4.6-0.8,6.7C261.1,233.7,260,234.4,258.9,234.4z
			 M259.6,214.8c-1.4,0-2.5-1.1-2.5-2.5l0-9.9c0-1.4,1.1-2.5,2.5-2.5c0,0,0,0,0,0c1.4,0,2.5,1.1,2.5,2.5l0,9.9
			C262.1,213.6,261,214.8,259.6,214.8C259.6,214.8,259.6,214.8,259.6,214.8z M259.6,195c-1.4,0-2.5-1.1-2.5-2.5l0-9.9
			c0-1.4,1.1-2.5,2.5-2.5c0,0,0,0,0,0c1.4,0,2.5,1.1,2.5,2.5l0,9.9C262,193.9,260.9,195,259.6,195C259.6,195,259.6,195,259.6,195z
			 M259.5,175.3c-1.4,0-2.5-1.1-2.5-2.5l0-9.9c0-1.4,1.1-2.5,2.5-2.5c0,0,0,0,0,0c1.4,0,2.5,1.1,2.5,2.5l0,9.9
			C262,174.2,260.9,175.3,259.5,175.3C259.5,175.3,259.5,175.3,259.5,175.3z M259.4,155.6c-1.4,0-2.5-1.1-2.5-2.5l0-9.9
			c0-1.4,1.1-2.5,2.5-2.5c0,0,0,0,0,0c1.4,0,2.5,1.1,2.5,2.5l0,9.9C261.9,154.5,260.8,155.6,259.4,155.6
			C259.4,155.6,259.4,155.6,259.4,155.6z M259.3,135.9c-1.4,0-2.5-1.1-2.5-2.5l0-1.1c0-2.7-0.4-5.3-1.3-7.8
			c-0.4-1.3,0.2-2.7,1.5-3.1c1.3-0.4,2.7,0.3,3.1,1.5c1,3,1.6,6.2,1.6,9.4l0,1.1C261.8,134.8,260.7,135.9,259.3,135.9
			C259.4,135.9,259.3,135.9,259.3,135.9z M253.1,117.6c-0.7,0-1.4-0.3-1.9-0.9c-1.9-2.3-4.2-4.2-6.9-5.7c-1.2-0.7-1.6-2.2-1-3.4
			c0.7-1.2,2.2-1.6,3.4-1c3.2,1.7,5.9,4,8.2,6.8c0.9,1,0.7,2.6-0.3,3.5C254.2,117.5,253.7,117.6,253.1,117.6z M206.7,109.1
			c-1.3,0-2.4-1.1-2.5-2.4c0-1.4,1.1-2.5,2.4-2.5l9.9-0.2c0,0,0,0,0,0c1.3,0,2.4,1.1,2.5,2.4c0,1.4-1.1,2.5-2.4,2.5L206.7,109.1
			C206.7,109.1,206.7,109.1,206.7,109.1z M226.4,108.8c-1.3,0-2.4-1.1-2.5-2.4c0-1.4,1.1-2.5,2.4-2.5l9.9-0.2c0,0,0,0,0,0
			c1.3,0,2.4,1.1,2.5,2.4c0,1.4-1.1,2.5-2.4,2.5L226.4,108.8C226.4,108.8,226.4,108.8,226.4,108.8z M197.3,106.4
			c-0.4,0-0.8-0.1-1.2-0.3c-3.2-1.7-6.1-4-8.4-6.7c-0.9-1-0.8-2.6,0.3-3.5c1-0.9,2.6-0.8,3.5,0.3c1.9,2.2,4.2,4.1,6.9,5.5
			c1.2,0.6,1.7,2.1,1,3.3C199.1,105.9,198.2,106.4,197.3,106.4z M184.9,91.7c-1,0-2-0.7-2.3-1.7c-0.8-2.4-1.2-4.9-1.3-7.5l0-3
			c0-1.4,1.1-2.5,2.5-2.5c0,0,0,0,0,0c1.4,0,2.5,1.1,2.5,2.5l0,2.9c0.1,2.1,0.4,4.1,1,6.1c0.4,1.3-0.3,2.7-1.6,3.1
			C185.4,91.7,185.2,91.7,184.9,91.7z M183.7,72.1c-1.4,0-2.5-1.1-2.5-2.5l0-9.9c0-1.4,1.1-2.5,2.5-2.5c0,0,0,0,0,0
			c1.4,0,2.5,1.1,2.5,2.5l0,9.9C186.2,71,185.1,72.1,183.7,72.1C183.7,72.1,183.7,72.1,183.7,72.1z M183.6,52.4
			c-1.4,0-2.5-1.1-2.5-2.5l0-9.9c0-1.4,1.1-2.5,2.5-2.5c0,0,0,0,0,0c1.4,0,2.5,1.1,2.5,2.5l0,9.9C186.1,51.3,185,52.4,183.6,52.4
			C183.6,52.4,183.6,52.4,183.6,52.4z M183.6,32.7c-1.4,0-2.5-1.1-2.5-2.5l0-9.9c0-1.4,1.1-2.5,2.5-2.5c0,0,0,0,0,0
			c1.4,0,2.5,1.1,2.5,2.5l0,9.9C186,31.5,184.9,32.7,183.6,32.7C183.6,32.7,183.6,32.7,183.6,32.7z"/>
	</g>
	<g class="st2">
		<linearGradient id="SVGID_5_" gradientUnits="userSpaceOnUse" x1="743.9822" y1="504.6426" x2="347.4252" y2="275.6903">
			<stop  offset="0" style="stop-color:#053049"/>
			<stop  offset="0.2589" style="stop-color:#422F4B"/>
			<stop  offset="0.854" style="stop-color:#D92C51"/>
			<stop  offset="1" style="stop-color:#FF2B52"/>
		</linearGradient>
		<path class="st7" d="M414.7,714c-1.4,0-2.5-1.1-2.5-2.5c0-1.4,1.1-2.5,2.5-2.5l9.9,0c1.4,0,2.5,1.1,2.5,2.5c0,1.4-1.1,2.5-2.5,2.5
			L414.7,714z M434.4,714c-1.4,0-2.5-1.1-2.5-2.5c0-1.4,1.1-2.5,2.5-2.5l9.9,0c1.4,0,2.5,1.1,2.5,2.5c0,1.4-1.1,2.5-2.5,2.5
			L434.4,714z M454.1,714c-1.4,0-2.5-1.1-2.5-2.5c0-1.4,1.1-2.5,2.5-2.5l9.9,0c1.4,0,2.5,1.1,2.5,2.5c0,1.4-1.1,2.5-2.5,2.5
			L454.1,714z M473.8,714c-1.4,0-2.5-1.1-2.5-2.5c0-1.4,1.1-2.5,2.5-2.5l9.9,0c1.4,0,2.5,1.1,2.5,2.5c0,1.4-1.1,2.5-2.5,2.5
			L473.8,714z M493.5,714c-1.4,0-2.5-1.1-2.5-2.5c0-1.4,1.1-2.5,2.5-2.5l9.9,0c1.4,0,2.5,1.1,2.5,2.5c0,1.4-1.1,2.5-2.5,2.5
			L493.5,714z M513.3,714c-1.4,0-2.5-1.1-2.5-2.5c0-1.4,1.1-2.5,2.5-2.5l9.9,0c1.4,0,2.5,1.1,2.5,2.5c0,1.4-1.1,2.5-2.5,2.5
			L513.3,714z M533,714c-1.4,0-2.5-1.1-2.5-2.5c0-1.4,1.1-2.5,2.5-2.5l9.9,0c1.4,0,2.5,1.1,2.5,2.5c0,1.4-1.1,2.5-2.5,2.5L533,714z
			 M552.7,714c-1.4,0-2.5-1.1-2.5-2.5c0-1.4,1.1-2.5,2.5-2.5l9.9,0c1.4,0,2.5,1.1,2.5,2.5c0,1.4-1.1,2.5-2.5,2.5L552.7,714z
			 M572.4,714c-1.4,0-2.5-1.1-2.5-2.5c0-1.4,1.1-2.5,2.5-2.5l9.9,0c1.4,0,2.5,1.1,2.5,2.5c0,1.4-1.1,2.5-2.5,2.5L572.4,714z
			 M592.1,714c-1.4,0-2.5-1.1-2.5-2.5c0-1.4,1.1-2.5,2.5-2.5l9.9,0c1.4,0,2.5,1.1,2.5,2.5c0,1.4-1.1,2.5-2.5,2.5L592.1,714z
			 M611.8,714c-1.4,0-2.5-1.1-2.5-2.5c0-1.4,1.1-2.5,2.5-2.5l9.9,0c1.4,0,2.5,1.1,2.5,2.5c0,1.4-1.1,2.5-2.5,2.5L611.8,714z
			 M624.5,706.9c-1.4,0-2.5-1.1-2.5-2.5v-9.9c0-1.4,1.1-2.5,2.5-2.5s2.5,1.1,2.5,2.5v9.9C627,705.8,625.9,706.9,624.5,706.9z
			 M624.5,687.2c-1.4,0-2.5-1.1-2.5-2.5v-9.9c0-1.4,1.1-2.5,2.5-2.5s2.5,1.1,2.5,2.5v9.9C627,686.1,625.9,687.2,624.5,687.2z
			 M624.5,667.5c-1.4,0-2.5-1.1-2.5-2.5v-9.9c0-1.4,1.1-2.5,2.5-2.5s2.5,1.1,2.5,2.5v9.9C627,666.4,625.9,667.5,624.5,667.5z
			 M624.5,647.7c-1.4,0-2.5-1.1-2.5-2.5v-9.9c0-1.4,1.1-2.5,2.5-2.5s2.5,1.1,2.5,2.5v9.9C627,646.6,625.9,647.7,624.5,647.7z
			 M624.5,628c-1.4,0-2.5-1.1-2.5-2.5v-9.9c0-1.4,1.1-2.5,2.5-2.5s2.5,1.1,2.5,2.5v9.9C627,626.9,625.9,628,624.5,628z M624.5,608.3
			c-1.4,0-2.5-1.1-2.5-2.5V596c0-1.4,1.1-2.5,2.5-2.5s2.5,1.1,2.5,2.5v9.9C627,607.2,625.9,608.3,624.5,608.3z M624.5,588.6
			c-1.4,0-2.5-1.1-2.5-2.5v-9.9c0-1.4,1.1-2.5,2.5-2.5s2.5,1.1,2.5,2.5v9.9C627,587.5,625.9,588.6,624.5,588.6z M624.5,568.9
			c-1.4,0-2.5-1.1-2.5-2.5v-9.9c0-1.4,1.1-2.5,2.5-2.5s2.5,1.1,2.5,2.5v9.9C627,567.8,625.9,568.9,624.5,568.9z M624.5,549.2
			c-1.4,0-2.5-1.1-2.5-2.5v-9.9c0-1.4,1.1-2.5,2.5-2.5s2.5,1.1,2.5,2.5v9.9C627,548.1,625.9,549.2,624.5,549.2z M624.5,529.4
			c-1.4,0-2.5-1.1-2.5-2.5v-9.9c0-1.4,1.1-2.5,2.5-2.5s2.5,1.1,2.5,2.5v9.9C627,528.3,625.9,529.4,624.5,529.4z M624.5,509.7
			c-1.4,0-2.5-1.1-2.5-2.5v-9.9c0-1.4,1.1-2.5,2.5-2.5s2.5,1.1,2.5,2.5v9.9C627,508.6,625.9,509.7,624.5,509.7z M624.5,490
			c-1.4,0-2.5-1.1-2.5-2.5v-9.9c0-1.4,1.1-2.5,2.5-2.5s2.5,1.1,2.5,2.5v9.9C627,488.9,625.9,490,624.5,490z M624.5,470.3
			c-1.4,0-2.5-1.1-2.5-2.5V458c0-1.4,1.1-2.5,2.5-2.5s2.5,1.1,2.5,2.5v9.9C627,469.2,625.9,470.3,624.5,470.3z M624.5,450.6
			c-1.4,0-2.5-1.1-2.5-2.5v-9.9c0-1.4,1.1-2.5,2.5-2.5s2.5,1.1,2.5,2.5v9.9C627,449.5,625.9,450.6,624.5,450.6z M624.5,430.9
			c-1.4,0-2.5-1.1-2.5-2.5v-9.9c0-1.4,1.1-2.5,2.5-2.5s2.5,1.1,2.5,2.5v9.9C627,429.8,625.9,430.9,624.5,430.9z M624.5,411.1
			c-1.4,0-2.5-1.1-2.5-2.5v-9.9c0-1.4,1.1-2.5,2.5-2.5s2.5,1.1,2.5,2.5v9.9C627,410,625.9,411.1,624.5,411.1z M624.5,391.4
			c-1.4,0-2.5-1.1-2.5-2.5v-9.9c0-1.4,1.1-2.5,2.5-2.5s2.5,1.1,2.5,2.5v9.9C627,390.3,625.9,391.4,624.5,391.4z M624.5,371.7
			c-1.4,0-2.5-1.1-2.5-2.5v-9.9c0-1.4,1.1-2.5,2.5-2.5s2.5,1.1,2.5,2.5v9.9C627,370.6,625.9,371.7,624.5,371.7z M624.5,352
			c-1.4,0-2.5-1.1-2.5-2.5v-9.9c0-1.4,1.1-2.5,2.5-2.5s2.5,1.1,2.5,2.5v9.9C627,350.9,625.9,352,624.5,352z M624.5,332.3
			c-1.4,0-2.5-1.1-2.5-2.5v-9.9c0-1.4,1.1-2.5,2.5-2.5s2.5,1.1,2.5,2.5v9.9C627,331.2,625.9,332.3,624.5,332.3z M624.5,312.6
			c-1.4,0-2.5-1.1-2.5-2.5v-9.9c0-1.4,1.1-2.5,2.5-2.5s2.5,1.1,2.5,2.5v9.9C627,311.5,625.9,312.6,624.5,312.6z M624.5,292.8
			c-1.4,0-2.5-1.1-2.5-2.5v-9.9c0-1.4,1.1-2.5,2.5-2.5s2.5,1.1,2.5,2.5v9.9C627,291.7,625.9,292.8,624.5,292.8z M624.5,273.1
			c-1.4,0-2.5-1.1-2.5-2.5v-9.9c0-1.4,1.1-2.5,2.5-2.5s2.5,1.1,2.5,2.5v9.9C627,272,625.9,273.1,624.5,273.1z M624.5,253.4
			c-1.4,0-2.5-1.1-2.5-2.5v-9.9c0-1.4,1.1-2.5,2.5-2.5s2.5,1.1,2.5,2.5v9.9C627,252.3,625.9,253.4,624.5,253.4z M624.5,233.7
			c-1.4,0-2.5-1.1-2.5-2.5v-9.9c0-1.4,1.1-2.5,2.5-2.5s2.5,1.1,2.5,2.5v9.9C627,232.6,625.9,233.7,624.5,233.7z M624.5,214
			c-1.4,0-2.5-1.1-2.5-2.5v-7.1c-0.5-0.5-0.9-1.1-0.9-1.9c0-1.4,1.1-2.5,2.5-2.5c0,0,0,0,0,0l0.9,0c1.4,0,2.5,1.1,2.5,2.5v9
			C627,212.9,625.9,214,624.5,214z M613.8,204.9C613.8,204.9,613.8,204.9,613.8,204.9l-9.9,0c-1.4,0-2.5-1.1-2.5-2.5
			c0-1.4,1.1-2.5,2.5-2.5c0,0,0,0,0,0l9.9,0c1.4,0,2.5,1.1,2.5,2.5C616.2,203.8,615.1,204.9,613.8,204.9z M594.1,204.9
			C594.1,204.9,594.1,204.9,594.1,204.9l-9.9,0c-1.4,0-2.5-1.1-2.5-2.5c0-1.4,1.1-2.5,2.5-2.5c0,0,0,0,0,0l9.9,0
			c1.4,0,2.5,1.1,2.5,2.5C596.5,203.8,595.4,204.9,594.1,204.9z M574.4,204.8C574.3,204.8,574.3,204.8,574.4,204.8l-9.9,0
			c-1.4,0-2.5-1.1-2.5-2.5c0-1.4,1.1-2.5,2.5-2.5c0,0,0,0,0,0l9.9,0c1.4,0,2.5,1.1,2.5,2.5C576.8,203.7,575.7,204.8,574.4,204.8z
			 M554.6,204.8C554.6,204.8,554.6,204.8,554.6,204.8l-9.9,0c-1.4,0-2.5-1.1-2.5-2.5c0-1.4,1.1-2.5,2.5-2.5c0,0,0,0,0,0l9.9,0
			c1.4,0,2.5,1.1,2.5,2.5C557.1,203.7,556,204.8,554.6,204.8z M534.9,204.7C534.9,204.7,534.9,204.7,534.9,204.7l-4.2,0
			c-1.1,0-2.1-0.8-2.4-1.9l-1.3-5.5c-0.3-1.3,0.5-2.7,1.8-3c1.3-0.3,2.7,0.5,3,1.8l0.9,3.6l2.2,0c1.4,0,2.5,1.1,2.5,2.5
			C537.4,203.6,536.3,204.7,534.9,204.7z M527.2,189.6c-1.1,0-2.1-0.8-2.4-1.9l-1.9-8c-0.2-0.4-0.3-0.8-0.5-1.2
			c-0.5-1.3,0.1-2.7,1.4-3.2c1.3-0.5,2.7,0.1,3.2,1.4c0.2,0.5,0.4,1,0.6,1.5c0,0.1,0.1,0.2,0.1,0.3l1.9,8.1c0.3,1.3-0.5,2.7-1.8,3
			C527.5,189.6,527.3,189.6,527.2,189.6z M520.3,171.3c-0.8,0-1.6-0.4-2.1-1.2c-1.7-2.7-3.6-5.2-5.6-7.5c-0.9-1-0.8-2.6,0.2-3.5
			c1-0.9,2.6-0.8,3.5,0.2c2.3,2.5,4.4,5.3,6.2,8.2c0.7,1.2,0.4,2.7-0.8,3.4C521.2,171.1,520.7,171.3,520.3,171.3z M507.2,156.6
			c-0.5,0-1.1-0.2-1.5-0.5c-2.5-1.9-5.1-3.7-7.9-5.2c-1.2-0.6-1.7-2.1-1-3.3c0.6-1.2,2.1-1.7,3.3-1c3,1.6,5.9,3.5,8.6,5.6
			c1.1,0.8,1.3,2.4,0.4,3.5C508.6,156.3,507.9,156.6,507.2,156.6z M489.9,147.4c-0.2,0-0.4,0-0.6-0.1l-9.6-2.2
			c-1.3-0.3-2.2-1.6-1.8-3c0.3-1.3,1.6-2.1,3-1.8l9.6,2.2c1.3,0.3,2.2,1.6,1.8,3C492,146.7,491,147.4,489.9,147.4z M470.7,143
			c-0.2,0-0.4,0-0.6-0.1l-3.2-0.7c-1.1-0.3-1.9-1.2-1.9-2.4l-0.1-6.6c0-1.4,1.1-2.5,2.4-2.5c0,0,0,0,0,0c1.3,0,2.4,1.1,2.5,2.4
			l0.1,4.6l1.3,0.3c1.3,0.3,2.2,1.6,1.8,3C472.8,142.2,471.8,143,470.7,143z M467.3,125.8c-1.3,0-2.4-1.1-2.5-2.4l-0.1-9.9
			c0-1.4,1.1-2.5,2.4-2.5c0,0,0,0,0,0c1.3,0,2.4,1.1,2.5,2.4l0.1,9.9C469.7,124.7,468.7,125.8,467.3,125.8
			C467.3,125.8,467.3,125.8,467.3,125.8z M467,106.1c-1.3,0-2.4-1.1-2.5-2.4l-0.1-9.9c0-1.4,1.1-2.5,2.4-2.5c0,0,0,0,0,0
			c1.3,0,2.4,1.1,2.5,2.4l0.1,9.9C469.5,105,468.4,106.1,467,106.1C467.1,106.1,467,106.1,467,106.1z M466.8,86.4
			c-1.3,0-2.4-1.1-2.5-2.4l-0.1-9.9c0-1.4,1.1-2.5,2.4-2.5c0,0,0,0,0,0c1.3,0,2.4,1.1,2.5,2.4l0.1,9.9
			C469.3,85.3,468.2,86.4,466.8,86.4C466.8,86.4,466.8,86.4,466.8,86.4z M680.2,73.2h-9.9c-1.4,0-2.5-1.1-2.5-2.5s1.1-2.5,2.5-2.5
			h9.9c1.4,0,2.5,1.1,2.5,2.5S681.6,73.2,680.2,73.2z M660.5,73.2h-9.9c-1.4,0-2.5-1.1-2.5-2.5s1.1-2.5,2.5-2.5h9.9
			c1.4,0,2.5,1.1,2.5,2.5S661.9,73.2,660.5,73.2z M640.8,73.2H631c-1.4,0-2.5-1.1-2.5-2.5s1.1-2.5,2.5-2.5h9.9
			c1.4,0,2.5,1.1,2.5,2.5S642.2,73.2,640.8,73.2z M621.1,73.2h-9.9c-1.4,0-2.5-1.1-2.5-2.5s1.1-2.5,2.5-2.5h9.9
			c1.4,0,2.5,1.1,2.5,2.5S622.5,73.2,621.1,73.2z M601.4,73.2h-9.9c-1.4,0-2.5-1.1-2.5-2.5s1.1-2.5,2.5-2.5h9.9
			c1.4,0,2.5,1.1,2.5,2.5S602.7,73.2,601.4,73.2z M581.7,73.2h-9.9c-1.4,0-2.5-1.1-2.5-2.5s1.1-2.5,2.5-2.5h9.9
			c1.4,0,2.5,1.1,2.5,2.5S583,73.2,581.7,73.2z M561.9,73.2h-9.9c-1.4,0-2.5-1.1-2.5-2.5s1.1-2.5,2.5-2.5h9.9c1.4,0,2.5,1.1,2.5,2.5
			S563.3,73.2,561.9,73.2z M542.2,73.2h-9.9c-1.4,0-2.5-1.1-2.5-2.5s1.1-2.5,2.5-2.5h9.9c1.4,0,2.5,1.1,2.5,2.5
			S543.6,73.2,542.2,73.2z M522.5,73.2h-9.9c-1.4,0-2.5-1.1-2.5-2.5s1.1-2.5,2.5-2.5h9.9c1.4,0,2.5,1.1,2.5,2.5
			S523.9,73.2,522.5,73.2z M502.8,73.2h-9.9c-1.4,0-2.5-1.1-2.5-2.5s1.1-2.5,2.5-2.5h9.9c1.4,0,2.5,1.1,2.5,2.5
			S504.2,73.2,502.8,73.2z M483.1,73.2h-9.9c-1.4,0-2.5-1.1-2.5-2.5s1.1-2.5,2.5-2.5h9.9c1.4,0,2.5,1.1,2.5,2.5
			S484.4,73.2,483.1,73.2z"/>
	</g>
	<g class="st2">
		<linearGradient id="SVGID_6_" gradientUnits="userSpaceOnUse" x1="108" y1="13.4932" x2="108" y2="588.9648">
			<stop  offset="0" style="stop-color:#053049"/>
			<stop  offset="0.2589" style="stop-color:#422F4B"/>
			<stop  offset="0.854" style="stop-color:#D92C51"/>
			<stop  offset="1" style="stop-color:#FF2B52"/>
		</linearGradient>
		<path class="st8" d="M178.5,589h-5c-1.4,0-2.5-1.1-2.5-2.5s1.1-2.5,2.5-2.5h2.5l0-2.4c0-1.4,1.1-2.4,2.5-2.4c0,0,0,0,0,0
			c1.4,0,2.5,1.1,2.4,2.5l0,4.9C181,587.9,179.9,589,178.5,589z M163.7,589h-9.9c-1.4,0-2.5-1.1-2.5-2.5s1.1-2.5,2.5-2.5h9.9
			c1.4,0,2.5,1.1,2.5,2.5S165,589,163.7,589z M143.9,589h-9.9c-1.4,0-2.5-1.1-2.5-2.5s1.1-2.5,2.5-2.5h9.9c1.4,0,2.5,1.1,2.5,2.5
			S145.3,589,143.9,589z M124.2,589h-9.9c-1.4,0-2.5-1.1-2.5-2.5s1.1-2.5,2.5-2.5h9.9c1.4,0,2.5,1.1,2.5,2.5S125.6,589,124.2,589z
			 M104.5,589h-9.9c-1.4,0-2.5-1.1-2.5-2.5s1.1-2.5,2.5-2.5h9.9c1.4,0,2.5,1.1,2.5,2.5S105.9,589,104.5,589z M84.8,589h-9.9
			c-1.4,0-2.5-1.1-2.5-2.5s1.1-2.5,2.5-2.5h9.9c1.4,0,2.5,1.1,2.5,2.5S86.2,589,84.8,589z M65.1,589h-9.9c-1.4,0-2.5-1.1-2.5-2.5
			s1.1-2.5,2.5-2.5h9.9c1.4,0,2.5,1.1,2.5,2.5S66.4,589,65.1,589z M45.4,589h-9.9c-1.4,0-2.5-1.1-2.5-2.5s1.1-2.5,2.5-2.5h9.9
			c1.4,0,2.5,1.1,2.5,2.5S46.7,589,45.4,589z M178.6,574.2C178.6,574.2,178.6,574.2,178.6,574.2c-1.4,0-2.5-1.1-2.5-2.5l0.1-9.9
			c0-1.4,1.1-2.4,2.5-2.4c0,0,0,0,0,0c1.4,0,2.5,1.1,2.4,2.5l-0.1,9.9C181.1,573.1,180,574.2,178.6,574.2z M178.8,554.5
			C178.8,554.5,178.8,554.5,178.8,554.5c-1.4,0-2.5-1.1-2.5-2.5l0.1-9.9c0-1.4,1.1-2.4,2.5-2.4c0,0,0,0,0,0c1.4,0,2.5,1.1,2.4,2.5
			l-0.1,9.9C181.2,553.4,180.1,554.5,178.8,554.5z M179,534.8C179,534.8,178.9,534.8,179,534.8c-1.4,0-2.5-1.1-2.5-2.5l0.1-9.9
			c0-1.4,1.1-2.4,2.5-2.4c0,0,0,0,0,0c1.4,0,2.5,1.1,2.4,2.5l-0.1,9.9C181.4,533.7,180.3,534.8,179,534.8z M179.1,515.1
			C179.1,515.1,179.1,515.1,179.1,515.1c-1.4,0-2.5-1.1-2.5-2.5l0.1-9.9c0-1.4,1.1-2.4,2.5-2.4c0,0,0,0,0,0c1.4,0,2.5,1.1,2.4,2.5
			l-0.1,9.9C181.6,514,180.5,515.1,179.1,515.1z M179.3,495.4C179.3,495.4,179.3,495.4,179.3,495.4c-1.4,0-2.5-1.1-2.5-2.5l0.1-9.9
			c0-1.4,1.1-2.4,2.5-2.4c0,0,0,0,0,0c1.4,0,2.5,1.1,2.4,2.5l-0.1,9.9C181.8,494.3,180.7,495.4,179.3,495.4z M179.5,475.6
			C179.5,475.6,179.5,475.6,179.5,475.6c-1.4,0-2.5-1.1-2.5-2.5l0.1-9.9c0-1.4,1.1-2.4,2.5-2.4c0,0,0,0,0,0c1.4,0,2.5,1.1,2.4,2.5
			l-0.1,9.9C181.9,474.6,180.8,475.6,179.5,475.6z M179.6,455.9C179.6,455.9,179.6,455.9,179.6,455.9c-1.4,0-2.5-1.1-2.5-2.5
			l0.1-9.9c0-1.4,1.1-2.4,2.5-2.4c0,0,0,0,0,0c1.4,0,2.5,1.1,2.4,2.5l-0.1,9.9C182.1,454.8,181,455.9,179.6,455.9z M179.8,436.2
			C179.8,436.2,179.8,436.2,179.8,436.2c-1.4,0-2.5-1.1-2.5-2.5l0.1-9.9c0-1.4,1.1-2.4,2.5-2.4c0,0,0,0,0,0c1.4,0,2.5,1.1,2.4,2.5
			l-0.1,9.9C182.3,435.1,181.2,436.2,179.8,436.2z M180,416.5C180,416.5,180,416.5,180,416.5c-1.4,0-2.5-1.1-2.5-2.5l0.1-9.9
			c0-1.4,1.1-2.5,2.5-2.4c1.4,0,2.5,1.1,2.4,2.5l-0.1,9.9C182.4,415.4,181.3,416.5,180,416.5z M180.1,396.8
			C180.1,396.8,180.1,396.8,180.1,396.8c-1.4,0-2.5-1.1-2.5-2.5l0.1-9.9c0-1.4,1.1-2.4,2.5-2.4c0,0,0,0,0,0c1.4,0,2.5,1.1,2.4,2.5
			l-0.1,9.9C182.6,395.7,181.5,396.8,180.1,396.8z M180.3,377.1C180.3,377.1,180.3,377.1,180.3,377.1c-1.4,0-2.5-1.1-2.5-2.5
			l0.1-9.9c0-1.4,1.1-2.4,2.5-2.4c0,0,0,0,0,0c1.4,0,2.5,1.1,2.4,2.5l-0.1,9.9C182.8,376,181.7,377.1,180.3,377.1z M180.5,357.3
			C180.5,357.3,180.5,357.3,180.5,357.3c-1.3,0-2.4-1.1-2.5-2.4h-5c-1.4,0-2.5-1.1-2.5-2.5s1.1-2.5,2.5-2.5h7.5
			c0.7,0,1.3,0.3,1.8,0.7s0.7,1.1,0.7,1.8l0,2.4C182.9,356.3,181.8,357.3,180.5,357.3z M163.2,355h-9.9c-1.4,0-2.5-1.1-2.5-2.5
			s1.1-2.5,2.5-2.5h9.9c1.4,0,2.5,1.1,2.5,2.5S164.5,355,163.2,355z M143.4,355h-9.9c-1.4,0-2.5-1.1-2.5-2.5s1.1-2.5,2.5-2.5h9.9
			c1.4,0,2.5,1.1,2.5,2.5S144.8,355,143.4,355z M123.7,355h-9.9c-1.4,0-2.5-1.1-2.5-2.5s1.1-2.5,2.5-2.5h9.9c1.4,0,2.5,1.1,2.5,2.5
			S125.1,355,123.7,355z M104,355h-8.5c-1.4,0-2.5-1.1-2.5-2.5v-1.3c0-1.4,1.1-2.5,2.5-2.5c1,0,1.8,0.5,2.2,1.3h6.3
			c1.4,0,2.5,1.1,2.5,2.5S105.4,355,104,355z M95.5,343.8c-1.4,0-2.5-1.1-2.5-2.5v-9.9c0-1.4,1.1-2.5,2.5-2.5s2.5,1.1,2.5,2.5v9.9
			C98,342.7,96.9,343.8,95.5,343.8z M95.5,324c-1.4,0-2.5-1.1-2.5-2.5v-9.9c0-1.4,1.1-2.5,2.5-2.5s2.5,1.1,2.5,2.5v9.9
			C98,322.9,96.9,324,95.5,324z M95.5,304.3c-1.4,0-2.5-1.1-2.5-2.5V292c0-1.4,1.1-2.5,2.5-2.5s2.5,1.1,2.5,2.5v9.9
			C98,303.2,96.9,304.3,95.5,304.3z M95.5,284.6c-1.4,0-2.5-1.1-2.5-2.5v-9.9c0-1.4,1.1-2.5,2.5-2.5s2.5,1.1,2.5,2.5v9.9
			C98,283.5,96.9,284.6,95.5,284.6z M95.5,264.9c-1.4,0-2.5-1.1-2.5-2.5v-9.9c0-1.4,1.1-2.5,2.5-2.5s2.5,1.1,2.5,2.5v9.9
			C98,263.8,96.9,264.9,95.5,264.9z M95.5,245.2c-1.4,0-2.5-1.1-2.5-2.5v-9.9c0-1.4,1.1-2.5,2.5-2.5s2.5,1.1,2.5,2.5v9.9
			C98,244.1,96.9,245.2,95.5,245.2z M95.5,225.5c-1.4,0-2.5-1.1-2.5-2.5v-9.9c0-1.4,1.1-2.5,2.5-2.5s2.5,1.1,2.5,2.5v9.9
			C98,224.4,96.9,225.5,95.5,225.5z M95.5,205.7c-1.4,0-2.5-1.1-2.5-2.5v-9.9c0-1.4,1.1-2.5,2.5-2.5s2.5,1.1,2.5,2.5v9.9
			C98,204.6,96.9,205.7,95.5,205.7z M95.5,186c-1.4,0-2.5-1.1-2.5-2.5v-9.9c0-1.4,1.1-2.5,2.5-2.5s2.5,1.1,2.5,2.5v9.9
			C98,184.9,96.9,186,95.5,186z M95.5,166.3c-1.4,0-2.5-1.1-2.5-2.5V154c0-1.4,1.1-2.5,2.5-2.5s2.5,1.1,2.5,2.5v9.9
			C98,165.2,96.9,166.3,95.5,166.3z M95.5,146.6c-1.4,0-2.5-1.1-2.5-2.5v-9.9c0-1.4,1.1-2.5,2.5-2.5s2.5,1.1,2.5,2.5v9.9
			C98,145.5,96.9,146.6,95.5,146.6z M95.5,126.9c-1.4,0-2.5-1.1-2.5-2.5v-9.9c0-1.4,1.1-2.5,2.5-2.5s2.5,1.1,2.5,2.5v9.9
			C98,125.8,96.9,126.9,95.5,126.9z M95.5,107.2c-1.4,0-2.5-1.1-2.5-2.5v-9.9c0-1.4,1.1-2.5,2.5-2.5s2.5,1.1,2.5,2.5v9.9
			C98,106,96.9,107.2,95.5,107.2z M95.5,87.4c-1.4,0-2.5-1.1-2.5-2.5v-9.9c0-1.4,1.1-2.5,2.5-2.5s2.5,1.1,2.5,2.5V85
			C98,86.3,96.9,87.4,95.5,87.4z M95.5,67.7c-1.4,0-2.5-1.1-2.5-2.5v-9.9c0-1.4,1.1-2.5,2.5-2.5S98,54,98,55.4v9.9
			C98,66.6,96.9,67.7,95.5,67.7z M95.5,48c-1.4,0-2.5-1.1-2.5-2.5v-9.9c0-1.4,1.1-2.5,2.5-2.5s2.5,1.1,2.5,2.5v9.9
			C98,46.9,96.9,48,95.5,48z M95.5,28.3c-1.4,0-2.5-1.1-2.5-2.5V16c0-1.4,1.1-2.5,2.5-2.5S98,14.6,98,16v9.9
			C98,27.2,96.9,28.3,95.5,28.3z"/>
	</g>
	<rect y="372" class="st9" width="702" height="202"/>
	<g>
		<g>
			<path class="st10" d="M79.6,390.4c30.2,0,53.1,16.4,53.1,48.3c0,24.5-13.4,40.8-33.3,47.1l56,67.3h-47.1l-49.7-64.3v64.3H21.4
				V390.4H79.6z M62.8,462.6c14,0,30.8-1,30.8-21.3c0-20.3-16.8-21.3-30.8-21.3h-4.3v42.6H62.8z"/>
			<path class="st10" d="M311,553.1h-39.8l-12-32.5h-61.9l-12,32.5h-39.8L211,390.4h34.3L311,553.1z M228.3,440.7H228L209.8,488
				h36.7L228.3,440.7z"/>
			<path class="st10" d="M429.6,509.5l15.8,31.6c0,0-18.1,15-53.5,15c-46,0-88.2-37.5-88.2-84c0-46.8,42-84.6,88.2-84.6
				c35.3,0,53.5,15,53.5,15L429.6,434c0,0-13-10.1-32-10.1c-37.3,0-53.7,26-53.7,47.7c0,21.9,16.4,47.9,53.7,47.9
				C416.5,519.6,429.6,509.5,429.6,509.5z"/>
			<path class="st10" d="M552.7,422.9h-56v32.4h53.7v32.5h-53.7v32.7h56v32.5h-93.1V390.4h93.1V422.9z"/>
			<path class="st10" d="M628.4,389.6c30.2,0,53.1,16.4,53.1,48.3c0,24.5-13.4,40.8-33.3,47.1l56,67.3H657L607.3,488v64.3h-37.1
				V389.6H628.4z M611.6,461.7c14,0,30.8-1,30.8-21.3c0-20.3-16.8-21.3-30.8-21.3h-4.3v42.6H611.6z"/>
		</g>
		<g>
			<path class="st10" d="M380.4,465.5v-6.1c0-1.1-0.2-1.8-0.7-2.5c-0.3-0.3-0.7-0.4-1.2-0.4c-1,0-1.5,0.8-1.7,1.4
				c-0.2,0.4-0.2,0.9-0.2,1.4v23.7c0,1.1,0.3,1.9,0.8,2.5c0.3,0.3,0.6,0.4,1.1,0.4c1,0,1.5-0.6,1.7-1.4c0.2-0.4,0.2-0.9,0.2-1.4V476
				h-2.3v-4.9h8.1v19.6h-3.4l-0.7-1.9c-1.1,1.3-2.6,2.3-4.5,2.3c-1.9,0-3.2-0.5-4.1-1.3c-1-0.8-1.6-1.8-2-2.9
				c-0.5-1.2-0.7-2.7-0.6-4.3v-23.2c0.1-1.6,0.4-3,1-4.2c0.5-1.1,1.2-2.1,2.2-2.9c1.1-0.8,2.6-1.3,4.5-1.3s3.4,0.5,4.4,1.3
				s1.8,1.9,2.3,2.9c0.6,1.2,0.9,2.7,1,4.2v6.1H380.4z"/>
			<path class="st10" d="M390.4,451.3h13.2v5.9h-7.4v10.3h5.4v6.3h-5.4v10.8h7.4v5.9h-13.2V451.3z"/>
			<path class="st10" d="M421.9,482.6c-0.1,1.6-0.4,3.1-1,4.3c-0.5,1.1-1.2,2.1-2.3,2.9c-1.1,0.9-2.5,1.3-4.4,1.3
				c-1.9,0-3.4-0.5-4.5-1.3c-1.1-0.8-1.8-1.8-2.2-2.9c-0.6-1.2-0.9-2.7-1-4.3v-23.2c0.1-1.6,0.4-3,1-4.2c0.5-1.1,1.2-2.1,2.2-2.9
				s2.6-1.3,4.5-1.3c1.9,0,3.4,0.5,4.4,1.3c1.1,0.8,1.8,1.9,2.3,2.9c0.6,1.2,0.9,2.7,1,4.2V482.6z M416.1,459.4
				c0-1.1-0.2-1.8-0.7-2.5c-0.3-0.3-0.7-0.4-1.2-0.4c-1,0-1.5,0.8-1.7,1.4c-0.2,0.4-0.2,0.9-0.2,1.4v23.2c0,1.1,0.3,1.9,0.8,2.5
				c0.3,0.3,0.6,0.4,1.1,0.4c1,0,1.5-0.6,1.7-1.4c0.2-0.4,0.2-0.9,0.2-1.4V459.4z"/>
		</g>
	</g>
</g>
</svg>
