<?xml version="1.0" encoding="utf-8"?>
<!-- Generator: Adobe Illustrator 23.0.4, SVG Export Plug-In . SVG Version: 6.00 Build 0)  -->
<svg version="1.1" id="Layer_1" xmlns="http://www.w3.org/2000/svg" xmlns:xlink="http://www.w3.org/1999/xlink" x="0px" y="0px"
	 viewBox="0 0 695 535" style="enable-background:new 0 0 695 535;" xml:space="preserve">
<style type="text/css">
	.st0{fill:#064763;}
	.st1{fill:#FF2B52;}
	.st2{fill:#41B1F2;}
	.st3{fill:#F87B7B;}
	.st4{fill:#0C6FA8;}
	.st5{fill:url(#XMLID_2_);}
	.st6{opacity:0.97;}
	.st7{fill:#F7F6F2;}
</style>
<path class="st0" d="M621.1,274c11.7-11.8,18.3-28.1,18.3-46.7c0-20.1-7.3-37-21.2-48.8c-12.3-10.5-28.9-16.1-47.8-16.1h-73.6v0.7
	h-97.4v3.3c-9.6-3.3-22.1-5.9-37.2-5.9c-40.2,0-75.7,24.4-91.4,58.4l-22.5-55.8h-60.4l-34.3,85.1c1.8-6.3,2.8-13.1,2.8-20.2
	c0-20.1-7.3-37-21.2-48.8c-12.3-10.5-28.9-16.1-47.8-16.1H28.4c-8.2,0-14.8,6.6-14.8,14.8v158.3c0,8.2,6.6,14.8,14.8,14.8h62.5h10.4
	h10.5h83.8h5.9l-4.1-4.9l8.8-23.7h23.4l10.6,28.7H324l-2.4-6c12.5,5.5,26.2,8.6,40.5,8.6c15.1,0,27.6-2.6,37.2-5.9v3.3H526v-0.7
	h48.1h10.4H653c12.6,0,19.5-14.7,11.4-24.3L621.1,274z M148.6,260.1l-7.4,18.4l-3.2-3.8C142.2,270.4,145.7,265.5,148.6,260.1z"/>
<circle id="XMLID_13_" class="st0" cx="334.8" cy="268.4" r="244.2"/>
<path class="st1" d="M323.7,243.2V33.4c-55.5,2.2-107.5,23.8-148.3,61.5L323.7,243.2z"/>
<path class="st2" d="M323.7,499V291.5L176.6,438.6C217.2,475.6,268.7,496.8,323.7,499z"/>
<path class="st3" d="M343.7,33.4v209.7L491.6,95.3C451,57.5,399.1,35.9,343.7,33.4z"/>
<path class="st4" d="M343.7,499c54.8-2.4,106.3-23.7,146.8-60.7L343.7,291.5V499z"/>
<path class="st2" d="M431.5,351l73.1,73.1c20-21.6,35.4-46.4,45.8-73.1H431.5z"/>
<path class="st3" d="M215.7,163.5l-54.4-54.4c-15.1,16.5-27.6,34.8-37.2,54.4H215.7z"/>
<path class="st1" d="M542.6,163.5c-9.6-19.5-21.9-37.6-36.9-54l-54,54H542.6z"/>
<path class="st4" d="M116.4,351.5c10.5,26.7,26,51.4,46,73l73-73H116.4z"/>
<path class="st0" d="M512.2,87.3c-47.8-47.8-111.3-74.1-178.9-74.1S202.2,39.5,154.4,87.3c-47.8,47.8-74.1,111.3-74.1,178.9
	s26.3,131.1,74.1,178.9c47.8,47.8,111.3,74.1,178.9,74.1s131.1-26.3,178.9-74.1c47.8-47.8,74.1-111.3,74.1-178.9
	S560,135.1,512.2,87.3z M343.7,33.4c55.4,2.4,107.3,24.1,147.9,61.8L343.7,243.2V33.4z M323.7,243.2L175.4,94.9
	c40.8-37.7,92.8-59.2,148.3-61.5V243.2z M323.7,499c-54.9-2.2-106.5-23.4-147.1-60.4l147.1-147.1V499z M343.7,291.5l146.8,146.8
	c-40.5,37.1-91.9,58.3-146.8,60.7V291.5z M357.8,277.3H566c-2.6,54.9-24.1,106.4-61.4,146.8L357.8,277.3z M357.8,257.3l147.9-147.9
	c37.2,40.8,58.4,92.6,60.4,147.9H357.8z M161.3,109.1l148.3,148.3H100.5C102.6,201.9,123.9,149.9,161.3,109.1z M100.6,277.3h209
	L162.4,424.5C124.8,384,103.1,332.4,100.6,277.3z"/>
<circle id="XMLID_12_" class="st0" cx="333.3" cy="266.2" r="201"/>
<radialGradient id="XMLID_2_" cx="333.3117" cy="266.2109" r="177.1995" fx="493.8542" fy="341.216" gradientUnits="userSpaceOnUse">
	<stop  offset="0" style="stop-color:#FF2B52"/>
	<stop  offset="0.1886" style="stop-color:#FC2B52"/>
	<stop  offset="0.323" style="stop-color:#F32C53"/>
	<stop  offset="0.4406" style="stop-color:#E32E54"/>
	<stop  offset="0.5484" style="stop-color:#CD3155"/>
	<stop  offset="0.6498" style="stop-color:#B03457"/>
	<stop  offset="0.7463" style="stop-color:#8D385A"/>
	<stop  offset="0.8389" style="stop-color:#633D5D"/>
	<stop  offset="0.9261" style="stop-color:#344260"/>
	<stop  offset="1" style="stop-color:#064763"/>
</radialGradient>
<circle id="XMLID_11_" class="st5" cx="333.3" cy="266.2" r="177.2"/>
<g class="st6">
	<g>
		<path class="st7" d="M87.1,185.4c26.6,0,46.7,14.4,46.7,42.6c0,21.5-11.8,36-29.4,41.5l49.3,59.2h-41.5l-43.8-56.6v56.6H35.9
			V185.4H87.1z M72.4,249c12.3,0,27.1-0.9,27.1-18.8s-14.8-18.8-27.1-18.8h-3.8V249H72.4z"/>
		<path class="st7" d="M290.9,328.7h-35.1l-10.6-28.7h-54.5l-10.6,28.7H145l57.8-143.3H233L290.9,328.7z M218.1,229.7h-0.3l-16,41.7
			h32.3L218.1,229.7z"/>
		<path class="st7" d="M395.2,290.3l13.9,27.8c0,0-16,13.2-47.1,13.2c-40.5,0-77.6-33-77.6-74c0-41.2,37-74.5,77.6-74.5
			c31.1,0,47.1,13.2,47.1,13.2l-13.9,27.8c0,0-11.5-8.9-28.1-8.9c-32.8,0-47.2,22.9-47.2,42c0,19.3,14.4,42.2,47.2,42.2
			C383.8,299.2,395.2,290.3,395.2,290.3z"/>
		<path class="st7" d="M503.6,214.1h-49.3v28.5h47.2v28.7h-47.2v28.8h49.3v28.7h-82V185.4h82V214.1z"/>
		<path class="st7" d="M570.3,184.7c26.6,0,46.7,14.4,46.7,42.6c0,21.5-11.8,36-29.4,41.5L637,328h-41.5l-43.8-56.6V328h-32.7V184.7
			H570.3z M555.5,248.3c12.3,0,27.1-0.9,27.1-18.8s-14.8-18.8-27.1-18.8h-3.8v37.5H555.5z"/>
	</g>
	<g>
		<path class="st7" d="M352,251.6v-5.3c0-0.9-0.2-1.6-0.7-2.2c-0.2-0.2-0.6-0.4-1-0.4c-0.9,0-1.3,0.7-1.5,1.3
			c-0.1,0.4-0.2,0.8-0.2,1.3v20.8c0,1,0.2,1.6,0.7,2.2c0.2,0.2,0.6,0.4,1,0.4c0.9,0,1.3-0.6,1.5-1.3c0.1-0.3,0.2-0.8,0.2-1.3v-6.3
			h-2v-4.3h7.1v17.3h-3l-0.6-1.7c-0.9,1.2-2.3,2-4,2s-2.8-0.4-3.6-1.2c-0.8-0.7-1.4-1.6-1.8-2.5c-0.4-1.1-0.6-2.4-0.6-3.8v-20.4
			c0-1.4,0.3-2.6,0.8-3.7c0.4-0.9,1-1.9,2-2.6c0.9-0.7,2.3-1.2,4-1.2s3,0.5,3.9,1.2c0.9,0.7,1.6,1.6,2,2.6c0.5,1.1,0.8,2.4,0.8,3.7
			v5.3H352z"/>
		<path class="st7" d="M360.8,239.1h11.6v5.2h-6.6v9.1h4.7v5.6h-4.7v9.5h6.6v5.2h-11.6V239.1z"/>
		<path class="st7" d="M388.5,266.7c0,1.4-0.3,2.7-0.8,3.8c-0.4,0.9-1.1,1.8-2,2.5c-0.9,0.8-2.2,1.2-3.9,1.2c-1.7,0-3-0.4-4-1.2
			c-0.9-0.7-1.6-1.6-2-2.5c-0.5-1.1-0.8-2.4-0.8-3.8v-20.4c0-1.4,0.3-2.6,0.8-3.7c0.4-0.9,1-1.9,2-2.6s2.3-1.2,4-1.2
			c1.7,0,3,0.5,3.9,1.2c0.9,0.7,1.6,1.6,2,2.6c0.5,1.1,0.8,2.4,0.8,3.7V266.7z M383.4,246.2c0-0.9-0.2-1.6-0.7-2.2
			c-0.2-0.2-0.6-0.4-1-0.4c-0.9,0-1.3,0.7-1.5,1.3c-0.1,0.4-0.2,0.8-0.2,1.3v20.4c0,1,0.2,1.7,0.7,2.2c0.2,0.2,0.6,0.4,1,0.4
			c0.9,0,1.3-0.6,1.5-1.3c0.1-0.3,0.2-0.8,0.2-1.3V246.2z"/>
	</g>
</g>
</svg>
