<?xml version="1.0" encoding="utf-8"?>
<!-- Generator: Adobe Illustrator 23.0.4, SVG Export Plug-In . SVG Version: 6.00 Build 0)  -->
<svg version="1.1" xmlns="http://www.w3.org/2000/svg" xmlns:xlink="http://www.w3.org/1999/xlink" x="0px" y="0px"
	 viewBox="0 0 695 535" style="enable-background:new 0 0 695 535;" xml:space="preserve">
<style type="text/css">
	.st0{fill:#064763;}
	.st1{fill:#0C6FA8;}
	.st2{fill:#41B1F2;}
	.st3{fill:#FF2B52;}
	.st4{fill:#F87B7B;}
	.st5{fill:url(#XMLID_2_);}
	.st6{opacity:0.97;}
	.st7{fill:#F7F6F2;}
</style>
<g id="meter-base">
	<path class="st0" d="M629.1,275c11.7-11.8,18.3-28.1,18.3-46.7c0-20.1-7.3-37-21.2-48.8c-12.3-10.5-28.9-16.1-47.8-16.1h-73.6v0.7
		h-97.4v3.3c-9.6-3.3-22.1-5.9-37.2-5.9c-40.2,0-75.7,24.4-91.4,58.4l-22.5-55.8h-60.4l-34.3,85.1c1.8-6.3,2.8-13.1,2.8-20.2
		c0-20.1-7.3-37-21.2-48.8c-12.3-10.5-28.9-16.1-47.8-16.1h-59c-8.2,0-14.8,6.6-14.8,14.8v158.3c0,8.2,6.6,14.8,14.8,14.8h62.5h10.4
		h10.5h83.8h5.9l-4.1-4.9l8.8-23.7h23.4l10.6,28.7H332l-2.4-6c12.5,5.5,26.2,8.6,40.5,8.6c15.1,0,27.6-2.6,37.2-5.9v3.3H534v-0.7
		h48.1h10.4H661c12.6,0,19.5-14.7,11.4-24.3L629.1,275z M156.6,261.1l-7.4,18.4l-3.2-3.8C150.2,271.4,153.7,266.5,156.6,261.1z"/>
	<circle id="XMLID_13_" class="st0" cx="342.8" cy="269.4" r="244.2"/>
</g>
<g id="meter-light">
	<path id="light--8_1_" class="st1" d="M351.7,500c54.8-2.4,106.3-23.7,146.8-60.7L351.7,292.5V500z"/>
	<path id="light--7_1_" class="st2" d="M331.7,500V292.5L184.6,439.6C225.2,476.6,276.7,497.8,331.7,500z"/>
	<path id="light--6_1_" class="st1" d="M124.4,352.5c10.5,26.7,26,51.4,46,73l73-73H124.4z"/>
	<path id="light--5_1_" class="st2" d="M439.5,352l73.1,73.1c20-21.6,35.4-46.4,45.8-73.1H439.5z"/>
	<path id="light--4_1_" class="st3" d="M550.6,164.5c-9.6-19.5-21.9-37.6-36.9-54l-54,54H550.6z"/>
	<path id="light--3_1_" class="st4" d="M351.7,34.4v209.7L499.6,96.3C459,58.5,407.1,36.9,351.7,34.4z"/>
	<path id="light--2_1_" class="st3" d="M331.7,244.2V34.4c-55.5,2.2-107.5,23.8-148.3,61.5L331.7,244.2z"/>
	<path id="light--1_2_" class="st4" d="M223.7,164.5l-54.4-54.4c-15.1,16.5-27.6,34.8-37.2,54.4H223.7z"/>
</g>
<g id="meter-center">
	<path class="st0" d="M520.2,88.3c-47.8-47.8-111.3-74.1-178.9-74.1S210.2,40.5,162.4,88.3S88.3,199.6,88.3,267.2
		s26.3,131.1,74.1,178.9s111.3,74.1,178.9,74.1s131.1-26.3,178.9-74.1s74.1-111.3,74.1-178.9S568,136.1,520.2,88.3z M351.7,34.4
		c55.4,2.4,107.3,24.1,147.9,61.8l-147.9,148V34.4z M331.7,244.2L183.4,95.9c40.8-37.7,92.8-59.2,148.3-61.5V244.2z M331.7,500
		c-54.9-2.2-106.5-23.4-147.1-60.4l147.1-147.1V500z M351.7,292.5l146.8,146.8c-40.5,37.1-91.9,58.3-146.8,60.7V292.5z M365.8,278.3
		H574c-2.6,54.9-24.1,106.4-61.4,146.8L365.8,278.3z M365.8,258.3l147.9-147.9c37.2,40.8,58.4,92.6,60.4,147.9H365.8z M169.3,110.1
		l148.3,148.3H108.5C110.6,202.9,131.9,150.9,169.3,110.1z M108.6,278.3h209L170.4,425.5C132.8,385,111.1,333.4,108.6,278.3z"/>
	<circle id="XMLID_12_" class="st0" cx="341.3" cy="267.2" r="201"/>
	
		<radialGradient id="XMLID_2_" cx="341.3" cy="268.8" r="177.2" fx="501.8429" fy="343.8053" gradientTransform="matrix(1 0 0 -1 0 536)" gradientUnits="userSpaceOnUse">
		<stop  offset="0" style="stop-color:#FF2B52"/>
		<stop  offset="0.1886" style="stop-color:#FC2B52"/>
		<stop  offset="0.323" style="stop-color:#F32C53"/>
		<stop  offset="0.4406" style="stop-color:#E32E54"/>
		<stop  offset="0.5484" style="stop-color:#CD3155"/>
		<stop  offset="0.6498" style="stop-color:#B03457"/>
		<stop  offset="0.7463" style="stop-color:#8D385A"/>
		<stop  offset="0.8389" style="stop-color:#633D5D"/>
		<stop  offset="0.9261" style="stop-color:#344260"/>
		<stop  offset="1" style="stop-color:#064763"/>
	</radialGradient>
	<circle id="XMLID_11_" class="st5" cx="341.3" cy="267.2" r="177.2"/>
</g>
<g id="text">
	<g class="st6">
		<g>
			<path class="st7" d="M95.1,186.4c26.6,0,46.7,14.4,46.7,42.6c0,21.5-11.8,36-29.4,41.5l49.3,59.2h-41.5l-43.8-56.6v56.6H43.9
				V186.4H95.1z M80.4,250c12.3,0,27.1-0.9,27.1-18.8s-14.8-18.8-27.1-18.8h-3.8V250H80.4z"/>
			<path class="st7" d="M298.9,329.7h-35.1L253.2,301h-54.5l-10.6,28.7H153l57.8-143.3H241L298.9,329.7z M226.1,230.7h-0.3l-16,41.7
				h32.3L226.1,230.7z"/>
			<path class="st7" d="M403.2,291.3l13.9,27.8c0,0-16,13.2-47.1,13.2c-40.5,0-77.6-33-77.6-74c0-41.2,37-74.5,77.6-74.5
				c31.1,0,47.1,13.2,47.1,13.2l-13.9,27.8c0,0-11.5-8.9-28.1-8.9c-32.8,0-47.2,22.9-47.2,42c0,19.3,14.4,42.2,47.2,42.2
				C391.8,300.2,403.2,291.3,403.2,291.3z"/>
			<path class="st7" d="M511.6,215.1h-49.3v28.5h47.2v28.7h-47.2v28.8h49.3v28.7h-82V186.4h82V215.1z"/>
			<path class="st7" d="M578.3,185.7c26.6,0,46.7,14.4,46.7,42.6c0,21.5-11.8,36-29.4,41.5L645,329h-41.5l-43.8-56.6V329H527V185.7
				H578.3z M563.5,249.3c12.3,0,27.1-0.9,27.1-18.8s-14.8-18.8-27.1-18.8h-3.8v37.5h3.8V249.3z"/>
		</g>
		<g>
			<path class="st7" d="M360,252.6v-5.3c0-0.9-0.2-1.6-0.7-2.2c-0.2-0.2-0.6-0.4-1-0.4c-0.9,0-1.3,0.7-1.5,1.3
				c-0.1,0.4-0.2,0.8-0.2,1.3v20.8c0,1,0.2,1.6,0.7,2.2c0.2,0.2,0.6,0.4,1,0.4c0.9,0,1.3-0.6,1.5-1.3c0.1-0.3,0.2-0.8,0.2-1.3v-6.3
				h-2v-4.3h7.1v17.3h-3l-0.6-1.7c-0.9,1.2-2.3,2-4,2s-2.8-0.4-3.6-1.2c-0.8-0.7-1.4-1.6-1.8-2.5c-0.4-1.1-0.6-2.4-0.6-3.8v-20.4
				c0-1.4,0.3-2.6,0.8-3.7c0.4-0.9,1-1.9,2-2.6c0.9-0.7,2.3-1.2,4-1.2s3,0.5,3.9,1.2s1.6,1.6,2,2.6c0.5,1.1,0.8,2.4,0.8,3.7v5.3
				L360,252.6L360,252.6z"/>
			<path class="st7" d="M368.8,240.1h11.6v5.2h-6.6v9.1h4.7v5.6h-4.7v9.5h6.6v5.2h-11.6V240.1z"/>
			<path class="st7" d="M396.5,267.7c0,1.4-0.3,2.7-0.8,3.8c-0.4,0.9-1.1,1.8-2,2.5c-0.9,0.8-2.2,1.2-3.9,1.2c-1.7,0-3-0.4-4-1.2
				c-0.9-0.7-1.6-1.6-2-2.5c-0.5-1.1-0.8-2.4-0.8-3.8v-20.4c0-1.4,0.3-2.6,0.8-3.7c0.4-0.9,1-1.9,2-2.6s2.3-1.2,4-1.2s3,0.5,3.9,1.2
				s1.6,1.6,2,2.6c0.5,1.1,0.8,2.4,0.8,3.7V267.7z M391.4,247.2c0-0.9-0.2-1.6-0.7-2.2c-0.2-0.2-0.6-0.4-1-0.4
				c-0.9,0-1.3,0.7-1.5,1.3c-0.1,0.4-0.2,0.8-0.2,1.3v20.4c0,1,0.2,1.7,0.7,2.2c0.2,0.2,0.6,0.4,1,0.4c0.9,0,1.3-0.6,1.5-1.3
				c0.1-0.3,0.2-0.8,0.2-1.3V247.2z"/>
		</g>
	</g>
</g>
</svg>
