<?xml version="1.0" encoding="utf-8"?>
<!-- Generator: Adobe Illustrator 23.0.4, SVG Export Plug-In . SVG Version: 6.00 Build 0)  -->
<svg version="1.1" id="Layer_1" xmlns="http://www.w3.org/2000/svg" xmlns:xlink="http://www.w3.org/1999/xlink" x="0px" y="0px"
	 viewBox="0 0 428 108" style="enable-background:new 0 0 428 108;" xml:space="preserve">
<style type="text/css">
	.st0{fill:#053049;}
</style>
<g>
	<g>
		<path class="st0" d="M36.5,3.8c18.8,0,33.1,10.2,33.1,30.2c0,15.3-8.4,25.5-20.8,29.4l35,42H54.4l-31-40.2v40.2H0.2V3.8H36.5z
			 M26.1,48.9c8.7,0,19.2-0.6,19.2-13.3S34.8,22.3,26.1,22.3h-2.7v26.6H26.1z"/>
		<path class="st0" d="M181,105.5h-24.9l-7.5-20.3H110l-7.5,20.3H77.6l41-101.6H140L181,105.5z M129.4,35.3h-0.2l-11.3,29.6h22.9
			L129.4,35.3z"/>
		<path class="st0" d="M255.1,78.3l9.9,19.7c0,0-11.3,9.4-33.4,9.4c-28.7,0-55.1-23.4-55.1-52.5c0-29.2,26.2-52.9,55.1-52.9
			c22.1,0,33.4,9.4,33.4,9.4l-9.9,19.7c0,0-8.1-6.3-20-6.3c-23.3,0-33.5,16.3-33.5,29.8c0,13.7,10.2,29.9,33.5,29.9
			C247,84.5,255.1,78.3,255.1,78.3z"/>
		<path class="st0" d="M332,24.2h-35v20.2h33.5v20.3H297v20.5h35v20.3h-58.1V3.8H332V24.2z"/>
		<path class="st0" d="M379.3,3.3c18.8,0,33.1,10.2,33.1,30.2c0,15.3-8.4,25.5-20.8,29.4l35,42h-29.4l-31-40.2V105h-23.2V3.3H379.3z
			 M368.8,48.4c8.7,0,19.2-0.6,19.2-13.3s-10.5-13.3-19.2-13.3h-2.7v26.6H368.8z"/>
	</g>
	<g>
		<path class="st0" d="M224.4,50.8V47c0-0.7-0.1-1.1-0.5-1.5c-0.2-0.2-0.4-0.3-0.7-0.3c-0.6,0-0.9,0.5-1.1,0.9
			c-0.1,0.3-0.1,0.6-0.1,0.9v14.8c0,0.7,0.2,1.2,0.5,1.5c0.2,0.2,0.4,0.3,0.7,0.3c0.6,0,0.9-0.4,1.1-0.9c0.1-0.2,0.1-0.5,0.1-0.9
			v-4.4H223v-3h5v12.2h-2.1l-0.4-1.2c-0.7,0.8-1.6,1.4-2.8,1.4s-2-0.3-2.6-0.8c-0.6-0.5-1-1.1-1.3-1.8c-0.3-0.8-0.4-1.7-0.4-2.7V47
			c0-1,0.2-1.9,0.6-2.6c0.3-0.7,0.7-1.3,1.4-1.8c0.7-0.5,1.6-0.8,2.8-0.8c1.2,0,2.1,0.3,2.8,0.8c0.7,0.5,1.1,1.2,1.4,1.8
			c0.4,0.8,0.6,1.7,0.6,2.6v3.8H224.4z"/>
		<path class="st0" d="M230.6,41.9h8.3v3.7h-4.6v6.5h3.3V56h-3.3v6.8h4.6v3.7h-8.3V41.9z"/>
		<path class="st0" d="M250.3,61.5c0,1-0.2,1.9-0.6,2.7c-0.3,0.7-0.8,1.3-1.4,1.8c-0.7,0.5-1.6,0.8-2.8,0.8c-1.2,0-2.1-0.3-2.8-0.8
			c-0.7-0.5-1.1-1.1-1.4-1.8c-0.4-0.8-0.6-1.7-0.6-2.7V47c0-1,0.2-1.9,0.6-2.6c0.3-0.7,0.7-1.3,1.4-1.8c0.7-0.5,1.6-0.8,2.8-0.8
			c1.2,0,2.1,0.3,2.8,0.8c0.7,0.5,1.1,1.2,1.4,1.8c0.4,0.8,0.6,1.7,0.6,2.6V61.5z M246.7,47c0-0.7-0.1-1.1-0.5-1.5
			c-0.2-0.2-0.4-0.3-0.7-0.3c-0.6,0-0.9,0.5-1.1,0.9c-0.1,0.3-0.1,0.6-0.1,0.9v14.5c0,0.7,0.2,1.2,0.5,1.5c0.2,0.2,0.4,0.3,0.7,0.3
			c0.6,0,0.9-0.4,1.1-0.9c0.1-0.2,0.1-0.5,0.1-0.9V47z"/>
	</g>
</g>
</svg>
