<?xml version="1.0" encoding="utf-8"?>
<!-- Generator: Adobe Illustrator 23.0.4, SVG Export Plug-In . SVG Version: 6.00 Build 0)  -->
<svg version="1.1" id="Layer_1" xmlns="http://www.w3.org/2000/svg" xmlns:xlink="http://www.w3.org/1999/xlink" x="0px" y="0px"
	 viewBox="0 0 193 206.3" style="enable-background:new 0 0 193 206.3;" xml:space="preserve">
<style type="text/css">
	.st0{fill:url(#SVGID_1_);}
	.st1{fill:#FFFFFF;}
</style>
<linearGradient id="SVGID_1_" gradientUnits="userSpaceOnUse" x1="23" y1="101.6144" x2="172" y2="101.6144">
	<stop  offset="0" style="stop-color:#FC7474"/>
	<stop  offset="0.2161" style="stop-color:#FD5C69"/>
	<stop  offset="0.5222" style="stop-color:#FE415C"/>
	<stop  offset="0.7935" style="stop-color:#FF3155"/>
	<stop  offset="1" style="stop-color:#FF2B52"/>
</linearGradient>
<path class="st0" d="M172,88c0,29.8-39.2,73.8-60.9,95.8c-7.7,7.8-20.4,7.8-28.1-0.1c-21.5-22.1-60-66-60-95.7
	c0-41.1,33.4-74.5,74.5-74.5S172,46.9,172,88z"/>
<g>
	<path class="st1" d="M100.7,120.4c-2.6,0-4.7-1.9-5-4.5c-0.3-2.8,1.8-5.2,4.5-5.4c4.5-0.4,8.7-1.8,12.5-4.1
		c2.4-1.4,5.4-0.7,6.9,1.7c1.4,2.4,0.7,5.4-1.7,6.9c-5.1,3.1-10.8,4.9-16.7,5.5C101,120.4,100.8,120.4,100.7,120.4z M81.4,116.5
		c-0.8,0-1.6-0.2-2.3-0.6c-5.2-2.8-9.8-6.7-13.3-11.5c-1.6-2.2-1.2-5.4,1.1-7c2.2-1.6,5.4-1.2,7,1.1c2.6,3.6,6.1,6.5,10,8.6
		c2.4,1.3,3.4,4.3,2.1,6.8C84.9,115.6,83.1,116.5,81.4,116.5z M128.6,101c-0.7,0-1.5-0.2-2.2-0.5c-2.5-1.2-3.5-4.2-2.3-6.7
		c1.9-4,2.9-8.3,2.9-12.8c0-1.1-0.1-2.2-0.2-3.3c-0.3-2.7,1.7-5.2,4.4-5.5c2.8-0.3,5.2,1.7,5.5,4.4c0.2,1.4,0.2,2.9,0.2,4.4
		c0,6-1.3,11.8-3.9,17.2C132.2,100,130.4,101,128.6,101z M63,87.9c-2.6,0-4.8-2.1-5-4.7c0-0.7-0.1-1.5-0.1-2.2c0-5.2,1-10.3,3-15.2
		c1.1-2.6,4-3.8,6.5-2.7c2.5,1.1,3.8,4,2.7,6.5C68.8,73.3,68,77.1,68,81c0,0.6,0,1.1,0,1.6c0.1,2.8-2,5.1-4.7,5.3
		C63.2,87.9,63.1,87.9,63,87.9z M124.1,64.1c-1.4,0-2.9-0.6-3.9-1.8c-2.8-3.4-6.4-6.2-10.4-8c-2.5-1.2-3.6-4.1-2.4-6.6
		c1.2-2.5,4.1-3.6,6.6-2.4c5.4,2.5,10.2,6.2,13.9,10.7c1.8,2.1,1.5,5.3-0.7,7C126.4,63.7,125.2,64.1,124.1,64.1z M78.1,57.5
		c-1.6,0-3.2-0.8-4.1-2.2c-1.6-2.3-1-5.4,1.3-6.9c4.9-3.3,10.6-5.5,16.4-6.4c2.7-0.4,5.3,1.5,5.7,4.2s-1.5,5.3-4.2,5.7
		c-4.4,0.7-8.5,2.3-12.2,4.8C80,57.2,79.1,57.5,78.1,57.5z"/>
</g>
</svg>
