<?xml version="1.0" encoding="utf-8"?>
<!-- Generator: Adobe Illustrator 23.0.4, SVG Export Plug-In . SVG Version: 6.00 Build 0)  -->
<svg version="1.1" id="Layer_1" xmlns="http://www.w3.org/2000/svg" xmlns:xlink="http://www.w3.org/1999/xlink" x="0px" y="0px"
	 viewBox="0 0 1478 2882" style="enable-background:new 0 0 1478 2882;" xml:space="preserve">
<style type="text/css">
	.st0{clip-path:url(#SVGID_2_);fill:#F7F6F2;stroke:#E4EAEA;stroke-width:1.0745;stroke-miterlimit:10;}
	.st1{opacity:0.5;clip-path:url(#SVGID_4_);}
	.st2{fill:none;stroke:#E8E6E2;stroke-width:16.4311;stroke-linecap:round;stroke-miterlimit:10;}
	.st3{opacity:0.5;clip-path:url(#SVGID_6_);}
	.st4{opacity:0.5;clip-path:url(#SVGID_8_);}
	.st5{opacity:0.5;clip-path:url(#SVGID_10_);}
	.st6{opacity:0.5;clip-path:url(#SVGID_12_);}
	.st7{opacity:0.5;clip-path:url(#SVGID_14_);}
	.st8{opacity:0.5;clip-path:url(#SVGID_16_);}
	.st9{opacity:0.5;clip-path:url(#SVGID_18_);}
	.st10{opacity:0.5;clip-path:url(#SVGID_20_);}
	.st11{opacity:0.5;clip-path:url(#SVGID_22_);}
	.st12{opacity:0.5;clip-path:url(#SVGID_24_);}
	.st13{opacity:0.5;clip-path:url(#SVGID_26_);}
	.st14{opacity:0.5;clip-path:url(#SVGID_28_);}
	.st15{opacity:0.5;clip-path:url(#SVGID_30_);}
	.st16{opacity:0.5;clip-path:url(#SVGID_32_);}
	.st17{opacity:0.5;clip-path:url(#SVGID_34_);}
	.st18{opacity:0.5;clip-path:url(#SVGID_36_);}
	.st19{opacity:0.53;clip-path:url(#SVGID_38_);}
	
		.st20{opacity:0.5;clip-path:url(#SVGID_40_);fill:none;stroke:url(#SVGID_41_);stroke-width:4.9293;stroke-linecap:round;stroke-linejoin:round;stroke-miterlimit:10;stroke-dasharray:9.8587;enable-background:new    ;}
	.st21{opacity:0.5;clip-path:url(#SVGID_43_);}
	.st22{fill:none;stroke:url(#SVGID_44_);stroke-width:4.9293;stroke-linecap:round;stroke-linejoin:round;}
	
		.st23{fill:none;stroke:url(#SVGID_45_);stroke-width:4.9293;stroke-linecap:round;stroke-linejoin:round;stroke-dasharray:9.8824,9.8824;}
	.st24{fill:none;stroke:url(#SVGID_46_);stroke-width:4.9293;stroke-linecap:round;stroke-linejoin:round;}
	
		.st25{fill:none;stroke:url(#SVGID_47_);stroke-width:4.9293;stroke-linecap:round;stroke-linejoin:round;stroke-dasharray:11.6297,11.6297;}
	.st26{fill:none;stroke:url(#SVGID_48_);stroke-width:4.9293;stroke-linecap:round;stroke-linejoin:round;}
	
		.st27{fill:none;stroke:url(#SVGID_49_);stroke-width:4.9293;stroke-linecap:round;stroke-linejoin:round;stroke-dasharray:9.7175,9.7175;}
	.st28{fill:none;stroke:url(#SVGID_50_);stroke-width:4.9293;stroke-linecap:round;stroke-linejoin:round;}
	
		.st29{opacity:0.5;clip-path:url(#SVGID_52_);fill:none;stroke:url(#SVGID_53_);stroke-width:4.9293;stroke-linecap:round;stroke-linejoin:round;stroke-miterlimit:10;stroke-dasharray:9.8587;enable-background:new    ;}
</style>
<g>
	<g>
		<defs>
			<rect id="SVGID_1_" x="1.5" y="-0.5" width="1475" height="2873"/>
		</defs>
		<clipPath id="SVGID_2_">
			<use xlink:href="#SVGID_1_"  style="overflow:visible;"/>
		</clipPath>
		<rect x="-3.5" y="-0.5" class="st0" width="1475" height="2873"/>
	</g>
	<g>
		<defs>
			<rect id="SVGID_3_" x="1.5" y="-0.5" width="1475" height="2873"/>
		</defs>
		<clipPath id="SVGID_4_">
			<use xlink:href="#SVGID_3_"  style="overflow:visible;"/>
		</clipPath>
		<g class="st1">
			<line class="st2" x1="443.9" y1="758.4" x2="1088.8" y2="758.4"/>
			<path class="st2" d="M757.3,424.4v252.3c0,9.1-7.3,16.4-16.4,16.5l-42,0.5c-9.1,0.1-16.4,7.5-16.4,16.5v78.3
				c0,9,7.2,16.4,16.3,16.5l18.4,0.3c9,0.1,16.3,7.5,16.3,16.5v222.5c0,1.8,0.3,3.7,0.9,5.4l22.9,66.4"/>
			<line class="st2" x1="877.7" y1="419.9" x2="877.7" y2="531.6"/>
			<circle class="st2" cx="882.6" cy="608" r="62.8"/>
			<line class="st2" x1="828.8" y1="575.6" x2="756.9" y2="488.1"/>
			<polyline class="st2" points="858,671.3 658.7,1042.2 655.4,1116.2 			"/>
			<path class="st2" d="M893.7,670.1l40.4,84.2c1.7,2.4,2.5,5.3,2.5,8.2l-2,148c0,2.3-0.6,4.6-1.6,6.7L900.8,1022
				c-2.5,4.8-10.5,7.9-16,7.9h-50.5c-8.1,0-14.6,6.5-14.6,14.6v72.5"/>
			<line class="st2" x1="450.9" y1="991.3" x2="1095.8" y2="991.3"/>
			<line class="st2" x1="669" y1="569.4" x2="443.9" y2="569.4"/>
			<line class="st2" x1="510.9" y1="758" x2="510.9" y2="419.5"/>
			<line class="st2" x1="615.5" y1="658.2" x2="447.2" y2="658.2"/>
			<line class="st2" x1="1039.5" y1="1116.2" x2="1039.1" y2="424.8"/>
			<line class="st2" x1="881.8" y1="475.8" x2="1095.4" y2="475.8"/>
			<line class="st2" x1="945.5" y1="607.6" x2="1095.8" y2="607.6"/>
			<line class="st2" x1="1033.5" y1="1116.2" x2="819.8" y2="1116.2"/>
			<path class="st2" d="M591.4,1116.2l7-435.2c0.2-13.3,11.2-24,24.5-23.8l24.1,0.3c13.3,0.2,24.3-10.5,24.5-23.8l1.6-97.5
				c0.2-13.5-10.7-24.6-24.2-24.6H623c-13.4,0-24.2-10.8-24.2-24.2v-67.8"/>
		</g>
	</g>
	<g>
		<defs>
			<rect id="SVGID_5_" x="1.5" y="-0.5" width="1475" height="2873"/>
		</defs>
		<clipPath id="SVGID_6_">
			<use xlink:href="#SVGID_5_"  style="overflow:visible;"/>
		</clipPath>
		<g class="st3">
			<line class="st2" x1="1740.8" y1="758.4" x2="1095.9" y2="758.4"/>
			<path class="st2" d="M1427.4,424.4v252.3c0,9.1,7.3,16.4,16.4,16.5l42,0.5c9.1,0.1,16.4,7.5,16.4,16.5v78.3
				c0,9-7.2,16.4-16.3,16.5l-18.4,0.3c-9,0.1-16.3,7.5-16.3,16.5v222.5c0,1.8-0.3,3.7-0.9,5.4l-22.9,66.4"/>
			<line class="st2" x1="1307" y1="419.9" x2="1307" y2="531.6"/>
			<circle class="st2" cx="1302.1" cy="608" r="62.8"/>
			<line class="st2" x1="1355.9" y1="575.6" x2="1427.8" y2="488.1"/>
			<polyline class="st2" points="1326.7,671.3 1526,1042.2 1529.2,1116.2 			"/>
			<path class="st2" d="M1291,670.1l-40.4,84.2c-1.7,2.4-2.5,5.3-2.5,8.2l2,148c0,2.3,0.6,4.6,1.6,6.7L1284,1022
				c2.5,4.8,10.5,7.9,16,7.9h50.5c8.1,0,14.6,6.5,14.6,14.6v72.5"/>
			<line class="st2" x1="1733.8" y1="991.3" x2="1088.9" y2="991.3"/>
			<line class="st2" x1="1515.7" y1="569.4" x2="1740.8" y2="569.4"/>
			<line class="st2" x1="1673.8" y1="758" x2="1673.8" y2="419.5"/>
			<line class="st2" x1="1569.2" y1="658.2" x2="1737.5" y2="658.2"/>
			<line class="st2" x1="1145.2" y1="1116.2" x2="1145.6" y2="424.8"/>
			<line class="st2" x1="1302.9" y1="475.8" x2="1089.3" y2="475.8"/>
			<line class="st2" x1="1239.2" y1="607.6" x2="1088.9" y2="607.6"/>
			<line class="st2" x1="1151.2" y1="1116.2" x2="1364.9" y2="1116.2"/>
			<path class="st2" d="M1593.3,1116.2l-7-435.2c-0.2-13.3-11.2-24-24.5-23.8l-24.1,0.3c-13.3,0.2-24.3-10.5-24.5-23.8l-1.6-97.5
				c-0.2-13.5,10.7-24.6,24.2-24.6h25.9c13.4,0,24.2-10.8,24.2-24.2v-67.8"/>
		</g>
	</g>
	<g>
		<defs>
			<rect id="SVGID_7_" x="1.5" y="-0.5" width="1475" height="2873"/>
		</defs>
		<clipPath id="SVGID_8_">
			<use xlink:href="#SVGID_7_"  style="overflow:visible;"/>
		</clipPath>
		<g class="st4">
			<line class="st2" x1="486.8" y1="759.4" x2="-158.1" y2="759.4"/>
			<path class="st2" d="M173.4,425.4v252.3c0,9.1,7.3,16.4,16.4,16.5l42,0.5c9.1,0.1,16.4,7.5,16.4,16.5v78.3
				c0,9-7.2,16.4-16.3,16.5l-18.4,0.3c-9,0.1-16.3,7.5-16.3,16.5v222.5c0,1.8-0.3,3.7-0.9,5.4l-22.9,66.4"/>
			<line class="st2" x1="53" y1="420.9" x2="53" y2="532.6"/>
			<circle class="st2" cx="48.1" cy="609" r="62.8"/>
			<line class="st2" x1="101.9" y1="576.6" x2="173.8" y2="489.1"/>
			<polyline class="st2" points="72.7,672.3 272,1043.2 275.2,1117.2 			"/>
			<path class="st2" d="M37,671.1l-40.4,84.2c-1.7,2.4-2.5,5.3-2.5,8.2l2,148c0,2.3,0.6,4.6,1.6,6.7L29.9,1023
				c2.5,4.8,10.5,7.9,16,7.9h50.5c8.1,0,14.6,6.5,14.6,14.6v72.5"/>
			<line class="st2" x1="479.8" y1="992.3" x2="-165.1" y2="992.3"/>
			<line class="st2" x1="261.7" y1="570.4" x2="486.8" y2="570.4"/>
			<line class="st2" x1="419.8" y1="759" x2="419.8" y2="420.5"/>
			<line class="st2" x1="315.2" y1="659.2" x2="483.5" y2="659.2"/>
			<line class="st2" x1="-108.8" y1="1117.2" x2="-108.4" y2="425.8"/>
			<line class="st2" x1="48.9" y1="476.8" x2="-164.7" y2="476.8"/>
			<line class="st2" x1="-14.8" y1="608.6" x2="-165.1" y2="608.6"/>
			<line class="st2" x1="-102.8" y1="1117.2" x2="110.9" y2="1117.2"/>
			<path class="st2" d="M339.3,1117.2l-7-435.2c-0.2-13.3-11.2-24-24.5-23.8l-24.1,0.3c-13.3,0.2-24.3-10.5-24.5-23.8l-1.6-97.5
				c-0.2-13.5,10.7-24.6,24.2-24.6h25.9c13.4,0,24.2-10.8,24.2-24.2v-67.8"/>
		</g>
	</g>
	<g>
		<defs>
			<rect id="SVGID_9_" x="1.5" y="-0.5" width="1475" height="2873"/>
		</defs>
		<clipPath id="SVGID_10_">
			<use xlink:href="#SVGID_9_"  style="overflow:visible;"/>
		</clipPath>
		<g class="st5">
			<line class="st2" x1="447.9" y1="1476.1" x2="1092.8" y2="1476.1"/>
			<path class="st2" d="M761.3,1810.1v-252.3c0-9.1-7.3-16.4-16.4-16.5l-42-0.5c-9.1-0.1-16.4-7.5-16.4-16.5V1446
				c0-9,7.2-16.4,16.3-16.5l18.4-0.3c9-0.1,16.3-7.5,16.3-16.5v-222.5c0-1.8,0.3-3.7,0.9-5.4l22.9-66.4"/>
			<line class="st2" x1="881.7" y1="1814.6" x2="881.7" y2="1702.9"/>
			<circle class="st2" cx="886.6" cy="1626.5" r="62.8"/>
			<line class="st2" x1="832.8" y1="1658.9" x2="760.9" y2="1746.4"/>
			<polyline class="st2" points="862,1563.2 662.7,1192.3 659.4,1118.3 			"/>
			<path class="st2" d="M897.7,1564.4l40.4-84.2c1.7-2.4,2.5-5.3,2.5-8.2l-2-148c0-2.3-0.6-4.6-1.6-6.7l-32.3-104.8
				c-2.5-4.8-10.5-7.9-16-7.9h-50.5c-8.1,0-14.6-6.5-14.6-14.6v-72.5"/>
			<line class="st2" x1="454.9" y1="1243.2" x2="1099.8" y2="1243.2"/>
			<line class="st2" x1="673" y1="1665.1" x2="447.9" y2="1665.1"/>
			<line class="st2" x1="514.9" y1="1476.5" x2="514.9" y2="1815"/>
			<line class="st2" x1="619.5" y1="1576.3" x2="451.2" y2="1576.3"/>
			<line class="st2" x1="1043.5" y1="1118.3" x2="1043.1" y2="1809.7"/>
			<line class="st2" x1="885.8" y1="1758.7" x2="1099.4" y2="1758.7"/>
			<line class="st2" x1="949.5" y1="1626.9" x2="1099.8" y2="1626.9"/>
			<line class="st2" x1="1037.5" y1="1118.3" x2="823.8" y2="1118.3"/>
			<path class="st2" d="M595.4,1118.3l7,435.2c0.2,13.3,11.2,24,24.5,23.8l24.1-0.3c13.3-0.2,24.3,10.5,24.5,23.8l1.6,97.5
				c0.2,13.5-10.7,24.6-24.2,24.6H627c-13.4,0-24.2,10.8-24.2,24.2v67.8"/>
		</g>
	</g>
	<g>
		<defs>
			<rect id="SVGID_11_" x="1.5" y="-0.5" width="1475" height="2873"/>
		</defs>
		<clipPath id="SVGID_12_">
			<use xlink:href="#SVGID_11_"  style="overflow:visible;"/>
		</clipPath>
		<g class="st6">
			<line class="st2" x1="1744.8" y1="1476.1" x2="1099.9" y2="1476.1"/>
			<path class="st2" d="M1431.4,1810.1v-252.3c0-9.1,7.3-16.4,16.4-16.5l42-0.5c9.1-0.1,16.4-7.5,16.4-16.5V1446
				c0-9-7.2-16.4-16.3-16.5l-18.4-0.3c-9-0.1-16.3-7.5-16.3-16.5v-222.5c0-1.8-0.3-3.7-0.9-5.4l-22.9-66.4"/>
			<line class="st2" x1="1311" y1="1814.6" x2="1311" y2="1702.9"/>
			<circle class="st2" cx="1306.1" cy="1626.5" r="62.8"/>
			<line class="st2" x1="1359.9" y1="1658.9" x2="1431.8" y2="1746.4"/>
			<polyline class="st2" points="1330.7,1563.2 1530,1192.3 1533.2,1118.3 			"/>
			<path class="st2" d="M1295,1564.4l-40.4-84.2c-1.7-2.4-2.5-5.3-2.5-8.2l2-148c0-2.3,0.6-4.6,1.6-6.7l32.3-104.8
				c2.5-4.8,10.5-7.9,16-7.9h50.5c8.1,0,14.6-6.5,14.6-14.6v-72.5"/>
			<line class="st2" x1="1737.8" y1="1243.2" x2="1092.9" y2="1243.2"/>
			<line class="st2" x1="1519.7" y1="1665.1" x2="1744.8" y2="1665.1"/>
			<line class="st2" x1="1677.8" y1="1476.5" x2="1677.8" y2="1815"/>
			<line class="st2" x1="1573.2" y1="1576.3" x2="1741.5" y2="1576.3"/>
			<line class="st2" x1="1149.2" y1="1118.3" x2="1149.6" y2="1809.7"/>
			<line class="st2" x1="1306.9" y1="1758.7" x2="1093.3" y2="1758.7"/>
			<line class="st2" x1="1243.2" y1="1626.9" x2="1092.9" y2="1626.9"/>
			<line class="st2" x1="1155.2" y1="1118.3" x2="1368.9" y2="1118.3"/>
			<path class="st2" d="M1597.3,1118.3l-7,435.2c-0.2,13.3-11.2,24-24.5,23.8l-24.1-0.3c-13.3-0.2-24.3,10.5-24.5,23.8l-1.6,97.5
				c-0.2,13.5,10.7,24.6,24.2,24.6h25.9c13.4,0,24.2,10.8,24.2,24.2v67.8"/>
		</g>
	</g>
	<g>
		<defs>
			<rect id="SVGID_13_" x="1.5" y="-0.5" width="1475" height="2873"/>
		</defs>
		<clipPath id="SVGID_14_">
			<use xlink:href="#SVGID_13_"  style="overflow:visible;"/>
		</clipPath>
		<g class="st7">
			<line class="st2" x1="490.8" y1="1475.1" x2="-154.1" y2="1475.1"/>
			<path class="st2" d="M177.4,1809.1v-252.3c0-9.1,7.3-16.4,16.4-16.5l42-0.5c9.1-0.1,16.4-7.5,16.4-16.5V1445
				c0-9-7.2-16.4-16.3-16.5l-18.4-0.3c-9-0.1-16.3-7.5-16.3-16.5v-222.5c0-1.8-0.3-3.7-0.9-5.4l-22.9-66.4"/>
			<line class="st2" x1="57" y1="1813.6" x2="57" y2="1701.9"/>
			
				<ellipse transform="matrix(9.089787e-03 -1 1 9.089787e-03 -1573.8064 1662.8224)" class="st2" cx="52.1" cy="1625.5" rx="62.8" ry="62.8"/>
			<line class="st2" x1="105.9" y1="1657.9" x2="177.8" y2="1745.4"/>
			<polyline class="st2" points="76.7,1562.2 276,1191.3 279.2,1117.3 			"/>
			<path class="st2" d="M41,1563.4l-40.4-84.2c-1.7-2.4-2.5-5.3-2.5-8.2l2-148c0-2.3,0.6-4.6,1.6-6.7L34,1211.5
				c2.5-4.8,10.5-7.9,16-7.9h50.5c8.1,0,14.6-6.5,14.6-14.6v-72.5"/>
			<line class="st2" x1="483.8" y1="1242.2" x2="-161.1" y2="1242.2"/>
			<line class="st2" x1="265.7" y1="1664.1" x2="490.8" y2="1664.1"/>
			<line class="st2" x1="423.8" y1="1475.5" x2="423.8" y2="1814"/>
			<line class="st2" x1="319.2" y1="1575.3" x2="487.5" y2="1575.3"/>
			<line class="st2" x1="-104.8" y1="1117.3" x2="-104.4" y2="1808.7"/>
			<line class="st2" x1="52.9" y1="1757.7" x2="-160.7" y2="1757.7"/>
			<line class="st2" x1="-10.8" y1="1625.9" x2="-161.1" y2="1625.9"/>
			<line class="st2" x1="-98.8" y1="1117.3" x2="114.9" y2="1117.3"/>
			<path class="st2" d="M343.3,1117.3l-7,435.2c-0.2,13.3-11.2,24-24.5,23.8l-24.1-0.3c-13.3-0.2-24.3,10.5-24.5,23.8l-1.6,97.5
				c-0.2,13.5,10.7,24.6,24.2,24.6h25.9c13.4,0,24.2,10.8,24.2,24.2v67.8"/>
		</g>
	</g>
	<g>
		<defs>
			<rect id="SVGID_15_" x="1.5" y="-0.5" width="1475" height="2873"/>
		</defs>
		<clipPath id="SVGID_16_">
			<use xlink:href="#SVGID_15_"  style="overflow:visible;"/>
		</clipPath>
		<g class="st8">
			<line class="st2" x1="448.9" y1="2155.4" x2="1093.8" y2="2155.4"/>
			<path class="st2" d="M762.3,1821.4v252.3c0,9.1-7.3,16.4-16.4,16.5l-42,0.5c-9.1,0.1-16.4,7.5-16.4,16.5v78.3
				c0,9,7.2,16.4,16.3,16.5l18.4,0.3c9,0.1,16.3,7.5,16.3,16.5v222.5c0,1.8,0.3,3.7,0.9,5.4l22.9,66.4"/>
			<line class="st2" x1="882.7" y1="1816.9" x2="882.7" y2="1928.6"/>
			<circle class="st2" cx="887.6" cy="2005" r="62.8"/>
			<line class="st2" x1="833.8" y1="1972.6" x2="761.9" y2="1885.1"/>
			<polyline class="st2" points="863,2068.3 663.7,2439.2 660.4,2513.2 			"/>
			<path class="st2" d="M898.7,2067.1l40.4,84.2c1.7,2.4,2.5,5.3,2.5,8.2l-2,148c0,2.3-0.6,4.6-1.6,6.7L905.8,2419
				c-2.5,4.8-10.5,7.9-16,7.9h-50.5c-8.1,0-14.6,6.5-14.6,14.6v72.5"/>
			<line class="st2" x1="455.9" y1="2388.3" x2="1100.8" y2="2388.3"/>
			<line class="st2" x1="674" y1="1966.4" x2="448.9" y2="1966.4"/>
			<line class="st2" x1="515.9" y1="2155" x2="515.9" y2="1816.5"/>
			<line class="st2" x1="620.5" y1="2055.2" x2="452.2" y2="2055.2"/>
			<line class="st2" x1="1044.5" y1="2513.2" x2="1044.1" y2="1821.8"/>
			<line class="st2" x1="886.8" y1="1872.8" x2="1100.4" y2="1872.8"/>
			<line class="st2" x1="950.5" y1="2004.6" x2="1100.8" y2="2004.6"/>
			<line class="st2" x1="1038.5" y1="2513.2" x2="824.8" y2="2513.2"/>
			<path class="st2" d="M596.4,2513.2l7-435.2c0.2-13.3,11.2-24,24.5-23.8l24.1,0.3c13.3,0.2,24.3-10.5,24.5-23.8l1.6-97.5
				c0.2-13.5-10.7-24.6-24.2-24.6H628c-13.4,0-24.2-10.8-24.2-24.2v-67.8"/>
		</g>
	</g>
	<g>
		<defs>
			<rect id="SVGID_17_" x="1.5" y="-0.5" width="1475" height="2873"/>
		</defs>
		<clipPath id="SVGID_18_">
			<use xlink:href="#SVGID_17_"  style="overflow:visible;"/>
		</clipPath>
		<g class="st9">
			<line class="st2" x1="1745.8" y1="2155.4" x2="1100.9" y2="2155.4"/>
			<path class="st2" d="M1432.4,1821.4v252.3c0,9.1,7.3,16.4,16.4,16.5l42,0.5c9.1,0.1,16.4,7.5,16.4,16.5v78.3
				c0,9-7.2,16.4-16.3,16.5l-18.4,0.3c-9,0.1-16.3,7.5-16.3,16.5v222.5c0,1.8-0.3,3.7-0.9,5.4l-22.9,66.4"/>
			<line class="st2" x1="1312" y1="1816.9" x2="1312" y2="1928.6"/>
			<circle class="st2" cx="1307.1" cy="2005" r="62.8"/>
			<line class="st2" x1="1360.9" y1="1972.6" x2="1432.8" y2="1885.1"/>
			<polyline class="st2" points="1331.7,2068.3 1531,2439.2 1534.2,2513.2 			"/>
			<path class="st2" d="M1296,2067.1l-40.4,84.2c-1.7,2.4-2.5,5.3-2.5,8.2l2,148c0,2.3,0.6,4.6,1.6,6.7L1289,2419
				c2.5,4.8,10.5,7.9,16,7.9h50.5c8.1,0,14.6,6.5,14.6,14.6v72.5"/>
			<line class="st2" x1="1738.8" y1="2388.3" x2="1093.9" y2="2388.3"/>
			<line class="st2" x1="1520.7" y1="1966.4" x2="1745.8" y2="1966.4"/>
			<line class="st2" x1="1678.8" y1="2155" x2="1678.8" y2="1816.5"/>
			<line class="st2" x1="1574.2" y1="2055.2" x2="1742.5" y2="2055.2"/>
			<line class="st2" x1="1150.2" y1="2513.2" x2="1150.6" y2="1821.8"/>
			<line class="st2" x1="1307.9" y1="1872.8" x2="1094.3" y2="1872.8"/>
			<line class="st2" x1="1244.2" y1="2004.6" x2="1093.9" y2="2004.6"/>
			<line class="st2" x1="1156.2" y1="2513.2" x2="1369.9" y2="2513.2"/>
			<path class="st2" d="M1598.3,2513.2l-7-435.2c-0.2-13.3-11.2-24-24.5-23.8l-24.1,0.3c-13.3,0.2-24.3-10.5-24.5-23.8l-1.6-97.5
				c-0.2-13.5,10.7-24.6,24.2-24.6h25.9c13.4,0,24.2-10.8,24.2-24.2v-67.8"/>
		</g>
	</g>
	<g>
		<defs>
			<rect id="SVGID_19_" x="1.5" y="-0.5" width="1475" height="2873"/>
		</defs>
		<clipPath id="SVGID_20_">
			<use xlink:href="#SVGID_19_"  style="overflow:visible;"/>
		</clipPath>
		<g class="st10">
			<line class="st2" x1="491.8" y1="2156.4" x2="-153.1" y2="2156.4"/>
			<path class="st2" d="M178.4,1822.4v252.3c0,9.1,7.3,16.4,16.4,16.5l42,0.5c9.1,0.1,16.4,7.5,16.4,16.5v78.3
				c0,9-7.2,16.4-16.3,16.5l-18.4,0.3c-9,0.1-16.3,7.5-16.3,16.5v222.5c0,1.8-0.3,3.7-0.9,5.4l-22.9,66.4"/>
			<line class="st2" x1="58" y1="1817.9" x2="58" y2="1929.6"/>
			
				<ellipse transform="matrix(9.089787e-03 -1 1 9.089787e-03 -1953.2998 2040.8636)" class="st2" cx="53.1" cy="2006" rx="62.8" ry="62.8"/>
			<line class="st2" x1="106.9" y1="1973.6" x2="178.8" y2="1886.1"/>
			<polyline class="st2" points="77.7,2069.3 277,2440.2 280.2,2514.2 			"/>
			<path class="st2" d="M42,2068.1l-40.4,84.2c-1.7,2.4-2.5,5.3-2.5,8.2l2,148c0,2.3,0.6,4.6,1.6,6.7L34.9,2420
				c2.5,4.8,10.5,7.9,16,7.9h50.5c8.1,0,14.6,6.5,14.6,14.6v72.5"/>
			<line class="st2" x1="484.8" y1="2389.3" x2="-160.1" y2="2389.3"/>
			<line class="st2" x1="266.7" y1="1967.4" x2="491.8" y2="1967.4"/>
			<line class="st2" x1="424.8" y1="2156" x2="424.8" y2="1817.5"/>
			<line class="st2" x1="320.2" y1="2056.2" x2="488.5" y2="2056.2"/>
			<line class="st2" x1="-103.8" y1="2514.2" x2="-103.4" y2="1822.8"/>
			<line class="st2" x1="53.9" y1="1873.8" x2="-159.7" y2="1873.8"/>
			<line class="st2" x1="-9.8" y1="2005.6" x2="-160.1" y2="2005.6"/>
			<line class="st2" x1="-97.8" y1="2514.2" x2="115.9" y2="2514.2"/>
			<path class="st2" d="M344.3,2514.2l-7-435.2c-0.2-13.3-11.2-24-24.5-23.8l-24.1,0.3c-13.3,0.2-24.3-10.5-24.5-23.8l-1.6-97.5
				c-0.2-13.5,10.7-24.6,24.2-24.6h25.9c13.4,0,24.2-10.8,24.2-24.2v-67.8"/>
		</g>
	</g>
	<g>
		<defs>
			<rect id="SVGID_21_" x="1.5" y="-0.5" width="1475" height="2873"/>
		</defs>
		<clipPath id="SVGID_22_">
			<use xlink:href="#SVGID_21_"  style="overflow:visible;"/>
		</clipPath>
		<g class="st11">
			<line class="st2" x1="448.9" y1="2873.1" x2="1093.8" y2="2873.1"/>
			<path class="st2" d="M762.3,3207.1v-252.3c0-9.1-7.3-16.4-16.4-16.5l-42-0.5c-9.1-0.1-16.4-7.5-16.4-16.5V2843
				c0-9,7.2-16.4,16.3-16.5l18.4-0.3c9-0.1,16.3-7.5,16.3-16.5v-222.5c0-1.8,0.3-3.7,0.9-5.4l22.9-66.4"/>
			<line class="st2" x1="882.7" y1="3211.6" x2="882.7" y2="3099.9"/>
			<circle class="st2" cx="887.6" cy="3023.5" r="62.8"/>
			<line class="st2" x1="833.8" y1="3055.9" x2="761.9" y2="3143.4"/>
			<polyline class="st2" points="863,2960.2 663.7,2589.3 660.4,2515.3 			"/>
			<path class="st2" d="M898.7,2961.4l40.4-84.2c1.7-2.4,2.5-5.3,2.5-8.2l-2-148c0-2.3-0.6-4.6-1.6-6.7l-32.3-104.8
				c-2.5-4.8-10.5-7.9-16-7.9h-50.5c-8.1,0-14.6-6.5-14.6-14.6v-72.5"/>
			<line class="st2" x1="455.9" y1="2640.2" x2="1100.8" y2="2640.2"/>
			<line class="st2" x1="674" y1="3062.1" x2="448.9" y2="3062.1"/>
			<line class="st2" x1="515.9" y1="2873.5" x2="515.9" y2="3212"/>
			<line class="st2" x1="620.5" y1="2973.3" x2="452.2" y2="2973.3"/>
			<line class="st2" x1="1044.5" y1="2515.3" x2="1044.1" y2="3206.7"/>
			<line class="st2" x1="886.8" y1="3155.7" x2="1100.4" y2="3155.7"/>
			<line class="st2" x1="950.5" y1="3023.9" x2="1100.8" y2="3023.9"/>
			<line class="st2" x1="1038.5" y1="2515.3" x2="824.8" y2="2515.3"/>
			<path class="st2" d="M596.4,2515.3l7,435.2c0.2,13.3,11.2,24,24.5,23.8l24.1-0.3c13.3-0.2,24.3,10.5,24.5,23.8l1.6,97.5
				c0.2,13.5-10.7,24.6-24.2,24.6H628c-13.4,0-24.2,10.8-24.2,24.2v67.8"/>
		</g>
	</g>
	<g>
		<defs>
			<rect id="SVGID_23_" x="1.5" y="-0.5" width="1475" height="2873"/>
		</defs>
		<clipPath id="SVGID_24_">
			<use xlink:href="#SVGID_23_"  style="overflow:visible;"/>
		</clipPath>
		<g class="st12">
			<line class="st2" x1="1745.8" y1="2873.1" x2="1100.9" y2="2873.1"/>
			<path class="st2" d="M1432.4,3207.1v-252.3c0-9.1,7.3-16.4,16.4-16.5l42-0.5c9.1-0.1,16.4-7.5,16.4-16.5V2843
				c0-9-7.2-16.4-16.3-16.5l-18.4-0.3c-9-0.1-16.3-7.5-16.3-16.5v-222.5c0-1.8-0.3-3.7-0.9-5.4l-22.9-66.4"/>
			<line class="st2" x1="1312" y1="3211.6" x2="1312" y2="3099.9"/>
			<circle class="st2" cx="1307.1" cy="3023.5" r="62.8"/>
			<line class="st2" x1="1360.9" y1="3055.9" x2="1432.8" y2="3143.4"/>
			<polyline class="st2" points="1331.7,2960.2 1531,2589.3 1534.2,2515.3 			"/>
			<path class="st2" d="M1296,2961.4l-40.4-84.2c-1.7-2.4-2.5-5.3-2.5-8.2l2-148c0-2.3,0.6-4.6,1.6-6.7l32.3-104.8
				c2.5-4.8,10.5-7.9,16-7.9h50.5c8.1,0,14.6-6.5,14.6-14.6v-72.5"/>
			<line class="st2" x1="1738.8" y1="2640.2" x2="1093.9" y2="2640.2"/>
			<line class="st2" x1="1520.7" y1="3062.1" x2="1745.8" y2="3062.1"/>
			<line class="st2" x1="1678.8" y1="2873.5" x2="1678.8" y2="3212"/>
			<line class="st2" x1="1574.2" y1="2973.3" x2="1742.5" y2="2973.3"/>
			<line class="st2" x1="1150.2" y1="2515.3" x2="1150.6" y2="3206.7"/>
			<line class="st2" x1="1307.9" y1="3155.7" x2="1094.3" y2="3155.7"/>
			<line class="st2" x1="1244.2" y1="3023.9" x2="1093.9" y2="3023.9"/>
			<line class="st2" x1="1156.2" y1="2515.3" x2="1369.9" y2="2515.3"/>
			<path class="st2" d="M1598.3,2515.3l-7,435.2c-0.2,13.3-11.2,24-24.5,23.8l-24.1-0.3c-13.3-0.2-24.3,10.5-24.5,23.8l-1.6,97.5
				c-0.2,13.5,10.7,24.6,24.2,24.6h25.9c13.4,0,24.2,10.8,24.2,24.2v67.8"/>
		</g>
	</g>
	<g>
		<defs>
			<rect id="SVGID_25_" x="1.5" y="-0.5" width="1475" height="2873"/>
		</defs>
		<clipPath id="SVGID_26_">
			<use xlink:href="#SVGID_25_"  style="overflow:visible;"/>
		</clipPath>
		<g class="st13">
			<line class="st2" x1="491.8" y1="2872.1" x2="-153.1" y2="2872.1"/>
			<path class="st2" d="M178.4,3206.1v-252.3c0-9.1,7.3-16.4,16.4-16.5l42-0.5c9.1-0.1,16.4-7.5,16.4-16.5V2842
				c0-9-7.2-16.4-16.3-16.5l-18.4-0.3c-9-0.1-16.3-7.5-16.3-16.5v-222.5c0-1.8-0.3-3.7-0.9-5.4l-22.9-66.4"/>
			<line class="st2" x1="58" y1="3210.6" x2="58" y2="3098.9"/>
			
				<ellipse transform="matrix(9.089787e-03 -1 1 9.089787e-03 -2969.7578 3048.124)" class="st2" cx="53.1" cy="3022.5" rx="62.8" ry="62.8"/>
			<line class="st2" x1="106.9" y1="3054.9" x2="178.8" y2="3142.4"/>
			<polyline class="st2" points="77.7,2959.2 277,2588.3 280.2,2514.3 			"/>
			<path class="st2" d="M42,2960.4l-40.4-84.2c-1.7-2.4-2.5-5.3-2.5-8.2l2-148c0-2.3,0.6-4.6,1.6-6.7L35,2608.5
				c2.5-4.8,10.5-7.9,16-7.9h50.5c8.1,0,14.6-6.5,14.6-14.6v-72.5"/>
			<line class="st2" x1="484.8" y1="2639.2" x2="-160.1" y2="2639.2"/>
			<line class="st2" x1="266.7" y1="3061.1" x2="491.8" y2="3061.1"/>
			<line class="st2" x1="424.8" y1="2872.5" x2="424.8" y2="3211"/>
			<line class="st2" x1="320.2" y1="2972.3" x2="488.5" y2="2972.3"/>
			<line class="st2" x1="-103.8" y1="2514.3" x2="-103.4" y2="3205.7"/>
			<line class="st2" x1="53.9" y1="3154.7" x2="-159.7" y2="3154.7"/>
			<line class="st2" x1="-9.8" y1="3022.9" x2="-160.1" y2="3022.9"/>
			<line class="st2" x1="-97.8" y1="2514.3" x2="115.9" y2="2514.3"/>
			<path class="st2" d="M344.3,2514.3l-7,435.2c-0.2,13.3-11.2,24-24.5,23.8l-24.1-0.3c-13.3-0.2-24.3,10.5-24.5,23.8l-1.6,97.5
				c-0.2,13.5,10.7,24.6,24.2,24.6h25.9c13.4,0,24.2,10.8,24.2,24.2v67.8"/>
		</g>
	</g>
	<g>
		<defs>
			<rect id="SVGID_27_" x="1.5" y="-0.5" width="1475" height="2873"/>
		</defs>
		<clipPath id="SVGID_28_">
			<use xlink:href="#SVGID_27_"  style="overflow:visible;"/>
		</clipPath>
		<g class="st14">
			<line class="st2" x1="435.9" y1="-610.6" x2="1080.8" y2="-610.6"/>
			<path class="st2" d="M749.3-944.6v252.3c0,9.1-7.3,16.4-16.4,16.5l-42,0.5c-9.1,0.1-16.4,7.5-16.4,16.5v78.3
				c0,9,7.2,16.4,16.3,16.5l18.4,0.3c9,0.1,16.3,7.5,16.3,16.5v222.5c0,1.8,0.3,3.7,0.9,5.4l22.9,66.4"/>
			<line class="st2" x1="869.7" y1="-949.1" x2="869.7" y2="-837.4"/>
			<circle class="st2" cx="874.6" cy="-761" r="62.8"/>
			<line class="st2" x1="820.8" y1="-793.4" x2="748.9" y2="-880.9"/>
			<polyline class="st2" points="850,-697.7 650.7,-326.8 647.4,-252.8 			"/>
			<path class="st2" d="M885.7-698.9l40.4,84.2c1.7,2.4,2.5,5.3,2.5,8.2l-2,148c0,2.3-0.6,4.6-1.6,6.7L892.8-347
				c-2.5,4.8-10.5,7.9-16,7.9h-50.5c-8.1,0-14.6,6.5-14.6,14.6v72.5"/>
			<line class="st2" x1="442.9" y1="-377.7" x2="1087.8" y2="-377.7"/>
			<line class="st2" x1="661" y1="-799.6" x2="435.9" y2="-799.6"/>
			<line class="st2" x1="502.9" y1="-611" x2="502.9" y2="-949.5"/>
			<line class="st2" x1="607.5" y1="-710.8" x2="439.2" y2="-710.8"/>
			<line class="st2" x1="1031.5" y1="-252.8" x2="1031.1" y2="-944.2"/>
			<line class="st2" x1="873.8" y1="-893.2" x2="1087.4" y2="-893.2"/>
			<line class="st2" x1="937.5" y1="-761.4" x2="1087.8" y2="-761.4"/>
			<line class="st2" x1="1025.5" y1="-252.8" x2="811.8" y2="-252.8"/>
			<path class="st2" d="M583.4-252.8l7-435.2c0.2-13.3,11.2-24,24.5-23.8l24.1,0.3c13.3,0.2,24.3-10.5,24.5-23.8l1.6-97.5
				c0.2-13.5-10.7-24.6-24.2-24.6H615c-13.4,0-24.2-10.8-24.2-24.2v-67.8"/>
		</g>
	</g>
	<g>
		<defs>
			<rect id="SVGID_29_" x="1.5" y="-0.5" width="1475" height="2873"/>
		</defs>
		<clipPath id="SVGID_30_">
			<use xlink:href="#SVGID_29_"  style="overflow:visible;"/>
		</clipPath>
		<g class="st15">
			<line class="st2" x1="1732.8" y1="-610.6" x2="1087.9" y2="-610.6"/>
			<path class="st2" d="M1419.4-944.6v252.3c0,9.1,7.3,16.4,16.4,16.5l42,0.5c9.1,0.1,16.4,7.5,16.4,16.5v78.3
				c0,9-7.2,16.4-16.3,16.5l-18.4,0.3c-9,0.1-16.3,7.5-16.3,16.5v222.5c0,1.8-0.3,3.7-0.9,5.4l-22.9,66.4"/>
			<line class="st2" x1="1299" y1="-949.1" x2="1299" y2="-837.4"/>
			<circle class="st2" cx="1294.1" cy="-761" r="62.8"/>
			<line class="st2" x1="1347.9" y1="-793.4" x2="1419.8" y2="-880.9"/>
			<polyline class="st2" points="1318.7,-697.7 1518,-326.8 1521.2,-252.8 			"/>
			<path class="st2" d="M1283-698.9l-40.4,84.2c-1.7,2.4-2.5,5.3-2.5,8.2l2,148c0,2.3,0.6,4.6,1.6,6.7L1276-347
				c2.5,4.8,10.5,7.9,16,7.9h50.5c8.1,0,14.6,6.5,14.6,14.6v72.5"/>
			<line class="st2" x1="1725.8" y1="-377.7" x2="1080.9" y2="-377.7"/>
			<line class="st2" x1="1507.7" y1="-799.6" x2="1732.8" y2="-799.6"/>
			<line class="st2" x1="1665.8" y1="-611" x2="1665.8" y2="-949.5"/>
			<line class="st2" x1="1561.2" y1="-710.8" x2="1729.5" y2="-710.8"/>
			<line class="st2" x1="1137.2" y1="-252.8" x2="1137.6" y2="-944.2"/>
			<line class="st2" x1="1294.9" y1="-893.2" x2="1081.3" y2="-893.2"/>
			<line class="st2" x1="1231.2" y1="-761.4" x2="1080.9" y2="-761.4"/>
			<line class="st2" x1="1143.2" y1="-252.8" x2="1356.9" y2="-252.8"/>
			<path class="st2" d="M1585.3-252.8l-7-435.2c-0.2-13.3-11.2-24-24.5-23.8l-24.1,0.3c-13.3,0.2-24.3-10.5-24.5-23.8l-1.6-97.5
				c-0.2-13.5,10.7-24.6,24.2-24.6h25.9c13.4,0,24.2-10.8,24.2-24.2v-67.8"/>
		</g>
	</g>
	<g>
		<defs>
			<rect id="SVGID_31_" x="1.5" y="-0.5" width="1475" height="2873"/>
		</defs>
		<clipPath id="SVGID_32_">
			<use xlink:href="#SVGID_31_"  style="overflow:visible;"/>
		</clipPath>
		<g class="st16">
			<line class="st2" x1="478.8" y1="-609.6" x2="-166.1" y2="-609.6"/>
			<path class="st2" d="M165.4-943.6v252.3c0,9.1,7.3,16.4,16.4,16.5l42,0.5c9.1,0.1,16.4,7.5,16.4,16.5v78.3
				c0,9-7.2,16.4-16.3,16.5l-18.4,0.3c-9,0.1-16.3,7.5-16.3,16.5v222.5c0,1.8-0.3,3.7-0.9,5.4l-22.9,66.4"/>
			<line class="st2" x1="45" y1="-948.1" x2="45" y2="-836.4"/>
			<circle class="st2" cx="40.1" cy="-760" r="62.8"/>
			<line class="st2" x1="93.9" y1="-792.4" x2="165.8" y2="-879.9"/>
			<polyline class="st2" points="64.7,-696.7 264,-325.8 267.2,-251.8 			"/>
			<path class="st2" d="M29-697.9l-40.4,84.2c-1.7,2.4-2.5,5.3-2.5,8.2l2,148c0,2.3,0.6,4.6,1.6,6.7L21.9-346
				c2.5,4.8,10.5,7.9,16,7.9h50.5c8.1,0,14.6,6.5,14.6,14.6v72.5"/>
			<line class="st2" x1="471.8" y1="-376.7" x2="-173.1" y2="-376.7"/>
			<line class="st2" x1="253.7" y1="-798.6" x2="478.8" y2="-798.6"/>
			<line class="st2" x1="411.8" y1="-610" x2="411.8" y2="-948.5"/>
			<line class="st2" x1="307.2" y1="-709.8" x2="475.5" y2="-709.8"/>
			<line class="st2" x1="-116.8" y1="-251.8" x2="-116.4" y2="-943.2"/>
			<line class="st2" x1="40.9" y1="-892.2" x2="-172.7" y2="-892.2"/>
			<line class="st2" x1="-22.8" y1="-760.4" x2="-173.1" y2="-760.4"/>
			<line class="st2" x1="-110.8" y1="-251.8" x2="102.9" y2="-251.8"/>
			<path class="st2" d="M331.3-251.8l-7-435.2c-0.2-13.3-11.2-24-24.5-23.8l-24.1,0.3c-13.3,0.2-24.3-10.5-24.5-23.8l-1.6-97.5
				c-0.2-13.5,10.7-24.6,24.2-24.6h25.9c13.4,0,24.2-10.8,24.2-24.2v-67.8"/>
		</g>
	</g>
	<g>
		<defs>
			<rect id="SVGID_33_" x="1.5" y="-0.5" width="1475" height="2873"/>
		</defs>
		<clipPath id="SVGID_34_">
			<use xlink:href="#SVGID_33_"  style="overflow:visible;"/>
		</clipPath>
		<g class="st17">
			<line class="st2" x1="439.9" y1="107.1" x2="1084.8" y2="107.1"/>
			<path class="st2" d="M753.3,441.1V188.8c0-9.1-7.3-16.4-16.4-16.5l-42-0.5c-9.1-0.1-16.4-7.5-16.4-16.5V77
				c0-9,7.2-16.4,16.3-16.5l18.4-0.3c9-0.1,16.3-7.5,16.3-16.5v-222.5c0-1.8,0.3-3.7,0.9-5.4l22.9-66.4"/>
			<line class="st2" x1="873.7" y1="445.6" x2="873.7" y2="333.9"/>
			<circle class="st2" cx="878.6" cy="257.5" r="62.8"/>
			<line class="st2" x1="824.8" y1="289.9" x2="752.9" y2="377.4"/>
			<polyline class="st2" points="854,194.2 654.7,-176.7 651.4,-250.7 			"/>
			<path class="st2" d="M889.7,195.4l40.4-84.2c1.7-2.4,2.5-5.3,2.5-8.2l-2-148c0-2.3-0.6-4.6-1.6-6.7l-32.3-104.8
				c-2.5-4.8-10.5-7.9-16-7.9h-50.5c-8.1,0-14.6-6.5-14.6-14.6v-72.5"/>
			<line class="st2" x1="446.9" y1="-125.8" x2="1091.8" y2="-125.8"/>
			<line class="st2" x1="665" y1="296.1" x2="439.9" y2="296.1"/>
			<line class="st2" x1="506.9" y1="107.5" x2="506.9" y2="446"/>
			<line class="st2" x1="611.5" y1="207.3" x2="443.2" y2="207.3"/>
			<line class="st2" x1="1035.5" y1="-250.7" x2="1035.1" y2="440.7"/>
			<line class="st2" x1="877.8" y1="389.7" x2="1091.4" y2="389.7"/>
			<line class="st2" x1="941.5" y1="257.9" x2="1091.8" y2="257.9"/>
			<line class="st2" x1="1029.5" y1="-250.7" x2="815.8" y2="-250.7"/>
			<path class="st2" d="M587.4-250.7l7,435.2c0.2,13.3,11.2,24,24.5,23.8L643,208c13.3-0.2,24.3,10.5,24.5,23.8l1.6,97.5
				c0.2,13.5-10.7,24.6-24.2,24.6H619c-13.4,0-24.2,10.8-24.2,24.2V446"/>
		</g>
	</g>
	<g>
		<defs>
			<rect id="SVGID_35_" x="1.5" y="-0.5" width="1475" height="2873"/>
		</defs>
		<clipPath id="SVGID_36_">
			<use xlink:href="#SVGID_35_"  style="overflow:visible;"/>
		</clipPath>
		<g class="st18">
			<line class="st2" x1="1736.8" y1="107.1" x2="1091.9" y2="107.1"/>
			<path class="st2" d="M1423.4,441.1V188.8c0-9.1,7.3-16.4,16.4-16.5l42-0.5c9.1-0.1,16.4-7.5,16.4-16.5V77c0-9-7.2-16.4-16.3-16.5
				l-18.4-0.3c-9-0.1-16.3-7.5-16.3-16.5v-222.5c0-1.8-0.3-3.7-0.9-5.4l-22.9-66.4"/>
			<line class="st2" x1="1303" y1="445.6" x2="1303" y2="333.9"/>
			<circle class="st2" cx="1298.1" cy="257.5" r="62.8"/>
			<line class="st2" x1="1351.9" y1="289.9" x2="1423.8" y2="377.4"/>
			<polyline class="st2" points="1322.7,194.2 1522,-176.7 1525.2,-250.7 			"/>
			<path class="st2" d="M1287,195.4l-40.4-84.2c-1.7-2.4-2.5-5.3-2.5-8.2l2-148c0-2.3,0.6-4.6,1.6-6.7l32.3-104.8
				c2.5-4.8,10.5-7.9,16-7.9h50.5c8.1,0,14.6-6.5,14.6-14.6v-72.5"/>
			<line class="st2" x1="1729.8" y1="-125.8" x2="1084.9" y2="-125.8"/>
			<line class="st2" x1="1511.7" y1="296.1" x2="1736.8" y2="296.1"/>
			<line class="st2" x1="1669.8" y1="107.5" x2="1669.8" y2="446"/>
			<line class="st2" x1="1565.2" y1="207.3" x2="1733.5" y2="207.3"/>
			<line class="st2" x1="1141.2" y1="-250.7" x2="1141.6" y2="440.7"/>
			<line class="st2" x1="1298.9" y1="389.7" x2="1085.3" y2="389.7"/>
			<line class="st2" x1="1235.2" y1="257.9" x2="1084.9" y2="257.9"/>
			<line class="st2" x1="1147.2" y1="-250.7" x2="1360.9" y2="-250.7"/>
			<path class="st2" d="M1589.3-250.7l-7,435.2c-0.2,13.3-11.2,24-24.5,23.8l-24.1-0.3c-13.3-0.2-24.3,10.5-24.5,23.8l-1.6,97.5
				c-0.2,13.5,10.7,24.6,24.2,24.6h25.9c13.4,0,24.2,10.8,24.2,24.2V446"/>
		</g>
	</g>
	<g>
		<defs>
			<rect id="SVGID_37_" x="1.5" y="-0.5" width="1475" height="2873"/>
		</defs>
		<clipPath id="SVGID_38_">
			<use xlink:href="#SVGID_37_"  style="overflow:visible;"/>
		</clipPath>
		<g class="st19">
			<line class="st2" x1="482.8" y1="106.1" x2="-162.1" y2="106.1"/>
			<path class="st2" d="M169.4,440.1V187.8c0-9.1,7.3-16.4,16.4-16.5l42-0.5c9.1-0.1,16.4-7.5,16.4-16.5V76c0-9-7.2-16.4-16.3-16.5
				l-18.4-0.3c-9-0.1-16.3-7.5-16.3-16.5v-222.5c0-1.8-0.3-3.7-0.9-5.4l-22.9-66.4"/>
			<line class="st2" x1="49" y1="444.6" x2="49" y2="332.9"/>
			<circle class="st2" cx="44.1" cy="256.5" r="62.8"/>
			<line class="st2" x1="97.9" y1="288.9" x2="169.8" y2="376.4"/>
			<polyline class="st2" points="68.7,193.2 268,-177.7 271.2,-251.7 			"/>
			<path class="st2" d="M33,194.4l-40.4-84.2c-1.7-2.4-2.5-5.3-2.5-8.2l2-148c0-2.3,0.6-4.6,1.6-6.7L26-157.5
				c2.5-4.8,10.5-7.9,16-7.9h50.5c8.1,0,14.6-6.5,14.6-14.6v-72.5"/>
			<line class="st2" x1="475.8" y1="-126.8" x2="-169.1" y2="-126.8"/>
			<line class="st2" x1="257.7" y1="295.1" x2="482.8" y2="295.1"/>
			<line class="st2" x1="415.8" y1="106.5" x2="415.8" y2="445"/>
			<line class="st2" x1="311.2" y1="206.3" x2="479.5" y2="206.3"/>
			<line class="st2" x1="-112.8" y1="-251.7" x2="-112.4" y2="439.7"/>
			<line class="st2" x1="44.9" y1="388.7" x2="-168.7" y2="388.7"/>
			<line class="st2" x1="-18.8" y1="256.9" x2="-169.1" y2="256.9"/>
			<line class="st2" x1="-106.8" y1="-251.7" x2="106.9" y2="-251.7"/>
			<path class="st2" d="M335.3-251.7l-7,435.2c-0.2,13.3-11.2,24-24.5,23.8l-24.1-0.3c-13.3-0.2-24.3,10.5-24.5,23.8l-1.6,97.5
				c-0.2,13.5,10.7,24.6,24.2,24.6h25.9c13.4,0,24.2,10.8,24.2,24.2V445"/>
		</g>
	</g>
	<g>
		<defs>
			<rect id="SVGID_39_" x="1.5" y="-0.5" width="1475" height="2873"/>
		</defs>
		<clipPath id="SVGID_40_">
			<use xlink:href="#SVGID_39_"  style="overflow:visible;"/>
		</clipPath>
		
			<linearGradient id="SVGID_41_" gradientUnits="userSpaceOnUse" x1="86.6" y1="2777.8645" x2="86.6" y2="1254.0354" gradientTransform="matrix(1 0 0 -1 0 2882)">
			<stop  offset="0" style="stop-color:#053049"/>
			<stop  offset="0.2589" style="stop-color:#422F4B"/>
			<stop  offset="0.854" style="stop-color:#D92C51"/>
			<stop  offset="1" style="stop-color:#FF2B52"/>
		</linearGradient>
		<path class="st20" d="M-104.5,1625.5h85.7c5.2,0,7-2.7,9.7-7.1l3.3-20.1c13.5-22,31.8-31.3,57.4-34.8l11.2,1.3
			c8.3,1,16.4-3.2,20.3-10.6l192.5-362.7l7-125l-33-63.5c-2.7-5.2,1.1-11.4,7-11.4l79,0.9l-4-333l-55.4-2.1
			c-8.3-1.1-14.4-8.3-14.2-16.6l-4-103.3c0.3-11.6,8.9-21.2,20.3-23l28.3,0.6c14.4,0.3,26-12,24.7-26.4l-4.1-114
			c-0.4-10.6-8.1-19.5-18.5-21.4l-27.5-0.4c-0.6,0-1.2-0.1-1.7-0.2c-15.6-3.4-26.6-17.4-26.2-33.4l1-89.7
			c0.1-12.2,10-22.1,22.2-22.3l27.6-0.4c13.1-0.2,23.6-10.7,23.9-23.7l1.3-64.7c0.1-6.5-5.1-11.9-11.6-11.9h-480.1"/>
	</g>
	<g>
		<defs>
			<rect id="SVGID_42_" x="1.5" y="-0.5" width="1475" height="2873"/>
		</defs>
		<clipPath id="SVGID_43_">
			<use xlink:href="#SVGID_42_"  style="overflow:visible;"/>
		</clipPath>
		<g class="st21">
			<g>
				
					<linearGradient id="SVGID_44_" gradientUnits="userSpaceOnUse" x1="766.5" y1="3081.9646" x2="766.5" y2="-327.9645" gradientTransform="matrix(1 0 0 -1 0 2882)">
					<stop  offset="0" style="stop-color:#053049"/>
					<stop  offset="0.2589" style="stop-color:#422F4B"/>
					<stop  offset="0.854" style="stop-color:#D92C51"/>
					<stop  offset="1" style="stop-color:#FF2B52"/>
				</linearGradient>
				<line class="st22" x1="766.5" y1="3207.5" x2="766.5" y2="3202.6"/>
				
					<linearGradient id="SVGID_45_" gradientUnits="userSpaceOnUse" x1="757.6575" y1="3081.9646" x2="757.6575" y2="-327.9645" gradientTransform="matrix(1 0 0 -1 0 2882)">
					<stop  offset="0" style="stop-color:#053049"/>
					<stop  offset="0.2589" style="stop-color:#422F4B"/>
					<stop  offset="0.854" style="stop-color:#D92C51"/>
					<stop  offset="1" style="stop-color:#FF2B52"/>
				</linearGradient>
				<path class="st23" d="M766.5,3192.7l-0.7-240.4c-0.1-7.3-8.7-13.3-16-14.1l-44.2-0.3c-8.2-0.9-14.7-7.3-15.5-15.5l1.5-24
					c-1-23,0-36.5,0-37c0.3-17.2-0.4-27.5,15.1-34.3c2.3-1,7.3-1.8,9.9-1.7l11.7-1.2c5,0.7,13.4-3.1,13.5-8.1l1.8-231.9
					c0-1.1,0.2-2.2,0.6-3.3l20.9-53.7c0.9-2.4,1-5.1,0.1-7.5l-25.7-73.2l-0.8-232.8c-0.1-4.2-3-7.9-7.2-8.8l-32.4-3.6
					c-6.6-1-11.4-6.9-11.2-13.5l-1.6-79.4c0.7-9.7,8.3-17.4,17.9-18.2l44.1-1.7c7.4-0.5,13.1-6.6,13.1-14l-1-522.6
					c0-5.3-3.9-9.8-9.2-10.5l-49.3,0.4c-8.6-0.6-15.2-8-14.7-16.7l-1.2-80.5c0.3-6,4.3-11.2,10.1-12.9l26.5-2.4
					c8.3-2.2,14.3-9.5,14.8-18l2.2-76c0-0.4,0-0.9,0-1.3c-3.1-28.5-64.9-104.3-76.9-141.3c-6.2-19.2-4.3-149.4-4-150l197.6-368.2
					c1.5-2.7,0.9-6.2-1.4-8.2l-24.1-23c-1-0.9-1.8-2-2.4-3.3c-8.4-18.6-11.3-32.5-5.7-52.3l4.9-9.9c0-3.3-6.3-10.9-8.2-13.1
					l-49.8-61c-8.2-9.9-12.6-22.5-12.4-35.3l-3.4-282.8"/>
				
					<linearGradient id="SVGID_46_" gradientUnits="userSpaceOnUse" x1="751.1" y1="3081.9646" x2="751.1" y2="-327.9645" gradientTransform="matrix(1 0 0 -1 0 2882)">
					<stop  offset="0" style="stop-color:#053049"/>
					<stop  offset="0.2589" style="stop-color:#422F4B"/>
					<stop  offset="0.854" style="stop-color:#D92C51"/>
					<stop  offset="1" style="stop-color:#FF2B52"/>
				</linearGradient>
				<polyline class="st24" points="753.6,180.4 753.5,175.5 748.6,175.4 				"/>
				
					<linearGradient id="SVGID_47_" gradientUnits="userSpaceOnUse" x1="716.55" y1="3081.9646" x2="716.55" y2="-327.9645" gradientTransform="matrix(1 0 0 -1 0 2882)">
					<stop  offset="0" style="stop-color:#053049"/>
					<stop  offset="0.2589" style="stop-color:#422F4B"/>
					<stop  offset="0.854" style="stop-color:#D92C51"/>
					<stop  offset="1" style="stop-color:#FF2B52"/>
				</linearGradient>
				<line class="st25" x1="736.9" y1="175.3" x2="696.2" y2="174.7"/>
				
					<linearGradient id="SVGID_48_" gradientUnits="userSpaceOnUse" x1="687.75" y1="3081.9646" x2="687.75" y2="-327.9645" gradientTransform="matrix(1 0 0 -1 0 2882)">
					<stop  offset="0" style="stop-color:#053049"/>
					<stop  offset="0.2589" style="stop-color:#422F4B"/>
					<stop  offset="0.854" style="stop-color:#D92C51"/>
					<stop  offset="1" style="stop-color:#FF2B52"/>
				</linearGradient>
				<polyline class="st26" points="690.4,174.6 685.5,174.5 685.1,169.6 				"/>
				
					<linearGradient id="SVGID_49_" gradientUnits="userSpaceOnUse" x1="689.5" y1="3081.9646" x2="689.5" y2="-327.9645" gradientTransform="matrix(1 0 0 -1 0 2882)">
					<stop  offset="0" style="stop-color:#053049"/>
					<stop  offset="0.2589" style="stop-color:#422F4B"/>
					<stop  offset="0.854" style="stop-color:#D92C51"/>
					<stop  offset="1" style="stop-color:#FF2B52"/>
				</linearGradient>
				<path class="st27" d="M684.3,159.9l-6.4-81.2c-0.2-8.5,6.3-15.7,14.8-16.3l21.5-1.1c7.5-0.5,13.4-6.7,13.4-14.2l0.9-86.7l-50-92
					l-28-53l0.2-3.2"/>
				
					<linearGradient id="SVGID_50_" gradientUnits="userSpaceOnUse" x1="651.3" y1="3081.9646" x2="651.3" y2="-327.9645" gradientTransform="matrix(1 0 0 -1 0 2882)">
					<stop  offset="0" style="stop-color:#053049"/>
					<stop  offset="0.2589" style="stop-color:#422F4B"/>
					<stop  offset="0.854" style="stop-color:#D92C51"/>
					<stop  offset="1" style="stop-color:#FF2B52"/>
				</linearGradient>
				<line class="st28" x1="651.1" y1="-192.6" x2="651.5" y2="-197.5"/>
			</g>
		</g>
	</g>
	<g>
		<defs>
			<rect id="SVGID_51_" x="1.5" y="-0.5" width="1475" height="2873"/>
		</defs>
		<clipPath id="SVGID_52_">
			<use xlink:href="#SVGID_51_"  style="overflow:visible;"/>
		</clipPath>
		
			<linearGradient id="SVGID_53_" gradientUnits="userSpaceOnUse" x1="2150.2239" y1="1422.1266" x2="730.1795" y2="2241.9895" gradientTransform="matrix(1 0 0 -1 0 2882)">
			<stop  offset="0" style="stop-color:#053049"/>
			<stop  offset="0.2589" style="stop-color:#422F4B"/>
			<stop  offset="0.854" style="stop-color:#D92C51"/>
			<stop  offset="1" style="stop-color:#FF2B52"/>
		</linearGradient>
		<path class="st29" d="M1521.5-176.5l-80,148l-113.9,213.4c-3.2,6-9.2,10-16,10.7l-15.7,1.5c-9.5,0.3-18.7,2.7-27.1,7.2l0,0
			c-12.5,6.6-22.3,17.3-27.8,30.4l-1.7,7.3c-2.2,9.2-10.4,15.6-19.8,15.6h-183.9v134l-158-2l5,155.3l23,5.3
			c16.1,5.5,28.9,17.9,34.8,33.9l5.5,23.2l93.8,0.3v636l-111.6,1c-8.6,0-14.7,8.4-12,16.5l21.6,56.5l4,160l207-1l2,149l-107,1l1,378
			l105,1v150h596"/>
	</g>
</g>
</svg>
