<?xml version="1.0" encoding="utf-8"?>
<!-- Generator: Adobe Illustrator 23.0.4, SVG Export Plug-In . SVG Version: 6.00 Build 0)  -->
<svg version="1.1" id="Layer_1" xmlns="http://www.w3.org/2000/svg" xmlns:xlink="http://www.w3.org/1999/xlink" x="0px" y="0px"
	 viewBox="0 0 295 290" style="enable-background:new 0 0 295 290;" xml:space="preserve">
<style type="text/css">
	.st0{fill:#064763;}
	.st1{fill:none;stroke:url(#SVGID_1_);stroke-width:4;stroke-miterlimit:10;}
	.st2{fill:url(#SVGID_2_);}
	.st3{fill:url(#SVGID_3_);}
	.st4{fill:url(#SVGID_4_);}
	.st5{fill:url(#SVGID_5_);}
	
		.st6{fill:none;stroke:url(#SVGID_6_);stroke-width:2;stroke-linecap:round;stroke-linejoin:round;stroke-miterlimit:10;stroke-dasharray:3;}
</style>
<g>
	<circle id="XMLID_6_" class="st0" cx="147.2" cy="145.1" r="134.3"/>
	<g>
		
			<linearGradient id="SVGID_1_" gradientUnits="userSpaceOnUse" x1="145.1754" y1="874.1" x2="161.1754" y2="874.1" gradientTransform="matrix(1 0 0 1 0 -788)">
			<stop  offset="0" style="stop-color:#B3E8E5"/>
			<stop  offset="0.4633" style="stop-color:#CAEBEA"/>
			<stop  offset="1" style="stop-color:#EAF0F0"/>
		</linearGradient>
		<path class="st1" d="M147.2,105.6v-2.2c0-5.7,2.1-11.2,6-15.3l0,0c3.9-4.2,6-9.7,6-15.3v-6.2"/>
		
			<linearGradient id="SVGID_2_" gradientUnits="userSpaceOnUse" x1="149.2601" y1="841.6102" x2="170.2399" y2="862.5898" gradientTransform="matrix(1 0 0 1 0 -788)">
			<stop  offset="0" style="stop-color:#FC7474"/>
			<stop  offset="0.2161" style="stop-color:#FD5C69"/>
			<stop  offset="0.5222" style="stop-color:#FE415C"/>
			<stop  offset="0.7935" style="stop-color:#FF3155"/>
			<stop  offset="1" style="stop-color:#FF2B52"/>
		</linearGradient>
		<path class="st2" d="M175.1,64.4c0,2-8.8,1.5-9.7,3.1c-1,1.7,3.5,9.1,1.8,10.1c-1.6,0.9-5.5-8.8-7.5-8.9c-2,0-6.3,9.6-7.9,8.6
			c-1.7-1,3.1-8.3,2.2-10c-0.9-1.6-9.7-1.5-9.6-3.5c0-2,8.8-1.5,9.7-3.1c1-1.7-3.5-9.1-1.8-10.1c1.6-0.9,5.6,6.8,7.6,6.9
			c2,0,6.2-7.6,7.8-6.6c1.7,1-3.1,8.3-2.2,10C166.4,62.6,175.1,62.4,175.1,64.4z"/>
		
			<linearGradient id="SVGID_3_" gradientUnits="userSpaceOnUse" x1="131.4415" y1="887.9489" x2="163.187" y2="919.6944" gradientTransform="matrix(1 0 0 1 0 -788)">
			<stop  offset="0" style="stop-color:#FC7474"/>
			<stop  offset="0.2161" style="stop-color:#FD5C69"/>
			<stop  offset="0.5222" style="stop-color:#FE415C"/>
			<stop  offset="0.7935" style="stop-color:#FF3155"/>
			<stop  offset="1" style="stop-color:#FF2B52"/>
		</linearGradient>
		<path class="st3" d="M166.6,126l-5.5-2.1c-9.2-3.4-19-3.4-28.1,0.1l-5,1.9c-2.2,0.8-4.4-1.3-4.4-4.2v-11.6c0-2.4,1.5-4.4,3.5-4.4
			h40.6c1.9,0,3.5,2,3.5,4.4v11.7C171,124.7,168.8,126.8,166.6,126z"/>
		
			<linearGradient id="SVGID_4_" gradientUnits="userSpaceOnUse" x1="104.2863" y1="923.5863" x2="190.5533" y2="1009.8533" gradientTransform="matrix(1 0 0 1 0 -788)">
			<stop  offset="0" style="stop-color:#FC7474"/>
			<stop  offset="0.2161" style="stop-color:#FD5C69"/>
			<stop  offset="0.5222" style="stop-color:#FE415C"/>
			<stop  offset="0.7935" style="stop-color:#FF3155"/>
			<stop  offset="1" style="stop-color:#FF2B52"/>
		</linearGradient>
		<circle class="st4" cx="147.2" cy="178.5" r="61"/>
		<linearGradient id="SVGID_5_" gradientUnits="userSpaceOnUse" x1="117" y1="178.2431" x2="177.5" y2="178.2431">
			<stop  offset="0" style="stop-color:#F7F6F2"/>
			<stop  offset="0.4441" style="stop-color:#F1F0EC"/>
			<stop  offset="1" style="stop-color:#E2E0DC"/>
		</linearGradient>
		<path class="st5" d="M177.1,199.7c0,1.6-1.3,2.9-2.9,2.9c-0.9,0-1.8-0.1-2.6-0.4l-14.1-4c-1.4-0.4-2.8-0.4-4.2-0.1l-16.4,3.5
			c-1.5,0.3-3.2,0.3-4.7-0.1l-13.2-3.4c-1.2-0.3-2-1.4-2-2.6v-38.4c0-1.7,1.6-3,3.3-2.6l11.9,3c1.5,0.4,3.1,0.4,4.7,0.1l16.5-3.5
			c1.4-0.3,2.8-0.3,4.2,0.1l14.3,4c1,0.3,2.1,0.4,3.2,0.4c1.3,0,2.4,1.1,2.4,2.4L177.1,199.7z"/>
	</g>
</g>
<linearGradient id="SVGID_6_" gradientUnits="userSpaceOnUse" x1="123.6" y1="178.8883" x2="172.018" y2="178.8883">
	<stop  offset="0" style="stop-color:#FC7474"/>
	<stop  offset="0.2161" style="stop-color:#FD5C69"/>
	<stop  offset="0.5222" style="stop-color:#FE415C"/>
	<stop  offset="0.7935" style="stop-color:#FF3155"/>
	<stop  offset="1" style="stop-color:#FF2B52"/>
</linearGradient>
<path class="st6" d="M171,190.1l-9.9-5.6c-2-2.5-5.2-3.8-8.3-3.4l-11.1,1.4c-3.8,0.5-7.4-1.4-9.3-4.7l-7.8-10.2"/>
</svg>
