<?xml version="1.0" encoding="utf-8"?>
<!-- Generator: Adobe Illustrator 23.0.4, SVG Export Plug-In . SVG Version: 6.00 Build 0)  -->
<svg version="1.1" id="Layer_1" xmlns="http://www.w3.org/2000/svg" xmlns:xlink="http://www.w3.org/1999/xlink" x="0px" y="0px"
	 viewBox="0 0 295 290" style="enable-background:new 0 0 295 290;" xml:space="preserve">
<style type="text/css">
	.st0{fill:#064763;}
	.st1{fill:url(#SVGID_1_);}
	.st2{opacity:0.34;fill:url(#SVGID_2_);}
	.st3{opacity:0.34;}
	.st4{fill:url(#SVGID_3_);}
	.st5{fill:url(#SVGID_4_);}
	.st6{fill:url(#SVGID_5_);}
	.st7{fill:url(#SVGID_6_);}
	.st8{fill:url(#SVGID_7_);}
	.st9{fill:url(#SVGID_8_);}
	.st10{fill:url(#SVGID_9_);}
	.st11{fill:url(#SVGID_10_);}
</style>
<g>
	<circle id="XMLID_7_" class="st0" cx="147.3" cy="144.8" r="134.3"/>
	<linearGradient id="SVGID_1_" gradientUnits="userSpaceOnUse" x1="96.8396" y1="83.8507" x2="197.6998" y2="184.7109">
		<stop  offset="0" style="stop-color:#41B1F2"/>
		<stop  offset="0.2227" style="stop-color:#2F9BD9"/>
		<stop  offset="0.5262" style="stop-color:#1C83BE"/>
		<stop  offset="0.7953" style="stop-color:#1074AE"/>
		<stop  offset="1" style="stop-color:#0C6FA8"/>
	</linearGradient>
	<path class="st1" d="M179.4,200.6l-25.1,13.9c-4.4,2.4-9.7,2.4-14,0l-25.1-13.9c-13.8-7.6-22.4-22.2-22.4-38V94
		c0-8.2,6.6-14.8,14.8-14.8l16.3,3.3c15.1,3.1,30.7,3.1,45.8,0.1l17.3-3.4c8.2,0,14.8,6.6,14.8,14.8v68.6
		C201.8,178.5,193.2,193,179.4,200.6z"/>
	<linearGradient id="SVGID_2_" gradientUnits="userSpaceOnUse" x1="124.0067" y1="142.6683" x2="172.67" y2="142.6683">
		<stop  offset="0" style="stop-color:#B3E8E5"/>
		<stop  offset="0.4633" style="stop-color:#CAEBEA"/>
		<stop  offset="1" style="stop-color:#EAF0F0"/>
	</linearGradient>
	<circle class="st2" cx="148.3" cy="142.7" r="24.3"/>
	<g class="st3">
		<linearGradient id="SVGID_3_" gradientUnits="userSpaceOnUse" x1="121.1764" y1="108.9222" x2="146.6568" y2="108.9222">
			<stop  offset="0" style="stop-color:#B3E8E5"/>
			<stop  offset="0.4633" style="stop-color:#CAEBEA"/>
			<stop  offset="1" style="stop-color:#EAF0F0"/>
		</linearGradient>
		<path class="st4" d="M146.7,107.2v-5.5c-9.5,0.4-18.5,4.1-25.5,10.6l3.9,3.9C130.8,110.9,138.4,107.6,146.7,107.2z"/>
		<linearGradient id="SVGID_4_" gradientUnits="userSpaceOnUse" x1="150.0934" y1="108.8047" x2="175.5118" y2="108.8047">
			<stop  offset="0" style="stop-color:#B3E8E5"/>
			<stop  offset="0.4633" style="stop-color:#CAEBEA"/>
			<stop  offset="1" style="stop-color:#EAF0F0"/>
		</linearGradient>
		<path class="st5" d="M171.9,115.9l3.6-3.6c-7-6.5-15.9-10.2-25.4-10.6v5.2C158.5,107.2,166.1,110.6,171.9,115.9z"/>
		<linearGradient id="SVGID_5_" gradientUnits="userSpaceOnUse" x1="174.5218" y1="127.4666" x2="188.3154" y2="127.4666">
			<stop  offset="0" style="stop-color:#B3E8E5"/>
			<stop  offset="0.4633" style="stop-color:#CAEBEA"/>
			<stop  offset="1" style="stop-color:#EAF0F0"/>
		</linearGradient>
		<path class="st6" d="M183.4,140.2h4.9c-0.4-9.5-4-18.4-10.4-25.4l-3.4,3.4C179.8,124,183.2,131.7,183.4,140.2z"/>
		<linearGradient id="SVGID_6_" gradientUnits="userSpaceOnUse" x1="174.0198" y1="156.219" x2="188.3013" y2="156.219">
			<stop  offset="0" style="stop-color:#B3E8E5"/>
			<stop  offset="0.4633" style="stop-color:#CAEBEA"/>
			<stop  offset="1" style="stop-color:#EAF0F0"/>
		</linearGradient>
		<path class="st7" d="M183.4,143.6c-0.5,8.3-4,15.8-9.4,21.5l3.7,3.7c6.4-6.9,10.1-15.8,10.6-25.2H183.4z"/>
		<linearGradient id="SVGID_7_" gradientUnits="userSpaceOnUse" x1="150.0934" y1="174.5464" x2="175.3114" y2="174.5464">
			<stop  offset="0" style="stop-color:#B3E8E5"/>
			<stop  offset="0.4633" style="stop-color:#CAEBEA"/>
			<stop  offset="1" style="stop-color:#EAF0F0"/>
		</linearGradient>
		<path class="st8" d="M150.1,175.9v5.8c9.4-0.4,18.3-4.1,25.2-10.4l-3.9-3.9C165.7,172.4,158.3,175.6,150.1,175.9z"/>
		<linearGradient id="SVGID_8_" gradientUnits="userSpaceOnUse" x1="121.3767" y1="174.3291" x2="146.6568" y2="174.3291">
			<stop  offset="0" style="stop-color:#B3E8E5"/>
			<stop  offset="0.4633" style="stop-color:#CAEBEA"/>
			<stop  offset="1" style="stop-color:#EAF0F0"/>
		</linearGradient>
		<path class="st9" d="M125.7,167l-4.4,4.4c7,6.4,15.8,10,25.3,10.4v-5.9C138.6,175.3,131.3,172,125.7,167z"/>
		<linearGradient id="SVGID_9_" gradientUnits="userSpaceOnUse" x1="108.3201" y1="156.2524" x2="123.3058" y2="156.2524">
			<stop  offset="0" style="stop-color:#B3E8E5"/>
			<stop  offset="0.4633" style="stop-color:#CAEBEA"/>
			<stop  offset="1" style="stop-color:#EAF0F0"/>
		</linearGradient>
		<path class="st10" d="M114.5,143.6h-6.1c0.4,9.5,4.2,18.3,10.6,25.3l4.4-4.4C118.2,158.9,115,151.6,114.5,143.6z"/>
		<linearGradient id="SVGID_10_" gradientUnits="userSpaceOnUse" x1="108.3059" y1="127.4332" x2="122.8164" y2="127.4332">
			<stop  offset="0" style="stop-color:#B3E8E5"/>
			<stop  offset="0.4633" style="stop-color:#CAEBEA"/>
			<stop  offset="1" style="stop-color:#EAF0F0"/>
		</linearGradient>
		<path class="st11" d="M122.8,118.8l-4.1-4.1c-6.4,7-10.1,16-10.4,25.5h6.1C114.7,132,117.8,124.5,122.8,118.8z"/>
	</g>
</g>
</svg>
