<?xml version="1.0" encoding="utf-8"?>
<!-- Generator: Adobe Illustrator 23.0.4, SVG Export Plug-In . SVG Version: 6.00 Build 0)  -->
<svg version="1.1" id="Layer_1" xmlns="http://www.w3.org/2000/svg" xmlns:xlink="http://www.w3.org/1999/xlink" x="0px" y="0px"
	 viewBox="0 0 295 290" style="enable-background:new 0 0 295 290;" xml:space="preserve">
<style type="text/css">
	.st0{fill:#064763;}
	.st1{fill:url(#SVGID_1_);}
	.st2{display:none;}
	.st3{display:inline;fill:#064763;}
	.st4{fill:url(#SVGID_2_);}
	.st5{fill:#FFFFFF;}
	.st6{fill:#F7F6F2;}
</style>
<g>
	<circle id="XMLID_7_" class="st0" cx="147.3" cy="144.8" r="134.3"/>
	
		<linearGradient id="SVGID_1_" gradientUnits="userSpaceOnUse" x1="96.8615" y1="871.7885" x2="197.7461" y2="972.6731" gradientTransform="matrix(1 0 0 1 0 -788)">
		<stop  offset="0" style="stop-color:#41B1F2"/>
		<stop  offset="0.2227" style="stop-color:#2F9BD9"/>
		<stop  offset="0.5262" style="stop-color:#1C83BE"/>
		<stop  offset="0.7953" style="stop-color:#1074AE"/>
		<stop  offset="1" style="stop-color:#0C6FA8"/>
	</linearGradient>
	<path class="st1" d="M179.4,200.6l-25.1,13.9c-4.4,2.4-9.7,2.4-14,0l-25.1-13.9c-13.8-7.6-22.4-22.2-22.4-38V94
		c0-8.2,6.6-14.8,14.8-14.8l16.3,3.3c15.1,3.1,30.7,3.1,45.8,0.1l17.3-3.4c8.2,0,14.8,6.6,14.8,14.8v68.6
		C201.8,178.5,193.2,193,179.4,200.6z"/>
	<circle class="st0" cx="148.3" cy="142.7" r="24.3"/>
	<g class="st2">
		<path class="st3" d="M146.7,107.2v-5.5c-9.5,0.4-18.5,4.1-25.5,10.6l3.9,3.9C130.8,110.9,138.4,107.6,146.7,107.2z"/>
		<path class="st3" d="M171.9,115.9l3.6-3.6c-7-6.5-15.9-10.2-25.4-10.6v5.2C158.5,107.2,166.1,110.6,171.9,115.9z"/>
		<path class="st3" d="M183.4,140.2h4.9c-0.4-9.5-4-18.4-10.4-25.4l-3.4,3.4C179.8,124,183.2,131.7,183.4,140.2z"/>
		<path class="st3" d="M183.4,143.6c-0.5,8.3-4,15.8-9.4,21.5l3.7,3.7c6.4-6.9,10.1-15.8,10.6-25.2H183.4z"/>
		<path class="st3" d="M150.1,175.9v5.8c9.4-0.4,18.3-4.1,25.2-10.4l-3.9-3.9C165.7,172.4,158.3,175.6,150.1,175.9z"/>
		<path class="st3" d="M125.7,167l-4.4,4.4c7,6.4,15.8,10,25.3,10.4v-5.9C138.6,175.3,131.3,172,125.7,167z"/>
		<path class="st3" d="M114.5,143.6h-6.1c0.4,9.5,4.2,18.3,10.6,25.3l4.4-4.4C118.2,158.9,115,151.6,114.5,143.6z"/>
		<path class="st3" d="M122.8,118.8l-4.1-4.1c-6.4,7-10.1,16-10.4,25.5h6.1C114.7,132,117.8,124.5,122.8,118.8z"/>
	</g>
	<linearGradient id="SVGID_2_" gradientUnits="userSpaceOnUse" x1="131.1173" y1="125.3673" x2="165.4827" y2="159.7327">
		<stop  offset="0" style="stop-color:#F7F6F2"/>
		<stop  offset="0.4441" style="stop-color:#F1F0EC"/>
		<stop  offset="1" style="stop-color:#E2E0DC"/>
	</linearGradient>
	<circle class="st4" cx="148.3" cy="142.6" r="24.3"/>
	<g>
		<path class="st5" d="M146.6,107.1v-5.5c-9.5,0.4-18.5,4.1-25.5,10.6l3.9,3.9C130.8,110.8,138.3,107.5,146.6,107.1z"/>
		<path class="st6" d="M171.9,115.8l3.6-3.6c-7-6.5-15.9-10.2-25.4-10.6v5.2C158.4,107.1,166.1,110.5,171.9,115.8z"/>
		<path class="st5" d="M183.4,140.1h4.9c-0.4-9.5-4-18.4-10.4-25.4l-3.4,3.4C179.8,123.9,183.1,131.6,183.4,140.1z"/>
		<path class="st6" d="M183.3,143.5c-0.5,8.3-4,15.8-9.4,21.5l3.7,3.7c6.4-6.9,10.1-15.8,10.6-25.2H183.3z"/>
		<path class="st5" d="M150,175.8v5.8c9.4-0.4,18.3-4.1,25.2-10.4l-3.9-3.9C165.6,172.3,158.2,175.5,150,175.8z"/>
		<path class="st6" d="M125.7,166.9l-4.4,4.4c7,6.4,15.8,10,25.3,10.4v-5.9C138.6,175.2,131.3,171.9,125.7,166.9z"/>
		<path class="st5" d="M114.4,143.5h-6.1c0.4,9.5,4.2,18.3,10.6,25.3l4.4-4.4C118.2,158.8,114.9,151.5,114.4,143.5z"/>
		<path class="st6" d="M122.8,118.7l-4.1-4.1c-6.4,7-10.1,16-10.4,25.5h6.1C114.6,131.9,117.8,124.4,122.8,118.7z"/>
	</g>
</g>
</svg>
