<?xml version="1.0" encoding="utf-8"?>
<!-- Generator: Adobe Illustrator 23.0.4, SVG Export Plug-In . SVG Version: 6.00 Build 0)  -->
<svg version="1.1" id="Layer_1" xmlns="http://www.w3.org/2000/svg" xmlns:xlink="http://www.w3.org/1999/xlink" x="0px" y="0px"
	 viewBox="0 0 295 290" style="enable-background:new 0 0 295 290;" xml:space="preserve">
<style type="text/css">
	.st0{fill:#064763;}
	.st1{fill:none;stroke:url(#SVGID_1_);stroke-width:4;stroke-miterlimit:10;}
	.st2{fill:url(#SVGID_2_);}
	.st3{fill:url(#SVGID_3_);}
	.st4{fill:url(#SVGID_4_);}
	.st5{fill:#064763;enable-background:new    ;}
</style>
<g>
	<circle id="XMLID_3_" class="st0" cx="146.2" cy="145.1" r="134.3"/>
	<g>
		
			<linearGradient id="SVGID_1_" gradientUnits="userSpaceOnUse" x1="144.1378" y1="206.3" x2="160.1378" y2="206.3" gradientTransform="matrix(1 0 0 -1 0 292)">
			<stop  offset="0" style="stop-color:#B3E8E5"/>
			<stop  offset="0.4633" style="stop-color:#CAEBEA"/>
			<stop  offset="1" style="stop-color:#EAF0F0"/>
		</linearGradient>
		<path class="st1" d="M146.1,105.2V103c0-5.7,2.1-11.2,6-15.3l0,0c3.9-4.2,6-9.7,6-15.3v-6.2"/>
		
			<linearGradient id="SVGID_2_" gradientUnits="userSpaceOnUse" x1="148.1602" y1="238.7899" x2="169.1399" y2="217.8102" gradientTransform="matrix(1 0 0 -1 0 292)">
			<stop  offset="0" style="stop-color:#FC7474"/>
			<stop  offset="0.2161" style="stop-color:#FD5C69"/>
			<stop  offset="0.5222" style="stop-color:#FE415C"/>
			<stop  offset="0.7935" style="stop-color:#FF3155"/>
			<stop  offset="1" style="stop-color:#FF2B52"/>
		</linearGradient>
		<path class="st2" d="M174,64c0,2-8.8,1.5-9.7,3.1c-1,1.7,3.5,9.1,1.8,10.1c-1.6,0.9-5.5-8.8-7.5-8.9c-2,0-6.3,9.6-7.9,8.6
			c-1.7-1,3.1-8.3,2.2-10c-0.9-1.6-9.7-1.5-9.6-3.5c0-2,8.8-1.5,9.7-3.1c1-1.7-3.5-9.1-1.8-10.1c1.6-0.9,5.6,6.8,7.6,6.9
			c2,0,6.2-7.6,7.8-6.6c1.7,1-3.1,8.3-2.2,10C165.3,62.1,174.1,62,174,64z"/>
		
			<linearGradient id="SVGID_3_" gradientUnits="userSpaceOnUse" x1="130.4256" y1="192.467" x2="162.1726" y2="160.7201" gradientTransform="matrix(1 0 0 -1 0 292)">
			<stop  offset="0" style="stop-color:#FC7474"/>
			<stop  offset="0.2161" style="stop-color:#FD5C69"/>
			<stop  offset="0.5222" style="stop-color:#FE415C"/>
			<stop  offset="0.7935" style="stop-color:#FF3155"/>
			<stop  offset="1" style="stop-color:#FF2B52"/>
		</linearGradient>
		<path class="st3" d="M165.5,125.5l-5.5-2.1c-9.2-3.4-19-3.4-28.1,0.1l-5,1.9c-2.2,0.8-4.4-1.3-4.4-4.2v-11.6
			c0-2.4,1.5-4.4,3.5-4.4h40.6c1.9,0,3.5,2,3.5,4.4v11.7C170,124.2,167.8,126.4,165.5,125.5z"/>
		
			<linearGradient id="SVGID_4_" gradientUnits="userSpaceOnUse" x1="103.2465" y1="155.9534" x2="189.5136" y2="69.6864" gradientTransform="matrix(1 0 0 -1 0 292)">
			<stop  offset="0" style="stop-color:#FC7474"/>
			<stop  offset="0.2161" style="stop-color:#FD5C69"/>
			<stop  offset="0.5222" style="stop-color:#FE415C"/>
			<stop  offset="0.7935" style="stop-color:#FF3155"/>
			<stop  offset="1" style="stop-color:#FF2B52"/>
		</linearGradient>
		<circle class="st4" cx="146.2" cy="179" r="61"/>
		<circle class="st5" cx="146.1" cy="180.7" r="24.3"/>
		<g>
			<path class="st0" d="M144.4,145.2v-5.5c-9.5,0.4-18.5,4.1-25.5,10.6l3.9,3.9C128.6,148.9,136.1,145.6,144.4,145.2z"/>
			<path class="st0" d="M169.7,153.9l3.6-3.6c-7-6.5-15.9-10.2-25.4-10.6v5.2C156.2,145.2,163.9,148.6,169.7,153.9z"/>
			<path class="st0" d="M181.2,178.2h4.9c-0.4-9.5-4-18.4-10.4-25.4l-3.4,3.4C177.6,162,180.9,169.7,181.2,178.2z"/>
			<path class="st0" d="M181.1,181.6c-0.5,8.3-4,15.8-9.4,21.5l3.7,3.7c6.4-6.9,10.1-15.8,10.6-25.2H181.1z"/>
			<path class="st0" d="M147.8,213.9v5.8c9.4-0.4,18.3-4.1,25.2-10.4l-3.9-3.9C163.4,210.4,156,213.6,147.8,213.9z"/>
			<path class="st0" d="M123.5,205l-4.4,4.4c7,6.4,15.8,10,25.3,10.4v-5.9C136.4,213.3,129.1,210,123.5,205z"/>
			<path class="st0" d="M112.2,181.6h-6.1c0.4,9.5,4.2,18.3,10.6,25.3l4.4-4.4C116,196.9,112.7,189.6,112.2,181.6z"/>
			<path class="st0" d="M120.6,156.8l-4.1-4.1c-6.4,7-10.1,16-10.4,25.5h6.1C112.4,170,115.6,162.5,120.6,156.8z"/>
		</g>
	</g>
</g>
</svg>
