<?xml version="1.0" encoding="utf-8"?>
<!-- Generator: Adobe Illustrator 23.0.4, SVG Export Plug-In . SVG Version: 6.00 Build 0)  -->
<svg version="1.1" id="Layer_1" xmlns="http://www.w3.org/2000/svg" xmlns:xlink="http://www.w3.org/1999/xlink" x="0px" y="0px"
	 viewBox="0 0 764.8 123.8" style="enable-background:new 0 0 764.8 123.8;" xml:space="preserve">
<style type="text/css">
	.st0{fill:#FFFFFF;}
</style>
<g>
	<g>
		<path class="st0" d="M509.2,77.1c-2.9,2.9-6.3,4.2-10.5,4.2c-4,0-7.3-1.4-10.1-4.1c-1.6-1.6-2.6-3.5-3-5.6s-0.6-5.2-0.6-9.3
			s0.2-7.2,0.6-9.3s1.4-4,3-5.6c2.7-2.7,6.1-4.1,10.1-4.1c8.5,0,13,5.5,14,12h-7.3c-0.9-3.6-3.1-5.5-6.7-5.5c-1.9,0-3.5,0.7-4.7,2
			c-1.3,1.7-1.8,3.1-1.8,10.5c0,7.3,0.3,8.8,1.8,10.5c1.1,1.3,2.7,1.9,4.7,1.9c2.1,0,3.9-0.7,5.2-2.1c1.1-1.3,1.7-2.9,1.7-5v-1.4
			h-6.9v-6h14.1v5.6C512.7,71.2,511.7,74.4,509.2,77.1z"/>
		<path class="st0" d="M544,81.1l-2.2-6.6h-13.2l-2.3,6.6h-7.6l13.6-37.3h5.7l13.6,37.3H544z M535.4,54.8l-4.7,13.5h9.2L535.4,54.8z
			"/>
		<path class="st0" d="M570.3,81.4c-5.6,0-9.9-1.2-13.6-4.9l4.7-4.7c2.4,2.3,5.5,3.1,9,3.1c4.3,0,6.6-1.6,6.6-4.6
			c0-1.3-0.4-2.4-1.1-3.2c-0.8-0.7-1.6-1-3.3-1.3l-4.5-0.6c-3.2-0.5-5.6-1.5-7.2-3.1c-1.8-1.8-2.7-4.2-2.7-7.3
			c0-6.7,4.9-11.3,13-11.3c5.1,0,8.8,1.2,12.1,4.3l-4.6,4.6c-2.4-2.2-5.2-2.6-7.6-2.6c-3.9,0-5.8,2.2-5.8,4.7c0,1,0.3,1.9,1.1,2.7
			c0.7,0.7,1.9,1.2,3.5,1.5l4.4,0.6c3.4,0.5,5.5,1.4,7.1,2.9c2,1.9,2.9,4.6,2.9,7.9C584.1,77.3,578.1,81.4,570.3,81.4z"/>
		<path class="st0" d="M594.1,81.1V43.8h7.3v30.8h16.9v6.5H594.1z"/>
		<path class="st0" d="M627.4,81.1V43.8h7.3v37.3H627.4z"/>
		<path class="st0" d="M669.4,77.1c-2.9,2.9-6.3,4.2-10.5,4.2c-4,0-7.3-1.4-10-4.1c-1.6-1.6-2.6-3.5-3.1-5.6
			c-0.4-2.1-0.6-5.2-0.6-9.3s0.2-7.2,0.6-9.3s1.4-4,3.1-5.6c2.7-2.7,6.1-4.1,10-4.1c8.5,0,13,5.5,14,12h-7.3
			c-0.9-3.6-3.1-5.5-6.7-5.5c-1.9,0-3.5,0.7-4.7,2c-1.4,1.7-1.8,3.1-1.8,10.5c0,7.3,0.3,8.8,1.8,10.5c1.1,1.3,2.7,1.9,4.7,1.9
			c2.2,0,3.9-0.7,5.2-2.1c1.1-1.3,1.7-2.9,1.7-5v-1.4h-6.9v-6H673v5.6C673,71.2,672,74.4,669.4,77.1z"/>
		<path class="st0" d="M702.8,81.1V65.5h-12.6v15.6h-7.3V43.8h7.3V59h12.6V43.8h7.3v37.3H702.8z"/>
		<path class="st0" d="M736.1,50.3v30.8h-7.3V50.3h-9.7v-6.5h26.8v6.5H736.1z"/>
	</g>
</g>
<g>
	<path class="st0" d="M387.9,16.8l-56.5,56.5h21.8l34.7,34.7l34.7-34.7h21.8L387.9,16.8z M387.9,94.7l-6.9-6.9l0,0l-6.9-6.9L381,74
		l7-6.9l6.9,6.9l6.9,6.9l-6.9,6.9l0,0L387.9,94.7z M406.1,76.5l-18.2-18.1l-0.2,0.2l-18,18L359.2,66l28.7-28.7L416.6,66L406.1,76.5z
		"/>
</g>
<g>
	<path class="st0" d="M36.3,67h-6.9v14h-7V43.7h14c7.5,0,11.9,5.3,11.9,11.6C48.2,61.7,43.7,67,36.3,67z M35.9,50.2h-6.6v10.2h6.6
		c3.2,0,5.2-2,5.2-5.1S39.1,50.2,35.9,50.2z"/>
	<path class="st0" d="M76,77.3c-2.5,2.6-5.6,4.1-9.7,4.1s-7.2-1.5-9.8-4.1c-3.6-3.8-3.5-8.4-3.5-14.9s-0.1-11.1,3.5-14.9
		c2.5-2.6,5.7-4.1,9.8-4.1s7.2,1.5,9.7,4.1c3.6,3.8,3.6,8.4,3.6,14.9S79.6,73.5,76,77.3z M70.8,51.9c-1-1.2-2.6-2-4.5-2
		s-3.5,0.8-4.6,2c-1.4,1.6-1.7,3.3-1.7,10.5s0.4,8.9,1.7,10.5c1,1.2,2.6,2,4.6,2c1.9,0,3.5-0.8,4.5-2c1.4-1.6,1.8-3.3,1.8-10.5
		C72.5,55.2,72.1,53.5,70.8,51.9z"/>
	<path class="st0" d="M117,81h-5.9l-6.6-22.6L97.9,81H92l-9.6-37.3h7.4l5.6,23.5l6.6-23.5h5.3l6.6,23.5l5.6-23.5h7.3L117,81z"/>
	<path class="st0" d="M131.2,81V43.7H155v6.5h-16.7V59h14.2v6.5h-14.2v9.1H155V81H131.2z"/>
	<path class="st0" d="M181.1,81l-7-14.9H169V81h-7V43.7h14c7.3,0,11.7,5.2,11.7,11.4c0,5.2-3.1,8.5-6.6,9.8l8.1,16.1H181.1z
		 M175.6,50.2H169v9.9h6.6c3.1,0,5.1-2,5.1-4.9C180.7,52.3,178.7,50.2,175.6,50.2z"/>
	<path class="st0" d="M217.6,77.5c-2.4,2.5-5.8,3.6-9.5,3.6h-13V43.7h13c3.8,0,7.1,1.1,9.5,3.6c4.1,4.2,3.7,9.3,3.7,14.9
		S221.7,73.3,217.6,77.5z M212.7,52.5c-1.2-1.5-2.8-2.3-5.3-2.3h-5.3v24.3h5.3c2.4,0,4.1-0.8,5.3-2.3c1.3-1.7,1.5-4.4,1.5-10
		S214,54.2,212.7,52.5z"/>
	<path class="st0" d="M255.3,81h-15.1V43.7h14.5c7,0,11.2,4.1,11.2,10.5c0,4.1-2.6,6.8-4.5,7.7c2.2,1,5,3.4,5,8.4
		C266.4,77.3,261.8,81,255.3,81z M254.2,50.2h-6.9v8.6h6.9c3,0,4.7-1.7,4.7-4.3C258.8,51.9,257.1,50.2,254.2,50.2z M254.6,65.4h-7.4
		v9.2h7.4c3.2,0,4.7-2.1,4.7-4.6S257.8,65.4,254.6,65.4z"/>
	<path class="st0" d="M287.4,65.7V81h-7V65.7l-10.8-22h7.7l6.7,15l6.6-15h7.7L287.4,65.7z"/>
</g>
</svg>
