<?xml version="1.0" encoding="utf-8"?>
<!-- Generator: Adobe Illustrator 23.0.4, SVG Export Plug-In . SVG Version: 6.00 Build 0)  -->
<svg version="1.1" id="Layer_1" xmlns="http://www.w3.org/2000/svg" xmlns:xlink="http://www.w3.org/1999/xlink" x="0px" y="0px"
	 viewBox="0 0 764.8 123.8" style="enable-background:new 0 0 764.8 123.8;" xml:space="preserve">
<style type="text/css">
	.st0{fill:#FFFFFF;}
</style>
<g>
	<g>
		<path class="st0" d="M514.9,79.1c-2.9,2.9-6.3,4.2-10.5,4.2c-4,0-7.3-1.4-10.1-4.1c-1.6-1.6-2.6-3.5-3-5.6s-0.6-5.2-0.6-9.3
			s0.2-7.2,0.6-9.3s1.4-4,3-5.6c2.7-2.7,6.1-4.1,10.1-4.1c8.5,0,13,5.5,14,12h-7.3c-0.9-3.6-3.1-5.5-6.7-5.5c-1.9,0-3.5,0.7-4.7,2
			c-1.3,1.7-1.8,3.1-1.8,10.5c0,7.3,0.3,8.8,1.8,10.5c1.1,1.3,2.7,1.9,4.7,1.9c2.1,0,3.9-0.7,5.2-2.1c1.1-1.3,1.7-2.9,1.7-5v-1.4
			h-6.9v-6h14.1v5.6C518.4,73.2,517.4,76.4,514.9,79.1z"/>
		<path class="st0" d="M549.7,83.1l-2.2-6.6h-13.2l-2.3,6.6h-7.6L538,45.8h5.7l13.6,37.3H549.7z M541.1,56.8l-4.7,13.5h9.2
			L541.1,56.8z"/>
		<path class="st0" d="M576,83.4c-5.6,0-9.9-1.2-13.6-4.9l4.7-4.7c2.4,2.3,5.5,3.1,9,3.1c4.3,0,6.6-1.6,6.6-4.6
			c0-1.3-0.4-2.4-1.1-3.2c-0.8-0.7-1.6-1-3.3-1.3l-4.5-0.6c-3.2-0.5-5.6-1.5-7.2-3.1c-1.8-1.8-2.7-4.2-2.7-7.3
			c0-6.7,4.9-11.3,13-11.3c5.1,0,8.8,1.2,12.1,4.3l-4.6,4.6c-2.4-2.2-5.2-2.6-7.6-2.6c-3.9,0-5.8,2.2-5.8,4.7c0,1,0.3,1.9,1.1,2.7
			c0.7,0.7,1.9,1.2,3.5,1.5l4.4,0.6c3.4,0.5,5.5,1.4,7.1,2.9c2,1.9,2.9,4.6,2.9,7.9C589.8,79.3,583.8,83.4,576,83.4z"/>
		<path class="st0" d="M599.8,83.1V45.8h7.3v30.8H624v6.5H599.8z"/>
		<path class="st0" d="M633.1,83.1V45.8h7.3v37.3H633.1z"/>
		<path class="st0" d="M675.1,79.1c-2.9,2.9-6.3,4.2-10.5,4.2c-4,0-7.3-1.4-10-4.1c-1.6-1.6-2.6-3.5-3.1-5.6
			c-0.4-2.1-0.6-5.2-0.6-9.3s0.2-7.2,0.6-9.3s1.4-4,3.1-5.6c2.7-2.7,6.1-4.1,10-4.1c8.5,0,13,5.5,14,12h-7.3
			c-0.9-3.6-3.1-5.5-6.7-5.5c-1.9,0-3.5,0.7-4.7,2c-1.4,1.7-1.8,3.1-1.8,10.5c0,7.3,0.3,8.8,1.8,10.5c1.1,1.3,2.7,1.9,4.7,1.9
			c2.2,0,3.9-0.7,5.2-2.1c1.1-1.3,1.7-2.9,1.7-5v-1.4h-6.9v-6h14.1v5.6C678.7,73.2,677.7,76.4,675.1,79.1z"/>
		<path class="st0" d="M708.5,83.1V67.5h-12.6v15.6h-7.3V45.8h7.3V61h12.6V45.8h7.3v37.3H708.5z"/>
		<path class="st0" d="M741.8,52.3v30.8h-7.3V52.3h-9.7v-6.5h26.8v6.5H741.8z"/>
	</g>
</g>
<g>
	<path class="st0" d="M407.2,18.8l-56.5,56.5h21.8l34.7,34.7l34.7-34.7h21.8L407.2,18.8z M407.2,96.7l-6.9-6.9l0,0l-6.9-6.9l6.9-6.9
		l7-6.9l6.9,6.9l6.9,6.9l-6.9,6.9l0,0L407.2,96.7z M425.4,78.5l-18.2-18.1l-0.2,0.2l-18,18L378.5,68l28.7-28.7L435.9,68L425.4,78.5z
		"/>
</g>
<g>
	<path class="st0" d="M26.2,66.6H19v14.1h-7.3V43.1h14.6c7.8,0,12.4,5.3,12.4,11.7S34,66.6,26.2,66.6z M25.9,49.7H19V60h6.9
		c3.3,0,5.4-2.1,5.4-5.1S29.2,49.7,25.9,49.7z"/>
	<path class="st0" d="M67.5,76.9c-2.6,2.6-5.9,4.1-10.1,4.1c-4.3,0-7.5-1.5-10.2-4.1c-3.8-3.8-3.7-8.5-3.7-15c0-6.5-0.1-11.2,3.7-15
		c2.6-2.6,5.9-4.1,10.2-4.1c4.3,0,7.5,1.5,10.1,4.1c3.8,3.8,3.7,8.5,3.7,15C71.3,68.4,71.3,73.1,67.5,76.9z M62.1,51.4
		c-1.1-1.2-2.7-2-4.7-2s-3.7,0.8-4.7,2c-1.4,1.6-1.8,3.3-1.8,10.5c0,7.2,0.4,9,1.8,10.6c1.1,1.2,2.7,2,4.7,2s3.6-0.8,4.7-2
		c1.4-1.6,1.8-3.3,1.8-10.6C63.9,54.7,63.5,53,62.1,51.4z"/>
	<path class="st0" d="M110.3,80.7h-6.1l-6.9-22.8l-6.9,22.8h-6.1l-10-37.6h7.6l5.8,23.7l6.9-23.7h5.5l6.9,23.7l5.9-23.7h7.6
		L110.3,80.7z"/>
	<path class="st0" d="M125,80.7V43.1h24.7v6.5h-17.4v8.8h14.8V65h-14.8v9.1h17.4v6.5H125z"/>
	<path class="st0" d="M176.9,80.7l-7.3-15h-5.3v15h-7.3V43.1h14.7c7.6,0,12.2,5.2,12.2,11.5c0,5.3-3.2,8.5-6.9,9.9l8.4,16.2H176.9z
		 M171.2,49.7h-6.9v9.9h6.9c3.2,0,5.3-2.1,5.3-5S174.4,49.7,171.2,49.7z"/>
	<path class="st0" d="M191.4,80.7V43.1h24.7v6.5h-17.4v8.8h14.8V65h-14.8v9.1h17.4v6.5H191.4z"/>
	<path class="st0" d="M246.8,77.1c-2.5,2.5-6,3.6-9.9,3.6h-13.6V43.1h13.6c3.9,0,7.4,1.1,9.9,3.6c4.2,4.2,3.8,9.4,3.8,15
		C250.6,67.4,251,72.9,246.8,77.1z M241.7,52c-1.3-1.5-3-2.3-5.5-2.3h-5.5v24.5h5.5c2.5,0,4.2-0.8,5.5-2.3c1.4-1.7,1.6-4.4,1.6-10.1
		C243.3,56.1,243.1,53.7,241.7,52z"/>
	<path class="st0" d="M286,80.7h-15.7V43.1h15.1c7.3,0,11.6,4.1,11.6,10.5c0,4.2-2.7,6.9-4.6,7.8c2.3,1.1,5.2,3.4,5.2,8.4
		C297.5,76.9,292.7,80.7,286,80.7z M284.8,49.7h-7.2v8.7h7.2c3.1,0,4.9-1.7,4.9-4.3S287.9,49.7,284.8,49.7z M285.3,64.9h-7.6v9.2
		h7.6c3.3,0,4.9-2.1,4.9-4.6C290.2,67,288.6,64.9,285.3,64.9z"/>
	<path class="st0" d="M319.4,65.3v15.4h-7.3V65.3l-11.3-22.2h8l7,15.1l6.9-15.1h8L319.4,65.3z"/>
</g>
</svg>
