<?xml version="1.0" encoding="utf-8"?>
<!-- Generator: Adobe Illustrator 23.0.4, SVG Export Plug-In . SVG Version: 6.00 Build 0)  -->
<svg version="1.1" id="Layer_1" xmlns="http://www.w3.org/2000/svg" xmlns:xlink="http://www.w3.org/1999/xlink" x="0px" y="0px"
	 viewBox="0 0 295 290" style="enable-background:new 0 0 295 290;" xml:space="preserve">
<style type="text/css">
	.st0{fill:#064763;}
	.st1{fill:none;stroke:url(#SVGID_1_);stroke-width:4;stroke-miterlimit:10;}
	.st2{fill:url(#SVGID_2_);}
	.st3{fill:url(#SVGID_3_);}
	.st4{fill:url(#SVGID_4_);}
	.st5{opacity:0.34;fill:url(#SVGID_5_);}
</style>
<g>
	<circle id="XMLID_4_" class="st0" cx="147.3" cy="145.1" r="134.3"/>
	<g>
		<linearGradient id="SVGID_1_" gradientUnits="userSpaceOnUse" x1="145.2321" y1="86.1243" x2="161.2321" y2="86.1243">
			<stop  offset="0" style="stop-color:#B3E8E5"/>
			<stop  offset="0.4633" style="stop-color:#CAEBEA"/>
			<stop  offset="1" style="stop-color:#EAF0F0"/>
		</linearGradient>
		<path class="st1" d="M147.2,105.6v-2.2c0-5.7,2.1-11.2,6-15.3l0,0c3.9-4.2,6-9.7,6-15.3v-6.2"/>
		<linearGradient id="SVGID_2_" gradientUnits="userSpaceOnUse" x1="149.249" y1="53.6414" x2="170.2148" y2="74.6072">
			<stop  offset="0" style="stop-color:#FC7474"/>
			<stop  offset="0.2161" style="stop-color:#FD5C69"/>
			<stop  offset="0.5222" style="stop-color:#FE415C"/>
			<stop  offset="0.7935" style="stop-color:#FF3155"/>
			<stop  offset="1" style="stop-color:#FF2B52"/>
		</linearGradient>
		<path class="st2" d="M175.1,64.4c0,2-8.8,1.5-9.7,3.1c-1,1.7,3.5,9.1,1.8,10.1c-1.6,0.9-5.5-8.8-7.5-8.9c-2,0-6.3,9.6-7.9,8.6
			c-1.7-1,3.1-8.3,2.2-10c-0.9-1.6-9.7-1.5-9.6-3.5c0-2,8.8-1.5,9.7-3.1c1-1.7-3.5-9.1-1.8-10.1c1.6-0.9,5.6,6.8,7.6,6.9
			c2,0,6.2-7.6,7.8-6.6c1.7,1-3.1,8.3-2.2,10C166.4,62.6,175.2,62.4,175.1,64.4z"/>
		<linearGradient id="SVGID_3_" gradientUnits="userSpaceOnUse" x1="131.444" y1="100.003" x2="163.1895" y2="131.7485">
			<stop  offset="0" style="stop-color:#FC7474"/>
			<stop  offset="0.2161" style="stop-color:#FD5C69"/>
			<stop  offset="0.5222" style="stop-color:#FE415C"/>
			<stop  offset="0.7935" style="stop-color:#FF3155"/>
			<stop  offset="1" style="stop-color:#FF2B52"/>
		</linearGradient>
		<path class="st3" d="M166.6,126l-5.5-2.1c-9.2-3.4-19-3.4-28.1,0.1l-5,1.9c-2.2,0.8-4.4-1.3-4.4-4.2v-11.6c0-2.4,1.5-4.4,3.5-4.4
			h40.6c1.9,0,3.5,2,3.5,4.4v11.7C171.1,124.7,168.8,126.8,166.6,126z"/>
		<linearGradient id="SVGID_4_" gradientUnits="userSpaceOnUse" x1="104.3328" y1="135.5965" x2="190.5998" y2="221.8635">
			<stop  offset="0" style="stop-color:#FC7474"/>
			<stop  offset="0.2161" style="stop-color:#FD5C69"/>
			<stop  offset="0.5222" style="stop-color:#FE415C"/>
			<stop  offset="0.7935" style="stop-color:#FF3155"/>
			<stop  offset="1" style="stop-color:#FF2B52"/>
		</linearGradient>
		<circle class="st4" cx="147.3" cy="178.5" r="61"/>
		<linearGradient id="SVGID_5_" gradientUnits="userSpaceOnUse" x1="130.4202" y1="158.4423" x2="164.2734" y2="192.2955">
			<stop  offset="0" style="stop-color:#B3E8E5"/>
			<stop  offset="0.4633" style="stop-color:#CAEBEA"/>
			<stop  offset="1" style="stop-color:#EAF0F0"/>
		</linearGradient>
		<path class="st5" d="M147.3,149.1c-10.2,0-18.5,8.3-18.5,18.5s12.6,40.4,18.5,40.4c5.9,0,18.5-30.1,18.5-40.4
			S157.5,149.1,147.3,149.1z M147.3,177.7c-5.6,0-10.1-4.5-10.1-10.1s4.5-10.1,10.1-10.1s10.1,4.5,10.1,10.1
			S152.8,177.7,147.3,177.7z"/>
	</g>
</g>
</svg>
