<?xml version="1.0" standalone="no"?>
<!DOCTYPE svg PUBLIC "-//W3C//DTD SVG 20010904//EN"
 "http://www.w3.org/TR/2001/REC-SVG-20010904/DTD/svg10.dtd">
<svg version="1.0" xmlns="http://www.w3.org/2000/svg"
 width="64.000000pt" height="64.000000pt" viewBox="0 0 64.000000 64.000000"
 preserveAspectRatio="xMidYMid meet">
<metadata>
Created by potrace 1.11, written by Peter Selinger 2001-2013
</metadata>
<g transform="translate(0.000000,64.000000) scale(0.100000,-0.100000)"
fill="#000000" stroke="none">
<path d="M63 383 c-20 -7 -17 -119 2 -127 15 -5 19 4 16 34 -1 10 5 7 18 -8
25 -29 65 -37 85 -17 19 19 43 19 63 0 26 -27 32 -6 11 47 -35 94 -54 96 -83
7 -9 -27 -21 -49 -25 -49 -15 0 -32 38 -20 45 12 7 13 52 2 59 -14 8 -56 14
-69 9z m45 -41 c2 -7 -3 -12 -10 -12 -8 0 -15 7 -15 15 0 18 19 15 25 -3z
m116 -17 c3 -9 0 -15 -9 -15 -9 0 -12 6 -9 15 4 8 7 15 9 15 2 0 5 -7 9 -15z"/>
<path d="M313 378 c-21 -10 -33 -31 -39 -67 -1 -7 8 -23 22 -36 29 -27 77 -28
82 -1 3 15 0 18 -19 13 -27 -7 -49 8 -49 35 0 20 36 39 58 31 6 -3 12 2 12 10
0 8 -7 18 -16 21 -20 8 -24 7 -51 -6z"/>
<path d="M404 381 c-5 -3 -9 -33 -9 -65 0 -56 1 -59 25 -61 14 -1 31 0 38 2
19 8 14 23 -8 23 -11 0 -20 7 -20 15 0 8 3 14 8 14 17 -3 32 2 32 10 0 5 -9
11 -20 13 -26 4 -31 20 -7 24 23 3 33 12 24 20 -9 10 -53 13 -63 5z"/>
<path d="M485 382 c-3 -3 -5 -31 -5 -63 0 -41 4 -58 15 -63 11 -4 15 2 15 21
l0 26 25 -27 c30 -32 52 -26 29 9 -10 15 -12 25 -5 30 14 8 14 52 0 61 -15 9
-67 13 -74 6z m53 -40 c2 -7 -3 -12 -12 -12 -9 0 -16 7 -16 16 0 17 22 14 28
-4z"/>
<path d="M350 330 c0 -6 -4 -9 -9 -5 -5 3 -12 1 -15 -4 -3 -5 1 -11 9 -15 8
-3 15 -1 15 5 0 6 5 7 10 4 6 -3 10 -2 10 4 0 5 -4 13 -10 16 -5 3 -10 1 -10
-5z"/>
</g>
</svg>
